<?xml version="1.0" encoding="iso-8859-1"?>
<!-- Generator: Adobe Illustrator 19.0.0, SVG Export Plug-In . SVG Version: 6.00 Build 0)  -->
<svg version="1.1" id="Capa_1" xmlns="http://www.w3.org/2000/svg" xmlns:xlink="http://www.w3.org/1999/xlink" x="0px" y="0px"
	 viewBox="0 0 512 512" style="enable-background:new 0 0 512 512;" xml:space="preserve">
<g>
	<g>
		<path d="M273.279,79.497c-1.822-5.214-7.528-7.965-12.739-6.14l-127.844,44.689c-11.64,4.068-20.229,13.674-22.974,25.694
			c-2.745,12.021,0.82,24.402,9.539,33.121l70.272,70.273c1.953,1.952,4.512,2.929,7.071,2.929s5.118-0.977,7.071-2.929
			c3.905-3.905,3.905-10.237,0-14.143l-70.271-70.272c-3.881-3.88-5.405-9.174-4.184-14.524c1.222-5.35,4.894-9.456,10.074-11.268
			l127.844-44.689C272.353,90.415,275.102,84.711,273.279,79.497z"/>
	</g>
</g>
<g>
	<g>
		<path d="M501.532,10.468c-9.758-9.759-23.913-12.992-36.943-8.438L336.366,46.851c-5.214,1.822-7.963,7.525-6.14,12.739
			c1.821,5.214,7.523,7.963,12.739,6.14L471.188,20.91c5.8-2.026,11.856-0.644,16.201,3.7c4.344,4.345,5.728,10.401,3.7,16.201
			L375.073,372.704c-1.812,5.181-5.918,8.853-11.268,10.074c-5.352,1.222-10.645-0.302-14.524-4.184l-71.604-71.604
			c-3.906-3.904-10.236-3.904-14.143,0c-3.905,3.905-3.905,10.237,0,14.143l71.604,71.604c6.783,6.783,15.782,10.447,25.105,10.447
			c2.66,0,5.348-0.299,8.016-0.908c12.02-2.745,21.626-11.333,25.694-22.974L509.969,47.411
			C514.524,34.383,511.29,20.228,501.532,10.468z"/>
	</g>
</g>
<g>
	<g>
		<path d="M321.164,190.834c-11.697-11.699-30.73-11.694-42.428,0L167.405,302.165c-11.478-7.821-27.29-6.651-37.462,3.521
			L15.817,419.814C5.617,430.013,0,443.574,0,457.999s5.617,27.985,15.816,38.185S39.577,512,54.002,512s27.985-5.617,38.185-15.816
			l114.127-114.126c10.172-10.172,11.341-25.985,3.521-37.462l111.33-111.332C332.861,221.567,332.861,202.534,321.164,190.834z
			 M192.171,367.914L78.043,482.04C71.621,488.463,63.084,492,54.002,492c-9.082,0-17.619-3.537-24.042-9.959
			c-6.422-6.422-9.959-14.959-9.959-24.042c0-9.082,3.537-17.619,9.959-24.042L144.086,319.83c1.852-1.853,4.284-2.778,6.718-2.778
			c2.433,0,4.865,0.926,6.717,2.778l3.162,3.162c0.007,0.007,0.012,0.014,0.019,0.02l28.286,28.286
			c0.006,0.007,0.014,0.012,0.021,0.018l3.162,3.162C195.875,358.183,195.875,364.209,192.171,367.914z M307.023,219.121
			L196.061,330.082l-14.143-14.143l110.962-110.961c3.897-3.899,10.243-3.898,14.143-0.001
			C310.922,208.877,310.922,215.222,307.023,219.121z"/>
	</g>
</g>
<g>
	<g>
		<path d="M149.388,362.611c-3.905-3.904-10.236-3.904-14.142,0l-64.981,64.981c-3.905,3.905-3.905,10.237,0,14.143
			c1.953,1.952,4.512,2.929,7.071,2.929s5.118-0.977,7.071-2.929l64.981-64.981C153.293,372.849,153.293,366.517,149.388,362.611z"
			/>
	</g>
</g>
<g>
	<g>
		<path d="M61.071,450.928c-1.859-1.861-4.439-2.93-7.069-2.93s-5.21,1.069-7.07,2.93s-2.93,4.44-2.93,7.07s1.069,5.21,2.93,7.069
			c1.86,1.86,4.44,2.931,7.07,2.931s5.21-1.07,7.069-2.931c1.86-1.859,2.931-4.439,2.931-7.069S62.932,452.789,61.071,450.928z"/>
	</g>
</g>
<g>
	<g>
		<path d="M310.268,62.924c-3.297-4.432-9.563-5.35-13.992-2.055l-0.244,0.182c-4.432,3.297-5.351,9.561-2.055,13.992
			c1.963,2.638,4.977,4.032,8.031,4.032c2.075,0,4.169-0.645,5.961-1.977l0.244-0.182C312.645,73.619,313.564,67.355,310.268,62.924
			z"/>
	</g>
</g>
<g>
</g>
<g>
</g>
<g>
</g>
<g>
</g>
<g>
</g>
<g>
</g>
<g>
</g>
<g>
</g>
<g>
</g>
<g>
</g>
<g>
</g>
<g>
</g>
<g>
</g>
<g>
</g>
<g>
</g>
</svg>
