<svg id="Layer_1_1_" enable-background="new 0 0 64 64" viewBox="0 0 64 64"  xmlns="http://www.w3.org/2000/svg"><path d="m61 21h-58c-.552 0-1 .448-1 1v39c0 .552.448 1 1 1h58c.552 0 1-.448 1-1v-39c0-.552-.448-1-1-1zm-1 39h-56v-37h56z"/><path d="m6.553 48.895 1.447.723v7.382c0 .552.448 1 1 1h6c.552 0 1-.448 1-1v-7.382l1-.5 1 .5v7.382c0 .552.448 1 1 1h6c.552 0 1-.448 1-1v-7.382l1-.5 1 .5v7.382c0 .552.448 1 1 1h6c.552 0 1-.448 1-1v-7.382l1-.5 1 .5v7.382c0 .552.448 1 1 1h6c.552 0 1-.448 1-1v-7.382l1-.5 1 .5v7.382c0 .552.448 1 1 1h6c.552 0 1-.448 1-1v-7.382l1.447-.724c.339-.169.553-.515.553-.894v-5c0-2-1.188-3.717-2.89-4.516.548-.685.89-1.541.89-2.484 0-2.206-1.794-4-4-4s-4 1.794-4 4c0 .943.342 1.799.89 2.484-.752.353-1.398.887-1.89 1.547-.492-.66-1.137-1.194-1.89-1.547.548-.685.89-1.541.89-2.484 0-2.206-1.794-4-4-4s-4 1.794-4 4c0 .943.342 1.799.89 2.484-.752.353-1.398.887-1.89 1.547-.492-.66-1.137-1.194-1.89-1.547.548-.685.89-1.541.89-2.484 0-2.206-1.794-4-4-4s-4 1.794-4 4c0 .943.342 1.799.89 2.484-.752.353-1.398.887-1.89 1.547-.492-.66-1.137-1.194-1.89-1.547.548-.685.89-1.541.89-2.484 0-2.206-1.794-4-4-4s-4 1.794-4 4c0 .943.342 1.799.89 2.484-.752.353-1.398.887-1.89 1.547-.492-.66-1.137-1.194-1.89-1.547.548-.685.89-1.541.89-2.484 0-2.206-1.794-4-4-4s-4 1.794-4 4c0 .943.342 1.799.89 2.484-1.701.799-2.89 2.516-2.89 4.516v5c0 .379.214.725.553.895zm45.447-14.895c1.103 0 2 .897 2 2s-.897 2-2 2-2-.897-2-2 .897-2 2-2zm-1 6h2c1.654 0 3 1.346 3 3v4.382l-1.447.724c-.339.169-.553.515-.553.894v7h-4v-7c0-.379-.214-.725-.553-.895l-1.447-.723v-4.382c0-1.654 1.346-3 3-3zm-9-6c1.103 0 2 .897 2 2s-.897 2-2 2-2-.897-2-2 .897-2 2-2zm-1 6h2c1.654 0 3 1.346 3 3v4.382l-1.447.724c-.339.169-.553.515-.553.894v7h-4v-7c0-.379-.214-.725-.553-.895l-1.447-.723v-4.382c0-1.654 1.346-3 3-3zm-9-6c1.103 0 2 .897 2 2s-.897 2-2 2-2-.897-2-2 .897-2 2-2zm-1 6h2c1.654 0 3 1.346 3 3v4.382l-1.447.724c-.339.169-.553.515-.553.894v7h-4v-7c0-.379-.214-.725-.553-.895l-1.447-.723v-4.382c0-1.654 1.346-3 3-3zm-9-6c1.103 0 2 .897 2 2s-.897 2-2 2-2-.897-2-2 .897-2 2-2zm-1 6h2c1.654 0 3 1.346 3 3v4.382l-1.447.724c-.339.169-.553.515-.553.894v7h-4v-7c0-.379-.214-.725-.553-.895l-1.447-.723v-4.382c0-1.654 1.346-3 3-3zm-9-6c1.103 0 2 .897 2 2s-.897 2-2 2-2-.897-2-2 .897-2 2-2zm-4 9c0-1.654 1.346-3 3-3h2c1.654 0 3 1.346 3 3v4.382l-1.447.724c-.339.169-.553.515-.553.894v7h-4v-7c0-.379-.214-.725-.553-.895l-1.447-.723z"/><path d="m43 15h3.442c.354 1.276.558 2.613.558 4h2c0-9.374-7.626-17-17-17s-17 7.626-17 17h2c0-1.387.204-2.724.558-4h3.442v-2h-2.739c.853-1.945 2.111-3.667 3.661-5.078l2.199 2.199 1.414-1.414-2.045-2.045c2.162-1.496 4.734-2.427 7.51-2.611v2.949h2v-2.949c2.671.177 5.154 1.045 7.263 2.443l-1.799 1.799 1.414 1.414 1.982-1.982c1.651 1.445 2.986 3.24 3.878 5.275h-2.738z"/><path d="m38.504 11.132-4.553 2.6c-.027-.023-.048-.052-.076-.074-.626-.501-1.413-.727-2.205-.64-.797.088-1.511.481-2.012 1.107-.5.625-.728 1.408-.639 2.205.17 1.532 1.473 2.669 2.98 2.669.11 0 .221-.006.333-.019 1.645-.183 2.833-1.669 2.65-3.312-.008-.068-.03-.132-.042-.199l4.556-2.602zm-5.723 5.493c-.167.208-.405.34-.67.369-.556.062-1.044-.336-1.104-.883-.03-.266.046-.527.213-.735s.405-.339.671-.369c.037-.005.074-.007.112-.007.226 0 .443.076.623.219.208.167.339.405.369.67.029.266-.047.527-.214.736z"/></svg>