<?xml version="1.0" encoding="utf-8"?>
<!-- Generator: Adobe Illustrator 25.2.0, SVG Export Plug-In . SVG Version: 6.00 Build 0)  -->
<svg version="1.1" id="Layer_1" xmlns="http://www.w3.org/2000/svg" xmlns:xlink="http://www.w3.org/1999/xlink" x="0px" y="0px"
	 viewBox="0 0 1107.7 1326.7" style="enable-background:new 0 0 1107.7 1326.7;" xml:space="preserve">
<style type="text/css">
	.st0{fill:#8BB4DA;}
	.st1{fill:#F6A200;}
	.st2{fill:#362F28;}
</style>
<path class="st0" d="M424.9,208.7l-110-110H3.3l288.3,288.5L3.3,675.5h311.6L424,566.4c-31.5-53.4-49.9-114-49.9-178.1
	C374.2,323.5,392.9,262.5,424.9,208.7z"/>
<path class="st0" d="M705.4,675.5H1017L752.2,410.7v125.6L603.1,387.2L752.2,238v125.6L1017,98.7H705.4L510.1,294l-54.6-54.6
	c-39,94.8-39.3,201.2-0.6,296.2l55.3-55.3L705.4,675.5z"/>
<path class="st1" d="M752.3,776.5v-2.7C617,751.2,505.2,659.2,454.9,535.5L424,566.4C491,680,617.2,761.3,752.3,776.5z"/>
<path class="st1" d="M752.3,2.7V0C617.8,15.1,492,95.8,424.9,208.7l30.7,30.6C506.2,116.5,617.5,25.1,752.3,2.7z"/>
<path class="st2" d="M976,1170.5V854.8h42.5v315.6H976z M776.6,1170.5V854.8h113.1v37.3h-70.6v91.6h70.6v37.3h-70.6v149.4H776.6z
	 M602.8,1070v-35.1h82.1v35.1H602.8z M432.8,1170.5V854.8h42.5v275.5h71.2v40.1L432.8,1170.5z M229.5,1170.5V854.8h113.1v37.3H272
	v91.6h70.6v37.3H272v111.1h70.6v38.3L229.5,1170.5z M165.2,1089.6c-4.4,28.2-13.5,49.7-27.4,64.4s-31.9,22-54.2,22
	c-28.8,0-49.9-13.2-63.3-39.4S0,1068.7,0,1011.9c0-55.2,7.4-96.1,22.1-122.6s37.4-39.8,68-39.7c17.9,0,33,6,45.3,18
	c12.3,12,21.4,29.7,27.3,53.1l-42.5,13.1c-2-15.1-5.9-26.5-11.8-34.4s-13.4-11.8-22.5-11.8c-13.8,0-24.2,10.3-31.1,31
	c-6.9,20.7-10.3,52.1-10.2,94.2c0,43.8,3.1,75.3,9.4,94.4s16.4,28.6,30.4,28.7c10.5,0,19-5.1,25.4-15.2s10.8-25.5,13-45.9
	L165.2,1089.6z"/>
<path class="st2" d="M1072.9,1175.8h-8.7v26.9h-5.4v-26.9h-8.7v-4.8h22.7V1175.8z M1102.5,1179.4l-8.2,23.2h-3.1l-8.2-23.2v23.2
	h-5.3V1171h6.6l8.5,23.5l8.5-23.5h6.6v31.6h-5.3L1102.5,1179.4z"/>
<polygon class="st2" points="979.5,1258.7 957.8,1235.4 935.2,1235.4 971.1,1273.9 971.1,1311.5 988,1311.5 988,1273.8 
	1024.1,1235.4 1000.9,1235.4 "/>
<polygon class="st2" points="864.3,1251.4 864.3,1311.5 881.4,1311.5 881.4,1251.4 910.9,1251.4 910.9,1235.4 834.8,1235.4 
	834.8,1251.4 "/>
<rect x="777.1" y="1235.3" class="st2" width="17.4" height="76.4"/>
<polygon class="st2" points="668.9,1235.4 650.3,1235.4 688.4,1311.5 698.1,1311.5 736.2,1235.4 717.1,1235.4 693.2,1283.8 "/>
<rect x="590.1" y="1235.3" class="st2" width="17.3" height="76.4"/>
<polygon class="st2" points="503.3,1251.4 503.3,1311.5 520.4,1311.5 520.4,1251.4 549.8,1251.4 549.8,1235.4 473.9,1235.4 
	473.9,1251.4 "/>
<polygon class="st2" points="328.1,1251.9 328.1,1235.4 256.4,1235.4 256.4,1311.5 331.1,1311.5 331.1,1295.2 273.5,1295.2 
	273.5,1279.4 309.4,1279.4 309.4,1263 273.5,1263 273.5,1251.9 "/>
<polygon class="st2" points="157.3,1267.6 197.1,1311.5 207.3,1311.5 207.3,1235.4 190.4,1235.4 190.4,1279.4 150.5,1235.4 
	140.3,1235.4 140.3,1311.5 157.3,1311.5 "/>
<polygon class="st2" points="383.4,1235.3 404.6,1260.7 425.8,1235.3 447.1,1235.3 415.3,1273.4 447.1,1311.4 425.8,1311.4 
	404.6,1286.1 383.4,1311.4 362.2,1311.4 394,1273.4 362.2,1235.3 "/>
<path id="By" class="st2" d="M73.5,1326.7h-6.6c-0.9,0-1.6-0.7-1.6-1.6c0-0.2,0-0.4,0.1-0.6l6.2-14.6l-15-36
	c-0.3-0.8,0.1-1.8,0.9-2.1c0.2-0.1,0.4-0.1,0.6-0.1h7.3c0.6,0,1.2,0.4,1.5,1l9.4,23.1c0.3,0.8,0.6,1.7,0.9,2.6v0.1l0,0
	c0.4-1.4,0.8-2.2,0.9-2.7l9.6-23.2c0.2-0.6,0.8-1,1.5-1h7.1c0.9,0,1.6,0.7,1.6,1.6c0,0.2,0,0.4-0.1,0.6l-22.8,51.8
	C74.6,1326.3,74.1,1326.7,73.5,1326.7z M32.1,1312c-2.9,0.1-5.7-0.6-8.3-1.8c-1.2-0.6-2.3-1.3-3.3-2.2v1.9c0,0.9-0.7,1.6-1.6,1.6
	h-6.4c-0.9,0-1.6-0.7-1.6-1.6V1257c0-0.9,0.7-1.6,1.6-1.6h5.9c0.9,0,1.6,0.7,1.6,1.6v18.3c1.1-1,2.4-1.8,3.7-2.4
	c2.6-1.3,5.5-1.9,8.4-1.9c6,0,10.9,1.9,14.6,5.7s5.5,8.7,5.5,14.8c0,2.7-0.4,5.3-1.4,7.8c-0.9,2.4-2.3,4.6-4.1,6.5
	C42.9,1309.8,37.6,1312,32.1,1312z M31.2,1279.9c-3-0.1-5.9,1.1-8,3.2c-4.2,4.8-4.2,12,0,16.8c2.1,2.2,5,3.3,8,3.2
	c3,0.1,5.9-1,8-3.2c4.2-4.9,4.2-12,0-16.9C37.1,1280.9,34.2,1279.8,31.2,1279.9z"/>
</svg>
