<svg id="Layer_1" data-name="Layer 1" xmlns="http://www.w3.org/2000/svg" viewBox="0 0 1107.9 1326.7"><defs><style>.cls-1{fill:#8bb4da;}.cls-2{fill:#f6a200;}.cls-3{fill:#fff;}</style></defs><path class="cls-1" d="M424.9,208.7l-110-110H3.3L291.6,387.2,3.3,675.5H314.9L424,566.4c-31.5-53.4-49.9-114-49.9-178.1C374.2,323.5,392.9,262.5,424.9,208.7Z"/><path class="cls-1" d="M705.4,675.5H1017L752.2,410.7V536.3L603.1,387.2,752.2,238V363.6L1017,98.7H705.4L510.1,294l-54.6-54.6a391,391,0,0,0-.6,296.2l55.3-55.3Z"/><path class="cls-2" d="M752.3,776.5v-2.7C617,751.2,505.2,659.2,454.9,535.5L424,566.4C491,680,617.2,761.3,752.3,776.5Z"/><path class="cls-2" d="M752.3,2.7V0C617.8,15.1,492,95.8,424.9,208.7l30.7,30.6C506.2,116.5,617.5,25.1,752.3,2.7Z"/><path class="cls-3" d="M976,1170.5V854.8h42.5v315.6H976Zm-199.4,0V854.8H889.7v37.3H819.1v91.6h70.6V1021H819.1v149.4H776.6ZM602.8,1070v-35.1h82.1V1070Zm-170,100.5V854.8h42.5v275.5h71.2v40.1Zm-203.3,0V854.8H342.6v37.3H272v91.6h70.6V1021H272v111.1h70.6v38.3Zm-64.3-80.9q-6.6,42.3-27.4,64.4c-13.9,14.7-31.9,22-54.2,22-28.8,0-49.9-13.2-63.3-39.4S0,1068.7,0,1011.9q0-82.8,22.1-122.6c14.7-26.5,37.4-39.8,68-39.7q26.85,0,45.3,18t27.3,53.1l-42.5,13.1c-2-15.1-5.9-26.5-11.8-34.4S95,887.6,85.9,887.6q-20.7,0-31.1,31t-10.2,94.2q0,65.7,9.4,94.4c6.3,19.1,16.4,28.6,30.4,28.7,10.5,0,19-5.1,25.4-15.2s10.8-25.5,13-45.9Z"/><path class="cls-3" d="M1072.9,1175.8h-8.7v26.9h-5.4v-26.9h-8.7V1171h22.7v4.8Zm29.6,3.6-8.2,23.2h-3.1l-8.2-23.2v23.2h-5.3V1171h6.6l8.5,23.5,8.5-23.5h6.6v31.6h-5.3Z"/><polygon class="cls-3" points="979.5 1258.7 957.8 1235.4 935.2 1235.4 971.1 1273.9 971.1 1311.5 988 1311.5 988 1273.8 1024.1 1235.4 1000.9 1235.4 979.5 1258.7"/><polygon class="cls-3" points="864.3 1251.4 864.3 1311.5 881.4 1311.5 881.4 1251.4 910.9 1251.4 910.9 1235.4 834.8 1235.4 834.8 1251.4 864.3 1251.4"/><rect class="cls-3" x="777.1" y="1235.3" width="17.4" height="76.4"/><polygon class="cls-3" points="668.9 1235.4 650.3 1235.4 688.4 1311.5 698.1 1311.5 736.2 1235.4 717.1 1235.4 693.2 1283.8 668.9 1235.4"/><rect class="cls-3" x="590.1" y="1235.3" width="17.3" height="76.4"/><polygon class="cls-3" points="503.3 1251.4 503.3 1311.5 520.4 1311.5 520.4 1251.4 549.8 1251.4 549.8 1235.4 473.9 1235.4 473.9 1251.4 503.3 1251.4"/><polygon class="cls-3" points="328.1 1251.9 328.1 1235.4 256.4 1235.4 256.4 1311.5 331.1 1311.5 331.1 1295.2 273.5 1295.2 273.5 1279.4 309.4 1279.4 309.4 1263 273.5 1263 273.5 1251.9 328.1 1251.9"/><polygon class="cls-3" points="157.3 1267.6 197.1 1311.5 207.3 1311.5 207.3 1235.4 190.4 1235.4 190.4 1279.4 150.5 1235.4 140.3 1235.4 140.3 1311.5 157.3 1311.5 157.3 1267.6"/><polygon class="cls-3" points="383.4 1235.3 404.6 1260.7 425.8 1235.3 447.1 1235.3 415.3 1273.4 447.1 1311.4 425.8 1311.4 404.6 1286.1 383.4 1311.4 362.2 1311.4 394 1273.4 362.2 1235.3 383.4 1235.3"/><path id="By" class="cls-3" d="M73.5,1326.7H66.9a1.58,1.58,0,0,1-1.6-1.6,1.27,1.27,0,0,1,.1-.6l6.2-14.6-15-36a1.67,1.67,0,0,1,.9-2.1,1.27,1.27,0,0,1,.6-.1h7.3a1.75,1.75,0,0,1,1.5,1l9.4,23.1c.3.8.6,1.7.9,2.6v.1h0c.4-1.4.8-2.2.9-2.7l9.6-23.2a1.54,1.54,0,0,1,1.5-1h7.1a1.58,1.58,0,0,1,1.6,1.6,1.27,1.27,0,0,1-.1.6L75,1325.6A1.8,1.8,0,0,1,73.5,1326.7ZM32.1,1312a18.27,18.27,0,0,1-8.3-1.8,14.61,14.61,0,0,1-3.3-2.2v1.9a1.58,1.58,0,0,1-1.6,1.6H12.5a1.58,1.58,0,0,1-1.6-1.6V1257a1.58,1.58,0,0,1,1.6-1.6h5.9A1.58,1.58,0,0,1,20,1257v18.3a14.67,14.67,0,0,1,3.7-2.4,18.78,18.78,0,0,1,8.4-1.9c6,0,10.9,1.9,14.6,5.7s5.5,8.7,5.5,14.8a20.72,20.72,0,0,1-1.4,7.8,19.34,19.34,0,0,1-4.1,6.5A20.11,20.11,0,0,1,32.1,1312Zm-.9-32.1a10.86,10.86,0,0,0-8,3.2,12.78,12.78,0,0,0,0,16.8,10.48,10.48,0,0,0,8,3.2,10.48,10.48,0,0,0,8-3.2,12.91,12.91,0,0,0,0-16.9A10.77,10.77,0,0,0,31.2,1279.9Z"/></svg>