<svg id="Layer_1" data-name="Layer 1" xmlns="http://www.w3.org/2000/svg" viewBox="0 0 179.78 178.25"><defs><style>.cls-1{fill:#fff;}</style></defs><path class="cls-1" d="M250.54,31.28,232.7,15H182.12l46.79,42.75-46.79,42.73H232.7l17.71-16.18a48.48,48.48,0,0,1-8.1-26.4A48.58,48.58,0,0,1,250.54,31.28Z" transform="translate(-181.59 -0.35)"/><path class="cls-1" d="M296.06,100.47h50.58l-43-39.25V79.83l-24.2-22.09,24.2-22.12V54.25l43-39.26H296.06L264.38,43.92l-8.86-8.09a53.33,53.33,0,0,0-.11,43.89l9-8.19Z" transform="translate(-181.59 -0.35)"/><path class="cls-1" d="M303.69,115.44V115c-22-3.33-40.11-17-48.28-35.31l-5,4.57C261.27,101.13,281.76,113.19,303.69,115.44Z" transform="translate(-181.59 -0.35)"/><path class="cls-1" d="M303.69.35c-21.84,2.24-42.25,14.21-53.15,30.93l5,4.55c8.22-18.21,26.3-31.75,48.17-35.08" transform="translate(-181.59 -0.35)"/><path class="cls-1" d="M340,173.84V127.05h6.9v46.79Zm-32.37,0V127.05H326v5.53H314.53v13.57H326v5.53H314.53v22.16ZM279.42,159v-5.2h13.32V159Zm-27.6,14.89V127.05h6.91v40.84h11.55v6Zm-33,0V127.05h18.35v5.53H225.74v13.57h11.45v5.53H225.74v16.47h11.45v5.69Zm-10.45-12q-1.06,6.27-4.45,9.54a12.14,12.14,0,0,1-8.8,3.25q-7,0-10.28-5.84t-3.27-18.46q0-12.28,3.59-18.17t11-5.89a10.66,10.66,0,0,1,7.35,2.66,15.91,15.91,0,0,1,4.44,7.87l-6.9,1.94a10.59,10.59,0,0,0-1.91-5.11,4.52,4.52,0,0,0-3.66-1.74c-2.24,0-3.93,1.53-5.05,4.6s-1.66,7.73-1.66,14q0,9.75,1.52,14c1,2.82,2.66,4.24,4.92,4.24a4.81,4.81,0,0,0,4.13-2.25,15.11,15.11,0,0,0,2.1-6.81Z" transform="translate(-181.59 -0.35)"/><path class="cls-1" d="M355.72,174.62h-1.41v4h-.87v-4H352v-.71h3.69Zm4.79.54-1.34,3.44h-.5l-1.34-3.43v3.43h-.86v-4.69h1.08l1.37,3.49,1.38-3.49h1.07v4.69h-.86Z" transform="translate(-181.59 -0.35)"/></svg>