<?xml version="1.0" encoding="utf-8"?>
<!-- Generator: Adobe Illustrator 25.2.0, SVG Export Plug-In . SVG Version: 6.00 Build 0)  -->
<svg version="1.1" id="Layer_1" xmlns="http://www.w3.org/2000/svg" xmlns:xlink="http://www.w3.org/1999/xlink" x="0px" y="0px"
	 viewBox="0 0 280.8 268.3" style="enable-background:new 0 0 280.8 268.3;" xml:space="preserve">
<path d="M112.92,67.05L89.48,48.29H23.09l61.43,49.23l-61.34,49.3h66.39l23.28-18.6c-6.81-9.03-10.5-19.6-10.59-30.39
	C102.25,86.8,106.03,76.16,112.92,67.05z"/>
<path d="M172.67,146.82h66.39l-56.39-45.25v21.44L150.9,97.59l31.76-25.49v21.44l56.39-45.25h-66.39l-41.6,33.3l-11.6-9.34
	c-8.32,16.08-8.4,34.45-0.17,50.53l11.85-9.42L172.67,146.82z"/>
<path d="M182.67,164.05v-0.54c-28.91-3.83-52.61-19.6-63.36-40.65l-6.55,5.28C127.04,147.59,153.93,161.44,182.67,164.05z"/>
<path d="M182.67,31.45c-28.66,2.6-55.46,16.38-69.75,35.6l6.55,5.21c10.76-20.9,34.54-36.52,63.19-40.35"/>
<path d="M230.32,231.34v-53.9h9.08v53.9H230.32z M187.88,231.34v-53.9H212v6.35h-15.04v15.62H212v6.35h-15.04v25.49h-9.08V231.34z
	 M150.82,214.19v-5.97h17.48v5.97H150.82z M114.6,231.42v-53.97h9.08v47.08h15.13v6.89H114.6z M71.32,231.42v-53.97h24.12v6.35H80.4
	v15.62h15.04v6.35H80.4v18.99h15.04v6.58L71.32,231.42z M57.63,217.56c-0.92,4.82-2.86,8.5-5.8,11.02
	c-3.11,2.53-7.31,3.9-11.51,3.75c-6.13,0-10.59-2.22-13.53-6.74c-2.94-4.52-4.37-11.64-4.37-21.28c0-9.42,1.6-16.38,4.71-20.9
	s7.98-6.81,14.45-6.81c3.53-0.08,6.97,1,9.66,3.06c2.94,2.45,4.96,5.59,5.8,9.03l-9.08,2.22c-0.25-2.14-1.09-4.13-2.52-5.89
	c-1.18-1.3-2.94-2.07-4.79-1.99c-2.94,0-5.13,1.76-6.64,5.28c-1.51,3.52-2.18,8.88-2.18,16.15c0,7.5,0.67,12.86,2.02,16.15
	c1.34,3.22,3.53,4.9,6.47,4.9c2.18,0,4.29-1,5.38-2.6c1.6-2.37,2.52-5.05,2.77-7.81L57.63,217.56z"/>
<path d="M250.99,232.26h-1.85v4.59h-1.18v-4.59h-1.85v-0.84h4.87L250.99,232.26z M257.21,232.87l-1.76,3.98h-0.67l-1.76-3.98v3.98
	h-1.09v-5.44h1.43l1.76,4.06l1.85-4.06h1.43v5.44h-1.09L257.21,232.87z"/>
</svg>
