<?xml version="1.0" encoding="utf-8"?>
<!-- Generator: Adobe Illustrator 25.2.0, SVG Export Plug-In . SVG Version: 6.00 Build 0)  -->
<svg version="1.1" id="Layer_1" xmlns="http://www.w3.org/2000/svg" xmlns:xlink="http://www.w3.org/1999/xlink" x="0px" y="0px"
	 viewBox="0 0 280.8 268.3" style="enable-background:new 0 0 280.8 268.3;" xml:space="preserve">
<style type="text/css">

</style>
<path class="st0" d="M107.7,46.5L79.8,22h-79l73.1,64.3L0.9,150.7h79l27.7-24.3c-8.1-11.8-12.5-25.6-12.6-39.7
	C95,72.3,99.5,58.4,107.7,46.5z"/>
<path class="st0" d="M178.8,150.7h79l-67.1-59.1v28l-37.8-33.2l37.8-33.3v28L257.8,22h-79l-49.5,43.5l-13.8-12.2
	c-9.9,21-10,45-0.2,66l14.1-12.3L178.8,150.7z"/>
<path class="st0" d="M190.7,173.2v-0.7c-34.4-5-62.6-25.6-75.4-53.1l-7.8,6.9C124.5,151.7,156.5,169.8,190.7,173.2z"/>
<path class="st0" d="M190.7,0c-34.1,3.4-66,21.4-83,46.5l7.8,6.8C128.3,26,156.6,5.6,190.7,0.6"/>
<path class="st0" d="M247.4,261.1v-70.4h10.8v70.4H247.4z M196.9,261.1v-70.4h28.7v8.3h-17.9v20.4h17.9v8.3h-17.9v33.3H196.9z
	 M152.8,238.7v-7.8h20.8v7.8H152.8z M109.7,261.2v-70.5h10.8v61.5h18v9H109.7z M58.2,261.2v-70.5h28.7v8.3H69v20.4h17.9v8.3H69v24.8
	h17.9v8.6L58.2,261.2z M41.9,243.1c-1.1,6.3-3.4,11.1-6.9,14.4c-3.7,3.3-8.7,5.1-13.7,4.9c-7.3,0-12.6-2.9-16.1-8.8
	C1.7,247.7,0,238.4,0,225.8c0-12.3,1.9-21.4,5.6-27.3c3.7-5.9,9.5-8.9,17.2-8.9c4.2-0.1,8.3,1.3,11.5,4c3.5,3.2,5.9,7.3,6.9,11.8
	l-10.8,2.9c-0.3-2.8-1.3-5.4-3-7.7c-1.4-1.7-3.5-2.7-5.7-2.6c-3.5,0-6.1,2.3-7.9,6.9s-2.6,11.6-2.6,21.1c0,9.8,0.8,16.8,2.4,21.1
	c1.6,4.2,4.2,6.4,7.7,6.4c2.6,0,5.1-1.3,6.4-3.4c1.9-3.1,3-6.6,3.3-10.2L41.9,243.1z"/>
<path class="st0" d="M272,262.3h-2.2v6h-1.4v-6h-2.2v-1.1h5.8L272,262.3z M279.4,263.1l-2.1,5.2h-0.8l-2.1-5.2v5.2h-1.3v-7.1h1.7
	l2.1,5.3l2.2-5.3h1.7v7.1h-1.3L279.4,263.1z"/>
</svg>
