<?xml version="1.0" encoding="utf-8"?>
<!-- Generator: Adobe Illustrator 25.2.0, SVG Export Plug-In . SVG Version: 6.00 Build 0)  -->
<svg version="1.1" id="Layer_1" xmlns="http://www.w3.org/2000/svg" xmlns:xlink="http://www.w3.org/1999/xlink" x="0px" y="0px"
	 viewBox="0 0 394.6 176.9" style="enable-background:new 0 0 394.6 176.9;" xml:space="preserve">
<style type="text/css">
	.st0{fill:#1D1D1B;}
</style>
<path class="st0" d="M169.54,140.07l-0.07,9.42l0.72,0.14c2.22,0.43,4.52,0.72,6.74,0.86c2.01,0.14,3.94,0.22,5.95,0.14
	c1.86-0.14,3.73-0.5,5.59-1.01c2.08-0.58,4.02-1.58,5.81-3.02c1.43-1.15,2.58-2.8,3.37-4.67c1.22-2.95,1.22-6.47-0.07-9.42
	c-0.72-1.65-1.72-3.02-3.01-4.1c-1.36-1.15-2.87-2.01-4.45-2.52l-7.32-2.66c-0.79-0.29-1.51-0.93-2.01-1.87
	c-0.36-0.65-0.29-1.51,0.07-2.16c0.14-0.22,0.29-0.43,0.5-0.65c0.22-0.22,0.5-0.43,0.72-0.58l0.36-0.22
	c0.86-0.36,1.72-0.65,2.58-0.72c1.58-0.22,3.08-0.22,4.66,0.07c1.79,0.22,3.59,0.5,5.38,0.93l0.36,0.07v-8.7l-0.72-0.14
	c-1.79-0.43-3.66-0.72-5.52-0.93c-2.37-0.29-4.81-0.29-7.24,0c-2.94,0.22-5.81,1.37-8.32,3.24c-1.51,1.15-2.8,2.8-3.59,4.75
	c-1.08,2.8-1.08,6.04,0,8.84c0.57,1.51,1.43,2.8,2.58,3.74c1,0.93,2.15,1.73,3.3,2.3c1.65,0.86,3.3,1.51,5.09,1.94
	c0.57,0.14,1.15,0.36,1.72,0.5l0.86,0.29l0.22,0.07c0.79,0.29,1.58,0.79,2.3,1.37c0.43,0.36,0.79,0.93,1,1.51
	c0.14,0.5,0.14,1.08,0,1.58c-0.36,0.93-0.93,1.58-1.72,1.94c-0.93,0.43-1.86,0.72-2.8,0.86c-1.43,0.22-2.87,0.29-4.3,0.22
	c-1.86-0.14-3.8-0.36-5.59-0.72c-1-0.22-1.94-0.43-2.94-0.65L169.54,140.07"/>
<path class="st0" d="M129.81,149.13V138.2l-0.22,0.07c-2.58,1.22-5.31,1.87-8.1,2.01c-2.87,0.22-5.67-0.58-8.18-2.37
	c-1.58-1.15-2.8-2.8-3.59-4.89c-0.72-2.09-0.79-4.39-0.22-6.54c0.57-2.37,1.86-4.39,3.59-5.61c1.72-1.37,3.66-2.16,5.67-2.37
	c3.66-0.43,7.32,0.29,10.76,1.94l0.22,0.14v-10.93l-0.5-0.14c-3.37-1.01-6.81-1.44-10.26-1.29c-3.08,0.07-6.24,0.72-9.18,2.01
	c-2.8,1.22-5.31,3.09-7.46,5.61c-6.31,7.77-6.46,18.62-0.43,26.6c3.3,3.88,7.39,6.47,11.91,7.41c5.02,1.15,10.11,1.01,15.06-0.5
	L129.81,149.13"/>
<polyline class="st0" points="155.13,149.85 155.13,108.87 144.51,108.87 144.51,149.85 155.13,149.85 "/>
<path class="st0" d="M75.8,75.93c0.14,1.37,0.79,2.59,1.72,3.38c2.15,1.8,5.02,1.8,7.17,0c0.93-0.79,1.58-2.01,1.72-3.38V64.57
	c-0.07-1.37-0.72-2.66-1.58-3.45c-2.22-1.87-5.09-1.87-7.32,0c-0.93,0.79-1.51,2.09-1.58,3.45L75.8,75.93"/>
<path class="st0" d="M104.92,75.93c0.14,1.37,0.79,2.59,1.72,3.38c2.15,1.8,5.02,1.8,7.17,0c0.93-0.79,1.58-2.01,1.72-3.38V50.48
	c-0.07-1.37-0.72-2.66-1.58-3.45c-2.22-1.94-5.09-1.94-7.32,0c-0.93,0.79-1.51,2.09-1.58,3.45L104.92,75.93"/>
<path class="st0" d="M133.9,86.22c0.14,1.37,0.79,2.59,1.72,3.38c2.15,1.8,5.02,1.8,7.17,0c0.93-0.79,1.58-2.01,1.72-3.38V31.14
	c-0.07-1.37-0.72-2.66-1.58-3.45c-2.22-1.94-5.09-1.94-7.32,0c-0.93,0.79-1.51,2.09-1.58,3.45L133.9,86.22"/>
<path class="st0" d="M163.02,75.93c0.14,1.37,0.79,2.59,1.72,3.38c2.15,1.8,5.02,1.8,7.17,0c0.93-0.79,1.58-2.01,1.72-3.38V50.55
	c-0.07-1.37-0.72-2.66-1.58-3.45c-2.22-1.94-5.09-1.94-7.32,0c-0.93,0.79-1.51,2.09-1.58,3.45L163.02,75.93"/>
<path class="st0" d="M191.99,75.93c0.14,1.37,0.79,2.59,1.72,3.38c2.15,1.8,5.02,1.8,7.17,0c0.93-0.79,1.58-2.01,1.72-3.38V64.64
	c-0.07-1.37-0.72-2.66-1.58-3.45c-2.22-1.94-5.09-1.94-7.32,0c-0.93,0.79-1.51,2.09-1.58,3.45L191.99,75.93"/>
<path class="st0" d="M221.11,75.93c0.14,1.37,0.79,2.59,1.72,3.38c2.15,1.8,5.02,1.8,7.17,0c0.93-0.79,1.58-2.01,1.72-3.38V50.55
	c-0.07-1.37-0.65-2.66-1.58-3.45c-2.22-1.87-5.09-1.87-7.32,0c-0.93,0.79-1.51,2.09-1.58,3.45L221.11,75.93"/>
<path class="st0" d="M250.09,86.22c0.14,1.37,0.79,2.59,1.72,3.38c2.15,1.8,5.02,1.8,7.17,0c0.93-0.79,1.58-2.01,1.72-3.38V31.14
	c-0.07-1.37-0.72-2.66-1.58-3.45c-2.22-1.94-5.09-1.94-7.32,0c-0.93,0.79-1.51,2.09-1.58,3.45L250.09,86.22"/>
<path class="st0" d="M279.14,75.93c0.14,1.37,0.79,2.59,1.72,3.38c2.15,1.8,5.02,1.8,7.17,0c0.93-0.79,1.58-2.01,1.72-3.38V50.55
	c-0.07-1.37-0.72-2.66-1.58-3.45c-2.22-1.94-5.09-1.94-7.32,0c-0.93,0.79-1.51,2.09-1.58,3.45L279.14,75.93"/>
<path class="st0" d="M308.18,75.93c0.14,1.37,0.79,2.59,1.72,3.38c2.15,1.8,5.02,1.8,7.17,0c0.93-0.79,1.58-2.01,1.72-3.38V64.64
	c-0.07-1.37-0.65-2.66-1.58-3.45c-2.22-1.87-5.09-1.87-7.32,0c-0.93,0.79-1.51,2.09-1.58,3.45L308.18,75.93"/>
<path class="st0" d="M240.98,149.13V138.2l-0.22,0.07c-2.58,1.22-5.31,1.87-8.1,2.01c-2.87,0.22-5.67-0.58-8.18-2.3
	c-1.58-1.15-2.8-2.88-3.59-4.89c-0.72-2.09-0.79-4.39-0.22-6.54c0.65-2.37,1.86-4.31,3.59-5.61c1.72-1.37,3.66-2.16,5.67-2.37
	c3.66-0.43,7.32,0.29,10.76,1.94l0.22,0.14v-11l-0.5-0.14c-3.37-1.01-6.81-1.44-10.26-1.29c-3.08,0.07-6.17,0.72-9.11,2.01
	c-2.8,1.22-5.31,3.09-7.46,5.61c-6.31,7.77-6.46,18.69-0.43,26.6c3.3,3.88,7.39,6.47,11.91,7.41c5.02,1.15,10.11,1.01,15.06-0.5
	L240.98,149.13"/>
<path class="st0" d="M252.24,129.36c0.07,6.47,3.23,12.58,8.46,16.61c5.24,4.03,12.05,5.54,18.58,4.17
	c8.82-1.65,15.71-8.41,17.29-16.97c1.58-8.63-2.51-17.26-10.18-21.71c-7.1-4.1-15.21-4.31-22.45-0.65
	C256.83,114.55,252.38,121.66,252.24,129.36 M267.66,121.02c2.44-1.8,5.31-2.66,8.18-2.3c2.8,0.22,5.38,1.65,7.46,3.95
	c1.79,2.01,2.65,4.96,2.37,7.91c-0.36,2.8-1.79,5.46-4.09,7.19c-2.44,1.8-5.31,2.59-8.18,2.3c-2.8-0.22-5.38-1.65-7.46-3.95
	c-1.79-2.01-2.65-4.96-2.37-7.91C263.86,125.4,265.37,122.81,267.66,121.02"/>
</svg>
