<?xml version="1.0" encoding="utf-8"?>
<!-- Generator: Adobe Illustrator 25.2.0, SVG Export Plug-In . SVG Version: 6.00 Build 0)  -->
<svg version="1.1" id="Layer_1" xmlns="http://www.w3.org/2000/svg" xmlns:xlink="http://www.w3.org/1999/xlink" x="0px" y="0px"
	 viewBox="0 0 394.6 176.9" style="enable-background:new 0 0 394.6 176.9;" xml:space="preserve">
<style type="text/css">
	.st0{fill:#1D1D1B;}
</style>
<path class="st0" d="M160.77,160.08l-0.09,13.07l0.94,0.2c2.92,0.6,5.93,1,8.85,1.2c2.63,0.2,5.18,0.3,7.81,0.2
	c2.45-0.2,4.89-0.7,7.34-1.4c2.73-0.8,5.27-2.19,7.62-4.19c1.88-1.6,3.39-3.89,4.42-6.49c1.6-4.09,1.6-8.98-0.09-13.07
	c-0.94-2.29-2.26-4.19-3.95-5.69c-1.79-1.6-3.76-2.79-5.83-3.49l-9.6-3.69c-1.04-0.4-1.98-1.3-2.63-2.59
	c-0.47-0.9-0.38-2.1,0.09-2.99c0.19-0.3,0.38-0.6,0.66-0.9c0.28-0.3,0.66-0.6,0.94-0.8l0.47-0.3c1.13-0.5,2.26-0.9,3.39-1
	c2.07-0.3,4.05-0.3,6.12,0.1c2.35,0.3,4.7,0.7,7.06,1.3l0.47,0.1v-12.07l-0.94-0.2c-2.35-0.6-4.8-1-7.25-1.3
	c-3.11-0.4-6.3-0.4-9.5,0c-3.86,0.3-7.62,1.9-10.92,4.49c-1.98,1.6-3.67,3.89-4.7,6.58c-1.41,3.89-1.41,8.38,0,12.27
	c0.75,2.1,1.88,3.89,3.39,5.19c1.32,1.3,2.82,2.39,4.33,3.19c2.16,1.2,4.33,2.1,6.68,2.69c0.75,0.2,1.51,0.5,2.26,0.7l1.13,0.4
	l0.28,0.1c1.04,0.4,2.07,1.1,3.01,1.9c0.56,0.5,1.04,1.3,1.32,2.1c0.19,0.7,0.19,1.5,0,2.19c-0.47,1.3-1.22,2.19-2.26,2.69
	c-1.22,0.6-2.45,1-3.67,1.2c-1.88,0.3-3.76,0.4-5.65,0.3c-2.45-0.2-4.99-0.5-7.34-1c-1.32-0.3-2.54-0.6-3.86-0.9L160.77,160.08"/>
<path class="st0" d="M108.64,172.65v-15.17l-0.28,0.1c-3.39,1.7-6.96,2.59-10.63,2.79c-3.76,0.3-7.43-0.8-10.73-3.29
	c-2.07-1.6-3.67-3.89-4.7-6.78c-0.94-2.89-1.04-6.09-0.28-9.08c0.75-3.29,2.45-6.09,4.7-7.78c2.26-1.9,4.8-2.99,7.43-3.29
	c4.8-0.6,9.6,0.4,14.11,2.69l0.28,0.2v-15.17l-0.66-0.2c-4.42-1.4-8.94-2-13.46-1.8c-4.05,0.1-8.19,1-12.04,2.79
	c-3.67,1.7-6.96,4.29-9.79,7.78c-8.28,10.78-8.47,25.84-0.56,36.92c4.33,5.39,9.69,8.98,15.62,10.28c6.59,1.6,13.27,1.4,19.76-0.7
	L108.64,172.65"/>
<polyline class="st0" points="141.86,173.65 141.86,116.78 127.93,116.78 127.93,173.65 141.86,173.65 "/>
<path class="st0" d="M37.78,71.08c0.19,1.9,1.04,3.59,2.26,4.69c2.82,2.49,6.59,2.49,9.41,0c1.22-1.1,2.07-2.79,2.26-4.69V55.32
	c-0.09-1.9-0.94-3.69-2.07-4.79c-2.92-2.59-6.68-2.59-9.6,0c-1.22,1.1-1.98,2.89-2.07,4.79L37.78,71.08"/>
<path class="st0" d="M75.99,71.08c0.19,1.9,1.04,3.59,2.26,4.69c2.82,2.49,6.59,2.49,9.41,0c1.22-1.1,2.07-2.79,2.26-4.69V35.76
	c-0.09-1.9-0.94-3.69-2.07-4.79c-2.92-2.69-6.68-2.69-9.6,0c-1.22,1.1-1.98,2.89-2.07,4.79L75.99,71.08"/>
<path class="st0" d="M114,85.35c0.19,1.9,1.04,3.59,2.26,4.69c2.82,2.49,6.59,2.49,9.41,0c1.22-1.1,2.07-2.79,2.26-4.69V8.92
	c-0.09-1.9-0.94-3.69-2.07-4.79c-2.92-2.69-6.68-2.69-9.6,0c-1.22,1.1-1.98,2.89-2.07,4.79L114,85.35"/>
<path class="st0" d="M152.21,71.08c0.19,1.9,1.04,3.59,2.26,4.69c2.82,2.49,6.59,2.49,9.41,0c1.22-1.1,2.07-2.79,2.26-4.69V35.86
	c-0.09-1.9-0.94-3.69-2.07-4.79c-2.92-2.69-6.68-2.69-9.6,0c-1.22,1.1-1.98,2.89-2.07,4.79L152.21,71.08"/>
<path class="st0" d="M190.22,71.08c0.19,1.9,1.04,3.59,2.26,4.69c2.82,2.49,6.59,2.49,9.41,0c1.22-1.1,2.07-2.79,2.26-4.69V55.42
	c-0.09-1.9-0.94-3.69-2.07-4.79c-2.92-2.69-6.68-2.69-9.6,0c-1.22,1.1-1.98,2.89-2.07,4.79L190.22,71.08"/>
<path class="st0" d="M228.43,71.08c0.19,1.9,1.04,3.59,2.26,4.69c2.82,2.49,6.59,2.49,9.41,0c1.22-1.1,2.07-2.79,2.26-4.69V35.86
	c-0.09-1.9-0.85-3.69-2.07-4.79c-2.92-2.59-6.68-2.59-9.6,0c-1.22,1.1-1.98,2.89-2.07,4.79L228.43,71.08"/>
<path class="st0" d="M266.44,85.35c0.19,1.9,1.04,3.59,2.26,4.69c2.82,2.49,6.59,2.49,9.41,0c1.22-1.1,2.07-2.79,2.26-4.69V8.92
	c-0.09-1.9-0.94-3.69-2.07-4.79c-2.92-2.69-6.68-2.69-9.6,0c-1.22,1.1-1.98,2.89-2.07,4.79L266.44,85.35"/>
<path class="st0" d="M304.55,71.08c0.19,1.9,1.04,3.59,2.26,4.69c2.82,2.49,6.59,2.49,9.41,0c1.22-1.1,2.07-2.79,2.26-4.69V35.86
	c-0.09-1.9-0.94-3.69-2.07-4.79c-2.92-2.69-6.68-2.69-9.6,0c-1.22,1.1-1.98,2.89-2.07,4.79L304.55,71.08"/>
<path class="st0" d="M342.66,71.08c0.19,1.9,1.04,3.59,2.26,4.69c2.82,2.49,6.59,2.49,9.41,0c1.22-1.1,2.07-2.79,2.26-4.69V55.42
	c-0.09-1.9-0.85-3.69-2.07-4.79c-2.92-2.59-6.68-2.59-9.6,0c-1.22,1.1-1.98,2.89-2.07,4.79L342.66,71.08"/>
<path class="st0" d="M254.49,172.65v-15.17l-0.28,0.1c-3.39,1.7-6.96,2.59-10.63,2.79c-3.76,0.3-7.43-0.8-10.73-3.19
	c-2.07-1.6-3.67-3.99-4.7-6.78c-0.94-2.89-1.04-6.09-0.28-9.08c0.85-3.29,2.45-5.99,4.7-7.78c2.26-1.9,4.8-2.99,7.43-3.29
	c4.8-0.6,9.6,0.4,14.11,2.69l0.28,0.2v-15.27l-0.66-0.2c-4.42-1.4-8.94-2-13.46-1.8c-4.05,0.1-8.09,1-11.95,2.79
	c-3.67,1.7-6.96,4.29-9.79,7.78c-8.28,10.78-8.47,25.94-0.56,36.92c4.33,5.39,9.69,8.98,15.62,10.28c6.59,1.6,13.27,1.4,19.76-0.7
	L254.49,172.65"/>
<path class="st0" d="M269.26,145.21c0.09,8.98,4.23,17.46,11.1,23.05c6.87,5.59,15.81,7.68,24.37,5.79
	c11.57-2.29,20.61-11.67,22.68-23.55c2.07-11.97-3.29-23.95-13.36-30.13c-9.32-5.69-19.95-5.99-29.45-0.9
	C275.29,124.66,269.45,134.54,269.26,145.21 M289.49,133.64c3.2-2.49,6.96-3.69,10.73-3.19c3.67,0.3,7.06,2.29,9.79,5.49
	c2.35,2.79,3.48,6.88,3.11,10.97c-0.47,3.89-2.35,7.58-5.36,9.98c-3.2,2.49-6.96,3.59-10.73,3.19c-3.67-0.3-7.06-2.29-9.79-5.49
	c-2.35-2.79-3.48-6.88-3.11-10.97C284.51,139.73,286.48,136.13,289.49,133.64"/>
</svg>
