<svg id="Layer_1" data-name="Layer 1" xmlns="http://www.w3.org/2000/svg" viewBox="0 0 488.08 154.44"><defs><style>.cls-1{fill:#fff;}</style></defs><rect class="cls-1" x="50.41" y="101.76" width="7.82" height="50.48"/><path class="cls-1" d="M140.73,125.61a10,10,0,0,0-6.58-2.71c-5.05,0-8.56,5.74-8.56,13.48,0,7.5,3.36,13.47,8.56,13.47a10.13,10.13,0,0,0,6.58-2.68v13.56a16.69,16.69,0,0,1-7.13,1.79c-8.79,0-16.5-9.88-16.5-26.14,0-15.09,7-26.14,16.5-26.14a15.72,15.72,0,0,1,7.13,1.81Z" transform="translate(-19.46 -9.38)"/><path class="cls-1" d="M59.12,125.61a10,10,0,0,0-6.57-2.71c-5.06,0-8.57,5.74-8.57,13.48,0,7.5,3.36,13.47,8.57,13.47a10.15,10.15,0,0,0,6.57-2.68v13.56A16.61,16.61,0,0,1,52,162.52c-8.78,0-16.49-9.88-16.49-26.14,0-15.09,7-26.14,16.49-26.14a15.78,15.78,0,0,1,7.14,1.81Z" transform="translate(-19.46 -9.38)"/><path class="cls-1" d="M181.7,136.38c0,14.44-6.84,26.14-16.36,26.14S149,150.82,149,136.38s6.83-26.14,16.37-26.14S181.7,122,181.7,136.38ZM165.34,123.1c-4.65,0-8.1,5.94-8.1,13.28s3.45,13.28,8.1,13.28,8.07-5.94,8.07-13.28S170,123.1,165.34,123.1Z" transform="translate(-19.46 -9.38)"/><path class="cls-1" d="M107.34,122.61a17.94,17.94,0,0,0-6.11-1.53c-3.14,0-4.84,1.7-4.84,4.13,0,3.08,2.3,4.14,3.58,4.82l2.16,1.11c5.08,2.63,7.4,8.29,7.4,14.44,0,12.68-6.85,16.94-12.84,16.94a29.31,29.31,0,0,1-8.44-1.38V149.53a19.46,19.46,0,0,0,7.39,1.87c3.88,0,5.68-1.84,5.68-4.71,0-2.57-1.55-4-3.5-5l-1.67-.89c-4.36-2.23-8-6.4-8-14.75,0-9.45,4.35-15.79,11.56-15.79a22,22,0,0,1,7.62,1.6Z" transform="translate(-19.46 -9.38)"/><path class="cls-1" d="M48.52,39.48c0-3.47-1.75-6.3-3.88-6.3s-3.88,2.83-3.88,6.3V70.13c0,3.5,1.74,6.33,3.88,6.33s3.88-2.83,3.88-6.33Z" transform="translate(-19.46 -9.38)"/><path class="cls-1" d="M69.85,15.69c0-3.48-1.75-6.31-3.88-6.31s-3.9,2.83-3.9,6.31v67c0,3.5,1.75,6.31,3.9,6.31s3.88-2.81,3.88-6.31Z" transform="translate(-19.46 -9.38)"/><path class="cls-1" d="M91.16,39.48c0-3.47-1.73-6.3-3.88-6.3S83.4,36,83.4,39.48V70.13c0,3.5,1.75,6.33,3.88,6.33s3.88-2.83,3.88-6.33Z" transform="translate(-19.46 -9.38)"/><path class="cls-1" d="M112.47,56.87c0-3.47-1.75-6.29-3.86-6.29s-3.88,2.82-3.88,6.29V70.13c0,3.5,1.73,6.33,3.88,6.33s3.86-2.83,3.86-6.33Z" transform="translate(-19.46 -9.38)"/><path class="cls-1" d="M133.8,39.48c0-3.47-1.73-6.3-3.88-6.3s-3.86,2.83-3.86,6.3V70.13c0,3.5,1.73,6.33,3.86,6.33s3.88-2.83,3.88-6.33Z" transform="translate(-19.46 -9.38)"/><path class="cls-1" d="M155.13,15.69c0-3.48-1.73-6.31-3.87-6.31s-3.87,2.83-3.87,6.31v67c0,3.5,1.73,6.31,3.87,6.31s3.87-2.81,3.87-6.31Z" transform="translate(-19.46 -9.38)"/><path class="cls-1" d="M176.46,39.48c0-3.47-1.73-6.3-3.92-6.3s-3.85,2.83-3.85,6.3V70.13c0,3.5,1.73,6.33,3.85,6.33s3.92-2.83,3.92-6.33Z" transform="translate(-19.46 -9.38)"/><path class="cls-1" d="M197.75,56.87c0-3.47-1.73-6.29-3.86-6.29S190,53.4,190,56.87V70.13c0,3.5,1.73,6.33,3.88,6.33s3.86-2.83,3.86-6.33Z" transform="translate(-19.46 -9.38)"/><path class="cls-1" d="M250.13,53.28h7.94l24.44,99.42,23-99.42h7.58V161.76H308V66.15h-.17l-22.58,95.61H280L256.16,66.15H256v95.61h-5.86Z" transform="translate(-19.46 -9.38)"/><path class="cls-1" d="M366.47,140.89c-1.32,8.32-5.88,16.34-9.18,18.94a17.16,17.16,0,0,1-10.92,3.93,15.12,15.12,0,0,1-9.24-3.07A25.67,25.67,0,0,1,330,152.1,48.53,48.53,0,0,1,325.44,139a82.44,82.44,0,0,1-1.59-16.77,76.67,76.67,0,0,1,1.64-16.34,49.58,49.58,0,0,1,4.62-13,27.14,27.14,0,0,1,7-8.69A14.23,14.23,0,0,1,346.08,81a13.91,13.91,0,0,1,9,3.15,25.35,25.35,0,0,1,6.54,8.35,51,51,0,0,1,4,11.83c2.08,9.15,1.66,20.6,1.66,20.6H328.72a75.22,75.22,0,0,0,.71,9.38,40.45,40.45,0,0,0,2.31,9.67,28.57,28.57,0,0,0,5.15,8.71,14.66,14.66,0,0,0,9.57,4.25,11.76,11.76,0,0,0,8.57-3.74c3.6-3.62,4.87-8.29,6.35-12.61ZM362.2,117.3c0-3.79-1.11-29.1-16.23-29.22a11.56,11.56,0,0,0-8.7,3.67,29.1,29.1,0,0,0-4.91,8.45,49.32,49.32,0,0,0-2.57,9.27,62,62,0,0,0-.77,7.83Z" transform="translate(-19.46 -9.38)"/><path class="cls-1" d="M379.05,94c0-2.14-.08-4.14-.14-6s-.09-3.29-.09-4.3h4.51c.06,2.93.63,12.89.76,13.68,1.41-4.62,3.11-9.49,5.41-12.22,6.53-7.74,12.1-2.62,12.65-2.4l.17,7.23a4.07,4.07,0,0,0-2.12-.67c-2.39,0-7.73-1.84-12.6,8.41-1.16,2.45-1.66,4.06-2.59,10.71a76.35,76.35,0,0,0-.83,10.72v42.57h-5.53S379.41,115.55,379.05,94Z" transform="translate(-19.46 -9.38)"/><path class="cls-1" d="M445.09,129.41c0,3.78,0,7.17.05,10.17s0,19.95.15,22.18H441a123.34,123.34,0,0,1-.59-12.56l-.36.05a26.58,26.58,0,0,1-6.57,11c-2.49,2.34-5.65,3.14-9.46,3.51a14.37,14.37,0,0,1-11.63-4.3,22,22,0,0,1-3.64-7.09,34.23,34.23,0,0,1-1.4-10.5q0-8.84,2.62-14A20.25,20.25,0,0,1,417.4,120c5-2.9,22.91-6.77,22.91-6.77s2.25-25.34-12.94-25.34c-5.18,0-12.35,2.9-13.18,15.67l-5.58.19c1.43-21.66,16.09-22.83,19-22.83,5.44,0,9.4,3,12.64,7.36s4.85,12.51,4.85,22.29Zm-25.8-2.64c-2,1.33-6.76,4.83-6.9,15a19,19,0,0,0,1,6.53A14.29,14.29,0,0,0,416,153a11.36,11.36,0,0,0,3.51,2.79,9,9,0,0,0,3.94.95,13.42,13.42,0,0,0,8.29-2.44,17.38,17.38,0,0,0,5.19-6.35,29.5,29.5,0,0,0,2.68-8.87,68.2,68.2,0,0,0,.74-10v-9.21S425.33,122.8,419.29,126.77Z" transform="translate(-19.46 -9.38)"/><path class="cls-1" d="M457.88,53.27h4.73v62.47l23.28-32.3,6.69,0-24.37,34.19,27.42,44.08h-6.77l-26.25-40.68v40.68h-4.73Z" transform="translate(-19.46 -9.38)"/><path class="cls-1" d="M502.15,83.63h5.39v78.13h-5.39Z" transform="translate(-19.46 -9.38)"/><path class="cls-1" d="M502.15,53.27h5.39V64.46h-5.39Z" transform="translate(-19.46 -9.38)"/><path class="cls-1" d="M27.2,56.87c0-3.47-1.73-6.29-3.86-6.29s-3.88,2.82-3.88,6.29V70.13c0,3.5,1.73,6.33,3.88,6.33s3.86-2.83,3.86-6.33Z" transform="translate(-19.46 -9.38)"/></svg>