<svg id="Layer_1" data-name="Layer 1" xmlns="http://www.w3.org/2000/svg" viewBox="0 0 432.13 179"><defs><style>.cls-1{fill:#fff;}</style></defs><path class="cls-1" d="M214.26,163.8l-.07,13.53,1.26.17c4,.58,8,1,12,1.21a90.91,90.91,0,0,0,10.57.16,54.58,54.58,0,0,0,9.92-1.47,30.47,30.47,0,0,0,10.3-4.31,16.85,16.85,0,0,0,6-6.74,14.88,14.88,0,0,0-.12-13.59,16,16,0,0,0-5.37-5.85,24.2,24.2,0,0,0-7.89-3.6l-13-3.79a6.55,6.55,0,0,1-3.55-2.66,2.8,2.8,0,0,1,.15-3.09,4,4,0,0,1,.87-.92,6.55,6.55,0,0,1,1.32-.83l.59-.26a17.13,17.13,0,0,1,4.64-1.06,34.32,34.32,0,0,1,8.29.07,90.32,90.32,0,0,1,9.61,1.35l.67.12V119.75l-1.24-.21c-3.22-.6-6.49-1.06-9.78-1.37a64.16,64.16,0,0,0-12.85,0,32.39,32.39,0,0,0-14.8,4.67,16.22,16.22,0,0,0-6.32,6.85,15,15,0,0,0,0,12.72,14.54,14.54,0,0,0,4.55,5.39,27.22,27.22,0,0,0,5.88,3.35,47.43,47.43,0,0,0,9,2.75c1,.24,2,.5,3.06.77l1.54.44.44.14a12.52,12.52,0,0,1,4.07,2,5.8,5.8,0,0,1,1.82,2.15,3.67,3.67,0,0,1,0,2.27,5.26,5.26,0,0,1-3,2.8,17.51,17.51,0,0,1-5,1.22,45.83,45.83,0,0,1-7.68.31c-3.37-.2-6.72-.55-10-1.06-1.73-.27-3.46-.59-5.17-.94l-.64-.13" transform="translate(-47.44 0)"/><path class="cls-1" d="M143.56,176.82V161.11l-.39.13a45.72,45.72,0,0,1-14.42,2.88,25.51,25.51,0,0,1-14.52-3.37,15.16,15.16,0,0,1-6.33-7.05,13.48,13.48,0,0,1-.42-9.42,14.48,14.48,0,0,1,6.44-8.07A22.13,22.13,0,0,1,124,132.79a41.41,41.41,0,0,1,19.1,2.81l.43.18V120l-.91-.19a64.17,64.17,0,0,0-18.21-1.87,51.74,51.74,0,0,0-16.27,2.92,37.42,37.42,0,0,0-13.31,8.08c-11.24,11.16-11.54,26.85-.73,38.27a40.45,40.45,0,0,0,21.17,10.7,62.85,62.85,0,0,0,26.79-.74l1.47-.32" transform="translate(-47.44 0)"/><polyline class="cls-1" points="141.14 177.86 141.14 118.91 122.21 118.91 122.21 177.86 141.14 177.86"/><path class="cls-1" d="M47.44,71.54a6.86,6.86,0,0,0,3,4.85,11.33,11.33,0,0,0,12.77,0,6.87,6.87,0,0,0,3-4.85V55.2a6.8,6.8,0,0,0-2.87-5,11.31,11.31,0,0,0-13,0,6.76,6.76,0,0,0-2.86,5V71.54" transform="translate(-47.44 0)"/><path class="cls-1" d="M99.25,71.54a6.89,6.89,0,0,0,3,4.85,11.33,11.33,0,0,0,12.77,0,6.87,6.87,0,0,0,3-4.85V34.91a6.79,6.79,0,0,0-2.87-5,11.3,11.3,0,0,0-13,0,6.79,6.79,0,0,0-2.87,5V71.54" transform="translate(-47.44 0)"/><path class="cls-1" d="M150.79,86.29a6.86,6.86,0,0,0,3,4.85,11.33,11.33,0,0,0,12.77,0,6.87,6.87,0,0,0,3-4.85V7.07a6.82,6.82,0,0,0-2.87-5,11.3,11.3,0,0,0-13,0,6.76,6.76,0,0,0-2.87,5V86.29" transform="translate(-47.44 0)"/><path class="cls-1" d="M202.62,71.56a6.91,6.91,0,0,0,3,4.86,11.38,11.38,0,0,0,12.77,0,6.93,6.93,0,0,0,3-4.86V34.94a6.79,6.79,0,0,0-2.87-5,11.3,11.3,0,0,0-13,0,6.79,6.79,0,0,0-2.87,5V71.56" transform="translate(-47.44 0)"/><path class="cls-1" d="M254.2,71.56a6.9,6.9,0,0,0,3,4.86,11.38,11.38,0,0,0,12.77,0,6.91,6.91,0,0,0,3-4.86V55.22a6.8,6.8,0,0,0-2.87-5,11.3,11.3,0,0,0-13,0,6.74,6.74,0,0,0-2.87,5V71.56" transform="translate(-47.44 0)"/><path class="cls-1" d="M306,71.56a6.91,6.91,0,0,0,3,4.86,11.38,11.38,0,0,0,12.77,0,6.9,6.9,0,0,0,3-4.86V34.94a6.78,6.78,0,0,0-2.86-5,11.31,11.31,0,0,0-13,0,6.82,6.82,0,0,0-2.87,5V71.56" transform="translate(-47.44 0)"/><path class="cls-1" d="M357.52,86.31a6.93,6.93,0,0,0,3,4.86,11.38,11.38,0,0,0,12.77,0,6.91,6.91,0,0,0,3-4.86V7.09a6.79,6.79,0,0,0-2.87-5,11.25,11.25,0,0,0-13,0,6.73,6.73,0,0,0-2.87,5V86.31" transform="translate(-47.44 0)"/><path class="cls-1" d="M409.24,71.56a6.91,6.91,0,0,0,3,4.86,11.38,11.38,0,0,0,12.77,0,6.9,6.9,0,0,0,3-4.86V34.94a6.76,6.76,0,0,0-2.87-5,11.3,11.3,0,0,0-13,0,6.82,6.82,0,0,0-2.87,5V71.56" transform="translate(-47.44 0)"/><path class="cls-1" d="M460.84,71.56a6.91,6.91,0,0,0,3,4.86,11.38,11.38,0,0,0,12.77,0,6.9,6.9,0,0,0,3-4.86V55.22a6.76,6.76,0,0,0-2.86-5,11.31,11.31,0,0,0-13,0,6.8,6.8,0,0,0-2.87,5V71.56" transform="translate(-47.44 0)"/><path class="cls-1" d="M341.35,176.84V161.13l-.4.13a45.17,45.17,0,0,1-14.42,2.88A25.52,25.52,0,0,1,312,160.78a15.23,15.23,0,0,1-6.32-7.05,13.45,13.45,0,0,1-.43-9.43,14.55,14.55,0,0,1,6.44-8.06,22.26,22.26,0,0,1,10.11-3.43,41.33,41.33,0,0,1,19.11,2.82l.43.17V120l-.92-.19a64.46,64.46,0,0,0-18.21-1.87A51.92,51.92,0,0,0,306,120.85a37.52,37.52,0,0,0-13.32,8.08c-11.23,11.16-11.53,26.86-.73,38.28a40.47,40.47,0,0,0,21.17,10.69,62.74,62.74,0,0,0,26.8-.74l1.47-.32" transform="translate(-47.44 0)"/><path class="cls-1" d="M361.29,148.43c.18,9.32,5.69,18.08,15,23.86s21.44,8,33,6c15.74-2.33,28-12.06,30.8-24.43s-4.43-24.83-18.17-31.28a49.32,49.32,0,0,0-39.9-.88c-12.54,5.36-20.46,15.58-20.75,26.78m27.47-12.09a23.73,23.73,0,0,1,14.52-3.29,21.6,21.6,0,0,1,13.22,5.73,13.25,13.25,0,0,1,4.19,11.4c-.58,4.08-3.2,7.82-7.3,10.39a23.78,23.78,0,0,1-14.51,3.29,21.6,21.6,0,0,1-13.22-5.73,13.3,13.3,0,0,1-4.2-11.4c.59-4.09,3.21-7.82,7.3-10.39" transform="translate(-47.44 0)"/></svg>