<?xml version="1.0" encoding="UTF-8"?>
<svg xmlns="http://www.w3.org/2000/svg" xmlns:xlink="http://www.w3.org/1999/xlink"  viewBox="0 10 284.05 55.16" version="1.1">
<defs>
<clipPath id="clip1">
  <path d="M 177 25 L 203 25 L 203 55.160156 L 177 55.160156 Z M 177 25 "/>
</clipPath>
<clipPath id="clip2">
  <path d="M 225 25 L 248 25 L 248 55.160156 L 225 55.160156 Z M 225 25 "/>
</clipPath>
<clipPath id="clip3">
  <path d="M 280 26 L 284.050781 26 L 284.050781 55 L 280 55 Z M 280 26 "/>
</clipPath>
<clipPath id="clip4">
  <path d="M 280 15 L 284.050781 15 L 284.050781 20 L 280 20 Z M 280 15 "/>
</clipPath>
</defs>
<g id="surface1">
<path style=" stroke:none;fill-rule:nonzero;fill:rgb(13.299561%,11.799622%,12.199402%);fill-opacity:1;" d="M 29.347656 54.375 L 33.898438 54.375 L 33.898438 36.34375 L 29.347656 36.34375 Z M 29.347656 54.375 "/>
<path style=" stroke:none;fill-rule:nonzero;fill:rgb(13.299561%,11.799622%,12.199402%);fill-opacity:1;" d="M 70.585938 41.511719 C 70.402344 41.414063 68.9375 40.546875 66.757813 40.546875 C 63.824219 40.546875 61.777344 42.597656 61.777344 45.359375 C 61.777344 48.035156 63.734375 50.171875 66.757813 50.171875 C 68.898438 50.171875 70.394531 49.324219 70.585938 49.214844 L 70.585938 54.054688 C 70.015625 54.214844 68.464844 54.699219 66.4375 54.699219 C 61.320313 54.699219 56.835938 51.167969 56.835938 45.359375 C 56.835938 39.972656 60.894531 36.023438 66.4375 36.023438 C 68.582031 36.023438 70.160156 36.542969 70.585938 36.671875 "/>
<path style=" stroke:none;fill-rule:nonzero;fill:rgb(13.299561%,11.799622%,12.199402%);fill-opacity:1;" d="M 23.097656 41.511719 C 22.914063 41.414063 21.449219 40.546875 19.269531 40.546875 C 16.324219 40.546875 14.28125 42.597656 14.28125 45.359375 C 14.28125 48.035156 16.238281 50.171875 19.269531 50.171875 C 21.410156 50.171875 22.894531 49.324219 23.097656 49.214844 L 23.097656 54.054688 C 22.527344 54.214844 20.976563 54.699219 18.941406 54.699219 C 13.828125 54.699219 9.34375 51.167969 9.34375 45.359375 C 9.34375 39.972656 13.40625 36.023438 18.941406 36.023438 C 21.082031 36.023438 22.660156 36.542969 23.097656 36.671875 "/>
<path style=" stroke:none;fill-rule:nonzero;fill:rgb(13.299561%,11.799622%,12.199402%);fill-opacity:1;" d="M 84.90625 40.617188 C 82.203125 40.617188 80.199219 42.738281 80.199219 45.359375 C 80.199219 47.980469 82.203125 50.101563 84.90625 50.101563 C 87.601563 50.101563 89.605469 47.980469 89.605469 45.359375 C 89.605469 42.738281 87.601563 40.617188 84.90625 40.617188 M 94.429688 45.359375 C 94.429688 50.515625 90.449219 54.699219 84.90625 54.699219 C 79.355469 54.699219 75.382813 50.515625 75.382813 45.359375 C 75.382813 40.207031 79.355469 36.023438 84.90625 36.023438 C 90.449219 36.023438 94.429688 40.207031 94.429688 45.359375 "/>
<path style=" stroke:none;fill-rule:nonzero;fill:rgb(13.299561%,11.799622%,12.199402%);fill-opacity:1;" d="M 51.15625 40.441406 C 51.089844 40.421875 49.171875 39.894531 47.601563 39.894531 C 45.769531 39.894531 44.78125 40.503906 44.78125 41.371094 C 44.78125 42.46875 46.121094 42.851563 46.867188 43.089844 L 48.125 43.488281 C 51.082031 44.425781 52.425781 46.449219 52.425781 48.644531 C 52.425781 53.175781 48.445313 54.699219 44.957031 54.699219 C 42.535156 54.699219 40.269531 54.253906 40.042969 54.203125 L 40.042969 50.054688 C 40.449219 50.15625 42.359375 50.722656 44.347656 50.722656 C 46.605469 50.722656 47.652344 50.066406 47.652344 49.042969 C 47.652344 48.125 46.75 47.601563 45.617188 47.246094 C 45.34375 47.152344 44.925781 47.023438 44.648438 46.925781 C 42.109375 46.128906 39.996094 44.640625 39.996094 41.65625 C 39.996094 38.285156 42.523438 36.019531 46.722656 36.019531 C 48.9375 36.019531 51.023438 36.558594 51.15625 36.59375 "/>
<path style=" stroke:none;fill-rule:nonzero;fill:rgb(13.299561%,11.799622%,12.199402%);fill-opacity:1;" d="M 4.515625 16.960938 C 4.515625 15.722656 3.503906 14.714844 2.257813 14.714844 C 1.015625 14.714844 0 15.722656 0 16.960938 L 0 21.695313 C 0 22.949219 1.015625 23.957031 2.257813 23.957031 C 3.503906 23.957031 4.515625 22.949219 4.515625 21.695313 "/>
<path style=" stroke:none;fill-rule:nonzero;fill:rgb(13.299561%,11.799622%,12.199402%);fill-opacity:1;" d="M 16.925781 10.75 C 16.925781 9.511719 15.910156 8.5 14.667969 8.5 C 13.421875 8.5 12.40625 9.511719 12.40625 10.75 L 12.40625 21.695313 C 12.40625 22.949219 13.421875 23.957031 14.667969 23.957031 C 15.910156 23.957031 16.925781 22.949219 16.925781 21.695313 "/>
<path style=" stroke:none;fill-rule:nonzero;fill:rgb(13.299561%,11.799622%,12.199402%);fill-opacity:1;" d="M 29.339844 2.25 C 29.339844 1.007813 28.320313 0 27.082031 0 C 25.832031 0 24.8125 1.007813 24.8125 2.25 L 24.8125 26.199219 C 24.8125 27.445313 25.832031 28.453125 27.082031 28.453125 C 28.320313 28.453125 29.339844 27.445313 29.339844 26.199219 "/>
<path style=" stroke:none;fill-rule:nonzero;fill:rgb(13.299561%,11.799622%,12.199402%);fill-opacity:1;" d="M 41.738281 10.75 C 41.738281 9.511719 40.730469 8.5 39.484375 8.5 C 38.242188 8.5 37.226563 9.511719 37.226563 10.75 L 37.226563 21.695313 C 37.226563 22.949219 38.242188 23.957031 39.484375 23.957031 C 40.730469 23.957031 41.738281 22.949219 41.738281 21.695313 "/>
<path style=" stroke:none;fill-rule:nonzero;fill:rgb(13.299561%,11.799622%,12.199402%);fill-opacity:1;" d="M 54.140625 16.960938 C 54.140625 15.722656 53.125 14.714844 51.894531 14.714844 C 50.644531 14.714844 49.636719 15.722656 49.636719 16.960938 L 49.636719 21.695313 C 49.636719 22.949219 50.644531 23.957031 51.894531 23.957031 C 53.125 23.957031 54.140625 22.949219 54.140625 21.695313 "/>
<path style=" stroke:none;fill-rule:nonzero;fill:rgb(13.299561%,11.799622%,12.199402%);fill-opacity:1;" d="M 66.554688 10.75 C 66.554688 9.511719 65.546875 8.5 64.296875 8.5 C 63.054688 8.5 62.050781 9.511719 62.050781 10.75 L 62.050781 21.695313 C 62.050781 22.949219 63.054688 23.957031 64.296875 23.957031 C 65.546875 23.957031 66.554688 22.949219 66.554688 21.695313 "/>
<path style=" stroke:none;fill-rule:nonzero;fill:rgb(13.299561%,11.799622%,12.199402%);fill-opacity:1;" d="M 78.96875 2.25 C 78.96875 1.007813 77.960938 0 76.71875 0 C 75.46875 0 74.464844 1.007813 74.464844 2.25 L 74.464844 26.199219 C 74.464844 27.445313 75.46875 28.453125 76.71875 28.453125 C 77.960938 28.453125 78.96875 27.445313 78.96875 26.199219 "/>
<path style=" stroke:none;fill-rule:nonzero;fill:rgb(13.299561%,11.799622%,12.199402%);fill-opacity:1;" d="M 91.378906 10.75 C 91.378906 9.511719 90.375 8.5 89.101563 8.5 C 87.863281 8.5 86.855469 9.511719 86.855469 10.75 L 86.855469 21.695313 C 86.855469 22.949219 87.863281 23.957031 89.101563 23.957031 C 90.375 23.957031 91.378906 22.949219 91.378906 21.695313 "/>
<path style=" stroke:none;fill-rule:nonzero;fill:rgb(13.299561%,11.799622%,12.199402%);fill-opacity:1;" d="M 103.773438 16.960938 C 103.773438 15.722656 102.765625 14.714844 101.527344 14.714844 C 100.273438 14.714844 99.265625 15.722656 99.265625 16.960938 L 99.265625 21.695313 C 99.265625 22.949219 100.273438 23.957031 101.527344 23.957031 C 102.765625 23.957031 103.773438 22.949219 103.773438 21.695313 "/>
<path style=" stroke:none;fill-rule:nonzero;fill:rgb(13.299561%,11.799622%,12.199402%);fill-opacity:1;" d="M 134.253906 15.675781 L 138.871094 15.675781 L 153.09375 51.1875 L 166.457031 15.675781 L 170.867188 15.675781 L 170.867188 54.421875 L 167.925781 54.421875 L 167.925781 20.273438 L 167.824219 20.273438 L 154.6875 54.421875 L 151.621094 54.421875 L 137.761719 20.273438 L 137.660156 20.273438 L 137.660156 54.421875 L 134.253906 54.421875 "/>
<g clip-path="url(#clip1)" clip-rule="nonzero">
<path style=" stroke:none;fill-rule:nonzero;fill:rgb(13.299561%,11.799622%,12.199402%);fill-opacity:1;" d="M 199.46875 38.542969 C 199.46875 37.191406 198.828125 28.148438 190.027344 28.105469 C 188.214844 28.097656 186.171875 28.546875 184.964844 29.417969 C 183.765625 30.292969 182.8125 31.300781 182.105469 32.4375 C 181.40625 33.574219 180.90625 34.679688 180.609375 35.75 C 180.3125 36.820313 180.164063 38.152344 180.164063 38.542969 Z M 201.953125 46.972656 C 201.1875 49.941406 198.535156 52.804688 196.613281 53.738281 C 194.691406 54.671875 192.574219 55.136719 190.257813 55.136719 C 188.277344 55.136719 186.492188 54.773438 184.882813 54.042969 C 183.277344 53.3125 181.898438 52.289063 180.742188 50.972656 C 179.582031 49.65625 178.695313 48.09375 178.078125 46.289063 C 177.464844 44.488281 177.15625 42.488281 177.15625 40.300781 C 177.15625 38.191406 177.476563 36.246094 178.109375 34.460938 C 178.742188 32.679688 179.636719 31.128906 180.796875 29.808594 C 181.953125 28.496094 183.316406 27.460938 184.882813 26.710938 C 186.453125 25.960938 188.191406 25.585938 190.089844 25.585938 C 192.070313 25.585938 193.816406 25.960938 195.328125 26.710938 C 196.839844 27.460938 198.109375 28.453125 199.132813 29.6875 C 200.160156 30.925781 200.882813 32.351563 201.460938 33.914063 C 202.671875 37.183594 202.429688 41.273438 202.429688 41.273438 L 179.988281 41.273438 C 179.988281 42.042969 180.121094 43.425781 180.402344 44.625 C 180.679688 45.816406 180.996094 46.941406 181.746094 48.078125 C 182.492188 49.214844 183.492188 50.378906 184.742188 51.1875 C 185.992188 52 188.335938 52.707031 190.3125 52.707031 C 192.03125 52.707031 193.734375 52.332031 195.296875 51.371094 C 197.394531 50.078125 198.132813 48.410156 198.996094 46.867188 "/>
</g>
<path style=" stroke:none;fill-rule:nonzero;fill:rgb(13.299561%,11.799622%,12.199402%);fill-opacity:1;" d="M 209.273438 30.234375 C 209.253906 29.46875 209.230469 28.753906 209.195313 28.089844 C 209.160156 27.429688 209.140625 26.917969 209.140625 26.554688 L 211.765625 26.554688 C 211.804688 27.597656 212.136719 31.160156 212.210938 31.441406 C 213.03125 29.789063 214.019531 28.050781 215.359375 27.074219 C 219.160156 24.3125 222.402344 26.140625 222.722656 26.21875 L 222.820313 28.800781 C 222.390625 28.640625 221.980469 28.5625 221.589844 28.5625 C 220.195313 28.5625 217.085938 27.90625 214.253906 31.566406 C 213.578125 32.441406 213.285156 33.015625 212.746094 35.390625 C 212.472656 36.589844 212.265625 37.855469 212.265625 39.222656 L 212.265625 54.421875 L 209.046875 54.421875 C 209.046875 54.421875 209.484375 37.917969 209.273438 30.234375 "/>
<g clip-path="url(#clip2)" clip-rule="nonzero">
<path style=" stroke:none;fill-rule:nonzero;fill:rgb(13.299561%,11.799622%,12.199402%);fill-opacity:1;" d="M 232.699219 41.925781 C 231.523438 42.402344 228.761719 43.652344 228.679688 47.269531 C 228.660156 48.140625 228.875 48.914063 229.261719 49.597656 C 229.648438 50.28125 230.144531 50.84375 230.761719 51.277344 C 231.367188 51.714844 232.050781 52.042969 232.800781 52.273438 C 233.554688 52.5 234.320313 52.613281 235.09375 52.613281 C 237.046875 52.613281 238.652344 52.324219 239.917969 51.742188 C 241.175781 51.164063 242.183594 50.40625 242.941406 49.472656 C 243.691406 48.542969 244.214844 47.484375 244.496094 46.304688 C 244.78125 45.121094 244.925781 43.933594 244.925781 42.730469 L 244.925781 39.441406 C 244.925781 39.441406 236.214844 40.507813 232.699219 41.925781 M 247.707031 42.871094 C 247.707031 44.222656 247.71875 45.429688 247.734375 46.503906 C 247.753906 47.574219 247.714844 53.628906 247.828125 54.421875 L 245.339844 54.421875 C 245.113281 53.074219 244.996094 51.570313 244.996094 49.941406 L 244.789063 49.957031 C 243.808594 51.742188 242.410156 53.054688 240.964844 53.886719 C 239.511719 54.71875 237.675781 55.007813 235.460938 55.136719 C 232.214844 55.328125 229.558594 54.257813 228.691406 53.601563 C 227.824219 52.945313 227.117188 52.105469 226.574219 51.070313 C 226.027344 50.039063 225.757813 48.789063 225.757813 47.320313 C 225.757813 45.214844 226.265625 43.550781 227.28125 42.316406 C 228.296875 41.085938 230.074219 40.050781 231.59375 39.507813 C 234.492188 38.472656 244.925781 37.089844 244.925781 37.089844 C 244.925781 37.089844 246.238281 28.039063 237.394531 28.039063 C 234.386719 28.039063 230.210938 29.074219 229.726563 33.636719 L 226.480469 33.707031 C 227.308594 25.96875 235.84375 25.550781 237.535156 25.550781 C 240.695313 25.550781 243.003906 26.609375 244.886719 28.179688 C 246.765625 29.746094 247.707031 32.648438 247.707031 36.140625 "/>
</g>
<path style=" stroke:none;fill-rule:nonzero;fill:rgb(13.299561%,11.799622%,12.199402%);fill-opacity:1;" d="M 255.152344 15.675781 L 257.90625 15.675781 L 257.90625 37.988281 L 271.457031 26.453125 L 275.34375 26.46875 L 261.160156 38.679688 L 277.121094 54.421875 L 273.183594 54.421875 L 257.90625 39.894531 L 257.90625 54.421875 L 255.152344 54.421875 "/>
<g clip-path="url(#clip3)" clip-rule="nonzero">
<path style=" stroke:none;fill-rule:nonzero;fill:rgb(13.299561%,11.799622%,12.199402%);fill-opacity:1;" d="M 280.917969 54.421875 L 284.054688 54.421875 L 284.054688 26.519531 L 280.917969 26.519531 Z M 280.917969 54.421875 "/>
</g>
<g clip-path="url(#clip4)" clip-rule="nonzero">
<path style=" stroke:none;fill-rule:nonzero;fill:rgb(13.299561%,11.799622%,12.199402%);fill-opacity:1;" d="M 280.917969 19.671875 L 284.054688 19.671875 L 284.054688 15.675781 L 280.917969 15.675781 Z M 280.917969 19.671875 "/>
</g>
</g>
</svg>
