<?xml version="1.0" encoding="utf-8"?>
<!-- Generator: Adobe Illustrator 25.2.0, SVG Export Plug-In . SVG Version: 6.00 Build 0)  -->
<svg version="1.1" id="Layer_1" xmlns="http://www.w3.org/2000/svg" xmlns:xlink="http://www.w3.org/1999/xlink" x="0px" y="0px"
	 viewBox="0 0 394.6 176.9" style="enable-background:new 0 0 394.6 176.9;" xml:space="preserve">
<style type="text/css">
	.st0{fill:#1D1D1B;}
</style>
<path class="st0" d="M186.6,158.3l-0.1,13.1l1,0.2c3.1,0.6,6.3,1,9.4,1.2c2.8,0.2,5.5,0.3,8.3,0.2c2.6-0.2,5.2-0.7,7.8-1.4
	c2.9-0.8,5.6-2.2,8.1-4.2c2-1.6,3.6-3.9,4.7-6.5c1.7-4.1,1.7-9-0.1-13.1c-1-2.3-2.4-4.2-4.2-5.7c-1.9-1.6-4-2.8-6.2-3.5l-10.2-3.7
	c-1.1-0.4-2.1-1.3-2.8-2.6c-0.5-0.9-0.4-2.1,0.1-3c0.2-0.3,0.4-0.6,0.7-0.9c0.3-0.3,0.7-0.6,1-0.8l0.5-0.3c1.2-0.5,2.4-0.9,3.6-1
	c2.2-0.3,4.3-0.3,6.5,0.1c2.5,0.3,5,0.7,7.5,1.3l0.5,0.1v-12.1l-1-0.2c-2.5-0.6-5.1-1-7.7-1.3c-3.3-0.4-6.7-0.4-10.1,0
	c-4.1,0.3-8.1,1.9-11.6,4.5c-2.1,1.6-3.9,3.9-5,6.6c-1.5,3.9-1.5,8.4,0,12.3c0.8,2.1,2,3.9,3.6,5.2c1.4,1.3,3,2.4,4.6,3.2
	c2.3,1.2,4.6,2.1,7.1,2.7c0.8,0.2,1.6,0.5,2.4,0.7l1.2,0.4l0.3,0.1c1.1,0.4,2.2,1.1,3.2,1.9c0.6,0.5,1.1,1.3,1.4,2.1
	c0.2,0.7,0.2,1.5,0,2.2c-0.5,1.3-1.3,2.2-2.4,2.7c-1.3,0.6-2.6,1-3.9,1.2c-2,0.3-4,0.4-6,0.3c-2.6-0.2-5.3-0.5-7.8-1
	c-1.4-0.3-2.7-0.6-4.1-0.9L186.6,158.3"/>
<path class="st0" d="M131.2,170.9v-15.2l-0.3,0.1c-3.6,1.7-7.4,2.6-11.3,2.8c-4,0.3-7.9-0.8-11.4-3.3c-2.2-1.6-3.9-3.9-5-6.8
	c-1-2.9-1.1-6.1-0.3-9.1c0.8-3.3,2.6-6.1,5-7.8c2.4-1.9,5.1-3,7.9-3.3c5.1-0.6,10.2,0.4,15,2.7l0.3,0.2V116l-0.7-0.2
	c-4.7-1.4-9.5-2-14.3-1.8c-4.3,0.1-8.7,1-12.8,2.8c-3.9,1.7-7.4,4.3-10.4,7.8c-8.8,10.8-9,25.9-0.6,37c4.6,5.4,10.3,9,16.6,10.3
	c7,1.6,14.1,1.4,21-0.7L131.2,170.9"/>
<polyline class="st0" points="166.5,171.9 166.5,114.9 151.7,114.9 151.7,171.9 166.5,171.9 "/>
<path class="st0" d="M55.9,69.1c0.2,1.9,1.1,3.6,2.4,4.7c3,2.5,7,2.5,10,0c1.3-1.1,2.2-2.8,2.4-4.7V53.3c-0.1-1.9-1-3.7-2.2-4.8
	c-3.1-2.6-7.1-2.6-10.2,0c-1.3,1.1-2.1,2.9-2.2,4.8L55.9,69.1"/>
<path class="st0" d="M96.5,69.1c0.2,1.9,1.1,3.6,2.4,4.7c3,2.5,7,2.5,10,0c1.3-1.1,2.2-2.8,2.4-4.7V33.7c-0.1-1.9-1-3.7-2.2-4.8
	c-3.1-2.7-7.1-2.7-10.2,0c-1.3,1.1-2.1,2.9-2.2,4.8L96.5,69.1"/>
<path class="st0" d="M136.9,83.4c0.2,1.9,1.1,3.6,2.4,4.7c3,2.5,7,2.5,10,0c1.3-1.1,2.2-2.8,2.4-4.7V6.8c-0.1-1.9-1-3.7-2.2-4.8
	c-3.1-2.7-7.1-2.7-10.2,0c-1.3,1.1-2.1,2.9-2.2,4.8L136.9,83.4"/>
<path class="st0" d="M177.5,69.1c0.2,1.9,1.1,3.6,2.4,4.7c3,2.5,7,2.5,10,0c1.3-1.1,2.2-2.8,2.4-4.7V33.8c-0.1-1.9-1-3.7-2.2-4.8
	c-3.1-2.7-7.1-2.7-10.2,0c-1.3,1.1-2.1,2.9-2.2,4.8L177.5,69.1"/>
<path class="st0" d="M217.9,69.1c0.2,1.9,1.1,3.6,2.4,4.7c3,2.5,7,2.5,10,0c1.3-1.1,2.2-2.8,2.4-4.7V53.4c-0.1-1.9-1-3.7-2.2-4.8
	c-3.1-2.7-7.1-2.7-10.2,0c-1.3,1.1-2.1,2.9-2.2,4.8L217.9,69.1"/>
<path class="st0" d="M258.5,69.1c0.2,1.9,1.1,3.6,2.4,4.7c3,2.5,7,2.5,10,0c1.3-1.1,2.2-2.8,2.4-4.7V33.8c-0.1-1.9-0.9-3.7-2.2-4.8
	c-3.1-2.6-7.1-2.6-10.2,0c-1.3,1.1-2.1,2.9-2.2,4.8L258.5,69.1"/>
<path class="st0" d="M298.9,83.4c0.2,1.9,1.1,3.6,2.4,4.7c3,2.5,7,2.5,10,0c1.3-1.1,2.2-2.8,2.4-4.7V6.8c-0.1-1.9-1-3.7-2.2-4.8
	c-3.1-2.7-7.1-2.7-10.2,0c-1.3,1.1-2.1,2.9-2.2,4.8L298.9,83.4"/>
<path class="st0" d="M339.4,69.1c0.2,1.9,1.1,3.6,2.4,4.7c3,2.5,7,2.5,10,0c1.3-1.1,2.2-2.8,2.4-4.7V33.8c-0.1-1.9-1-3.7-2.2-4.8
	c-3.1-2.7-7.1-2.7-10.2,0c-1.3,1.1-2.1,2.9-2.2,4.8L339.4,69.1"/>
<path class="st0" d="M379.9,69.1c0.2,1.9,1.1,3.6,2.4,4.7c3,2.5,7,2.5,10,0c1.3-1.1,2.2-2.8,2.4-4.7V53.4c-0.1-1.9-0.9-3.7-2.2-4.8
	c-3.1-2.6-7.1-2.6-10.2,0c-1.3,1.1-2.1,2.9-2.2,4.8L379.9,69.1"/>
<path class="st0" d="M286.2,170.9v-15.2l-0.3,0.1c-3.6,1.7-7.4,2.6-11.3,2.8c-4,0.3-7.9-0.8-11.4-3.2c-2.2-1.6-3.9-4-5-6.8
	c-1-2.9-1.1-6.1-0.3-9.1c0.9-3.3,2.6-6,5-7.8c2.4-1.9,5.1-3,7.9-3.3c5.1-0.6,10.2,0.4,15,2.7l0.3,0.2V116l-0.7-0.2
	c-4.7-1.4-9.5-2-14.3-1.8c-4.3,0.1-8.6,1-12.7,2.8c-3.9,1.7-7.4,4.3-10.4,7.8c-8.8,10.8-9,26-0.6,37c4.6,5.4,10.3,9,16.6,10.3
	c7,1.6,14.1,1.4,21-0.7L286.2,170.9"/>
<path class="st0" d="M301.9,143.4c0.1,9,4.5,17.5,11.8,23.1c7.3,5.6,16.8,7.7,25.9,5.8c12.3-2.3,21.9-11.7,24.1-23.6
	c2.2-12-3.5-24-14.2-30.2c-9.9-5.7-21.2-6-31.3-0.9C308.3,122.8,302.1,132.7,301.9,143.4 M323.4,131.8c3.4-2.5,7.4-3.7,11.4-3.2
	c3.9,0.3,7.5,2.3,10.4,5.5c2.5,2.8,3.7,6.9,3.3,11c-0.5,3.9-2.5,7.6-5.7,10c-3.4,2.5-7.4,3.6-11.4,3.2c-3.9-0.3-7.5-2.3-10.4-5.5
	c-2.5-2.8-3.7-6.9-3.3-11C318.1,137.9,320.2,134.3,323.4,131.8"/>
</svg>
