<svg viewBox="0 0 32 32"  xmlns="http://www.w3.org/2000/svg"><g id="Layer_2" data-name="Layer 2"><path d="m21.83 26.08a2.82 2.82 0 0 0 .51.41 12.2 12.2 0 0 1 -9 1.48 1 1 0 0 1 -.75-1.29 1 1 0 0 1 .25-.42 1 1 0 0 1 .9-.26 10.21 10.21 0 0 0 7.38-1.11 2.9 2.9 0 0 0 .71 1.19z"/><path d="m26.44 9.59a12.14 12.14 0 0 1 1.56 9.08 1 1 0 0 1 -1.28.74 1 1 0 0 1 -.72-1.15 10.21 10.21 0 0 0 -1.06-7.26 2.85 2.85 0 0 0 1-.64 2.71 2.71 0 0 0 .5-.77z"/><path d="m19.41 5.32a1 1 0 0 1 -.25.42 1 1 0 0 1 -.9.26 10.21 10.21 0 0 0 -7.26 1.06 2.85 2.85 0 0 0 -.64-1 2.71 2.71 0 0 0 -.75-.54 12.17 12.17 0 0 1 9.05-1.52 1 1 0 0 1 .75 1.32z"/><path d="m5.74 12.84a1 1 0 0 1 .26.9 10.21 10.21 0 0 0 1.06 7.26 2.85 2.85 0 0 0 -1 .64 2.71 2.71 0 0 0 -.54.75 12.17 12.17 0 0 1 -1.52-9.05 1 1 0 0 1 1.29-.75 1 1 0 0 1 .45.25z"/><path d="m23.95 28a4 4 0 0 1 -2.14-.63 3.78 3.78 0 0 1 -.67-.54 3.92 3.92 0 0 1 -1-1.6 4 4 0 1 1 3.81 2.77zm0-6a2 2 0 0 0 -1.9 2.61 1.94 1.94 0 0 0 .48.81 1.85 1.85 0 0 0 .33.27 2 2 0 1 0 1.14-3.69z"/><path d="m8.22 12.22a4 4 0 1 1 1.84-7.55 3.61 3.61 0 0 1 1 .72 3.85 3.85 0 0 1 .86 1.3 3.93 3.93 0 0 1 -.86 4.36 4 4 0 0 1 -2.84 1.17zm0-6a2 2 0 0 0 -1.4.58 2 2 0 0 0 0 2.83 2 2 0 0 0 2.83 0 2 2 0 0 0 .43-2.17 1.91 1.91 0 0 0 -.43-.66 1.73 1.73 0 0 0 -.47-.34 2.08 2.08 0 0 0 -.98-.23z"/><path d="m8.22 27.78a4 4 0 0 1 -3.54-5.84 3.62 3.62 0 0 1 .72-1 3.85 3.85 0 0 1 1.3-.86 3.93 3.93 0 0 1 4.36.86 4 4 0 0 1 -2.83 6.83zm0-6a2.13 2.13 0 0 0 -1.43.59 1.74 1.74 0 0 0 -.34.47 2 2 0 0 0 .34 2.36 2 2 0 0 0 2.83 0 2 2 0 0 0 0-2.83 2 2 0 0 0 -1.38-.6z"/><path d="m23.77 12.23a4 4 0 1 1 2.84-6.84 4 4 0 0 1 .72 4.67 3.63 3.63 0 0 1 -.72 1 4.17 4.17 0 0 1 -2.84 1.18zm0-6a2 2 0 0 0 -1.41 3.41 2 2 0 0 0 2.17.43 1.89 1.89 0 0 0 .65-.43 1.74 1.74 0 0 0 .34-.47 2 2 0 0 0 -.34-2.36 2 2 0 0 0 -1.4-.59z"/></g></svg>