<svg id="Capa_1" enable-background="new 0 0 512 512"  viewBox="0 0 512 512"  xmlns="http://www.w3.org/2000/svg"><path d="m437.934 74.629h-15.511v-36.101c0-21.244-17.284-38.528-38.529-38.528h-303.935c-21.244 0-38.528 17.284-38.528 38.528v96.155c0 21.244 17.284 38.528 38.528 38.528h303.935c21.245 0 38.529-17.284 38.529-38.528v-40.054h15.511c6.968 0 12.636 5.651 12.636 12.599v100.882c0 6.946-5.668 12.598-12.636 12.598h-206.007c-5.522 0-10 4.478-10 10v52.875h-27.897c-5.522 0-10 4.478-10 10v187.09c0 17.273 14.054 31.327 31.327 31.327h33.138c17.273 0 31.327-14.054 31.327-31.327v-187.09c0-5.522-4.478-10-10-10h-27.896v-42.875h196.007c17.995 0 32.636-14.623 32.636-32.598v-100.882c0-17.975-14.64-32.599-32.635-32.599zm-35.511 60.055c0 10.217-8.313 18.528-18.529 18.528h-303.935c-10.217 0-18.528-8.312-18.528-18.528v-96.156c0-10.216 8.311-18.528 18.528-18.528h303.935c10.217 0 18.529 8.312 18.529 18.528zm-142.601 345.989c0 6.246-5.081 11.327-11.327 11.327h-33.138c-6.246 0-11.327-5.081-11.327-11.327v-177.09h55.792z"/></svg>