<svg  viewBox="0 0 511.99968 511"  xmlns="http://www.w3.org/2000/svg"><path d="m494.75 349.152344c11.324219-29.171875 17.25-60.492188 17.25-92.726563 0-68.359375-26.621094-132.628906-74.960938-180.964843-.664062-.667969-1.347656-1.316407-2.019531-1.976563-.214843-.234375-.445312-.453125-.683593-.664063-48.019532-46.65625-111.164063-72.320312-178.261719-72.320312-68.363281 0-132.628907 26.621094-180.96875 74.960938-3.277344 3.277343-6.445313 6.632812-9.519531 10.050781-.066407.070312-.128907.140625-.191407.210937-42.171875 46.996094-65.25 107.074219-65.25 170.703125 0 .203125.007813.402344.007813.601563-.2109378 1.066406-.2109378 2.183594.042968 3.308594.996094 66.898437 27.496094 129.644531 74.910157 177.058593 2 2 4.035156 3.945313 6.085937 5.867188.125.121093.246094.246093.378906.351562 18.703126 17.464844 39.582032 31.824219 62.011719 42.820313.757813.546875 1.589844.945312 2.453125 1.195312 30.519532 14.554688 63.835938 22.917969 98.390625 24.453125.652344.164063 1.304688.273438 1.953125.273438.492188 0 .972656-.058594 1.449219-.148438 2.742187.085938 5.488281.144531 8.242187.144531 68.363282 0 132.628907-26.621093 180.96875-74.957031 4.855469-4.859375 9.484376-9.882812 13.898438-15.050781 19.777344-22.441406 34.753906-47.515625 43.8125-73.191406zm-55.898438 62.652344c-3.253906 3.691406-6.652343 7.324218-10.210937 10.882812-54.144531 54.144531-125.460937 73.632812-171.25 50.335938-.273437-.160157-.554687-.304688-.84375-.433594-6.796875-3.558594-13.023437-8.066406-18.523437-13.570313-42.535157-42.535156-26.238282-128.046875 36.332031-190.617187 39.007812-39.007813 86.925781-60.027344 127.792969-60.027344 3.675781 0 7.285156.191406 10.835937.53125.523437.105469 1.054687.175781 1.589844.175781.023437 0 .046875-.003906.070312-.007812 19.621094 2.207031 37.070313 9.730469 50.332031 22.992187 25.808594 25.8125 29.953126 67.445313 15.242188 110.175782-9.628906 25.179687-23.542969 48.664062-41.367188 69.5625zm-277.269531 65.242187c14.835938-18.71875 24.191407-44.53125 26.628907-74.019531 2.867187-34.695313-3.566407-72.132813-18.605469-108.265625-29.203125-70.148438-84.683594-118.917969-138.089844-123.046875 9.675781-25.691406 23.796875-49.640625 41.972656-70.898438 12.429688 6.152344 24.773438 13.820313 36.804688 22.820313-.359375 3.015625-.550781 6.054687-.550781 9.117187 0 28.597656 15.730468 55.28125 44.292968 75.132813 13.683594 9.511719 29.566406 16.90625 46.828125 21.953125 7.75 13.808594 14.8125 28.308594 21 43.167968 3.230469 7.765626 6.234375 15.683594 8.972657 23.582032-15.207032 23.320312-25.550782 48.335937-30.03125 73.226562-7.339844 40.804688 1.851562 76.511719 25.882812 100.542969 5.257812 5.261719 11.09375 9.78125 17.402344 13.601563-1.019532 4.027343-2.140625 7.992187-3.351563 11.863281-27.585937-1.730469-54.273437-8.113281-79.15625-18.777344zm-62.875-39.550781c22.847657-23.9375 26.640625-69.816406 8.285157-113.902344-19.175782-46.070312-56.691407-76.09375-90.695313-74.320312.613281-21.203126 3.96875-41.929688 9.894531-61.785157 22.003906.582031 45.957032 10.742188 68.070313 28.96875 24.914062 20.535157 46.414062 50.53125 60.542969 84.46875 26.972656 64.792969 23.382812 133.121094-8.214844 169.070313-17.070313-8.773438-33.136719-19.648438-47.882813-32.5zm271.3125-350.375c.398438.613281.878907 1.164062 1.425781 1.644531 10.96875 12.980469 17.246094 27.996094 17.246094 43.988281 0 49.035156-58.972656 88.925782-131.457031 88.925782-17.074219 0-33.394531-2.214844-48.371094-6.238282-.328125-.113281-.664062-.207031-1.003906-.277344-48.089844-13.234374-82.082031-45.183593-82.082031-82.410156 0-49.03125 58.96875-88.921875 131.457031-88.921875 47.839844 0 89.785156 17.378907 112.785156 43.289063zm50.578125-5.265625c-2.246094 21.054687 1.523438 44.574219 10.75 66.746093 13.332032 32.019532 36.007813 56.96875 61.289063 67.734376 1.828125 10.921874 2.914062 22.035156 3.222656 33.277343-4.691406-10.84375-11.226563-20.5625-19.546875-28.882812-14.988281-14.988281-34.515625-24.203125-56.992188-27.234375-6.3125-10.382813-11.933593-21.4375-16.71875-32.925782-.46875-1.128906-1.167968-2.082031-2.015624-2.851562 2.722656-8.066406 4.136718-16.425781 4.136718-24.964844 0-19.035156-6.980468-37.21875-20.066406-53.105468-.226562-8.636719.125-17.046876 1.054688-25.144532 12.332031 7.949219 24.011718 17.082032 34.886718 27.351563zm67.6875 114.019531c-17.109375-11.066406-32.523437-30.347656-42.132812-53.4375-6.144532-14.757812-9.566406-30.089844-10.078125-44.582031 25.128906 28.445312 42.859375 61.90625 52.210937 98.019531zm-246.128906 84.839844c-1.75-4.652344-3.585938-9.289063-5.492188-13.867188-4.558593-10.953125-9.582031-21.714844-14.984374-32.171875 11.496093 2.003907 23.417968 3.035157 35.554687 3.035157 10.3125 0 20.464844-.75 30.339844-2.207032-8.515625 6.542969-16.734375 13.742188-24.554688 21.558594-7.542969 7.542969-14.507812 15.460938-20.863281 23.652344zm149.699219-104.765625c2.589843 5.609375 5.371093 11.105469 8.320312 16.464843-7.664062.125-15.582031.890626-23.703125 2.316407 6.0625-5.890625 11.214844-12.179688 15.382813-18.78125zm-133.105469 315.253906c4.679688 1.832031 9.554688 3.335937 14.605469 4.5-5.308594.375-10.65625.574219-16.03125.601563.492187-1.6875.964843-3.390626 1.425781-5.101563zm-2.675781-474.667969c40.71875 0 79.882812 10.089844 114.65625 29.0625-.929688 5.972656-1.554688 12.113282-1.890625 18.378906-2.664063-2.183593-5.464844-4.304687-8.40625-6.351562-27.675782-19.234375-64.324219-29.828125-103.199219-29.828125s-75.527344 10.59375-103.199219 29.828125c-19.644531 13.65625-33.222656 30.542969-39.78125 49.058594-9.691406-6.875-19.570312-12.9375-29.53125-18.125.574219-.585938 1.136719-1.179688 1.71875-1.761719 45.3125-45.308594 105.554688-70.261719 169.632813-70.261719zm-210.351563 349.417969c-.269531 1.4375-.675781 2.722656-1.179687 3.855469-6.765625-12.582032-12.363281-25.734375-16.757813-39.316406 5.339844 1.828124 11.648438 7.855468 15.410156 16.894531 2.636719 6.332031 3.558594 13.097656 2.527344 18.566406zm7.578125 18.816406c4.078125-3.847656 6.949219-9.320312 8.179688-15.847656 1.617187-8.585937.378906-18.421875-3.480469-27.699219-7.273438-17.46875-21.613281-28.230468-34.921875-27.335937-3.855469-15.757813-6.117187-32-6.71875-48.535157 27.148437-1.996093 59.34375 24.796876 75.832031 64.40625 15.734375 37.800782 13.210938 77.71875-5.226562 96.808594-.171875-.171875-.351563-.335937-.523438-.511718-12.671875-12.671876-23.753906-26.519532-33.140625-41.285157zm0 0"/><path d="m381.644531 270.914062c-23.308593 4.84375-47 18.363282-66.707031 38.066407-19.707031 19.710937-33.226562 43.398437-38.066406 66.707031-5.097656 24.53125-.089844 45.855469 14.097656 60.042969 10.566406 10.566406 25.089844 16.039062 41.953125 16.039062 5.773437 0 11.828125-.644531 18.085937-1.941406 23.308594-4.84375 47-18.363281 66.707032-38.070313 19.707031-19.703124 33.226562-43.394531 38.066406-66.707031 5.097656-24.53125.089844-45.851562-14.097656-60.039062-14.183594-14.183594-35.507813-19.191407-60.039063-14.097657zm58.4375 70.875c-4.210937 20.289063-16.183593 41.109376-33.703125 58.632813-17.523437 17.523437-38.347656 29.492187-58.632812 33.707031-19.0625 3.957032-35.203125.503906-45.441406-9.738281-10.238282-10.238281-13.695313-26.375-9.734376-45.441406 4.210938-20.285157 16.183594-41.109375 33.703126-58.628907 17.523437-17.523437 38.347656-29.496093 58.632812-33.707031 5.148438-1.070312 10.082031-1.597656 14.746094-1.597656 12.601562 0 23.222656 3.859375 30.695312 11.335937 10.238282 10.234376 13.695313 26.375 9.734375 45.4375zm0 0"/><path d="m380.40625 336.378906c-8.558594 1.777344-17.183594 6.671875-24.292969 13.78125-15.808593 15.804688-19.210937 37.167969-7.746093 48.632813 4.421874 4.421875 10.585937 6.757812 17.507812 6.757812 2.210938 0 4.503906-.238281 6.835938-.726562 8.558593-1.773438 17.183593-6.667969 24.292968-13.777344s12-15.734375 13.777344-24.292969c2.003906-9.636718-.199219-18.507812-6.03125-24.339844-5.835938-5.835937-14.707031-8.039062-24.34375-6.035156zm14.675781 27.117188c-1.132812 5.453125-4.566406 11.363281-9.417969 16.214844-4.851562 4.851562-10.761718 8.285156-16.214843 9.417968-4.253907.878906-7.800781.269532-9.746094-1.671875-4.296875-4.296875-1.898437-16.316406 7.746094-25.960937 4.855469-4.851563 10.765625-8.285156 16.214843-9.417969 1.277344-.265625 2.492188-.394531 3.621094-.394531 2.621094 0 4.765625.707031 6.125 2.066406 1.945313 1.941406 2.554688 5.496094 1.671875 9.746094zm0 0"/><path d="m319.316406 70.851562c-16.699218-10.957031-38.746094-16.988281-62.085937-16.988281-23.335938 0-45.382813 6.03125-62.082031 16.988281-17.742188 11.640626-27.511719 27.460938-27.511719 44.546876 0 17.089843 9.769531 32.910156 27.511719 44.550781 16.699218 10.953125 38.75 16.988281 62.082031 16.988281 23.335937 0 45.386719-6.035156 62.085937-16.988281 17.742188-11.640625 27.511719-27.460938 27.511719-44.550781 0-17.085938-9.769531-32.90625-27.511719-44.546876zm-8.796875 75.6875c-14.113281 9.261719-33.039062 14.363282-53.289062 14.363282-20.246094 0-39.167969-5.097656-53.285157-14.363282-13.074218-8.574218-20.277343-19.636718-20.277343-31.140624 0-11.503907 7.199219-22.5625 20.277343-31.140626 14.117188-9.261718 33.039063-14.363281 53.285157-14.363281 20.246093 0 39.171875 5.097657 53.289062 14.363281 13.074219 8.578126 20.277344 19.636719 20.277344 31.140626 0 11.503906-7.199219 22.566406-20.277344 31.140624zm0 0"/><path d="m257.234375 78.109375c-19.28125 0-34.382813 11.117187-34.382813 25.3125s15.101563 25.3125 34.382813 25.3125c19.277344 0 34.382813-11.117187 34.382813-25.3125s-15.105469-25.3125-34.382813-25.3125zm0 34.589844c-11.203125 0-18.351563-5.496094-18.351563-9.277344 0-3.785156 7.148438-9.28125 18.351563-9.28125 11.199219 0 18.347656 5.496094 18.347656 9.28125 0 3.78125-7.148437 9.277344-18.347656 9.277344zm0 0"/></svg>