<svg xmlns="http://www.w3.org/2000/svg" viewBox="0 0 200 38.6">
          <path fill="#DF021C" d="M56.2 5.5H45.7v32.6h10.6c9.9 0 15.7-4.7 15.7-16.3 0-11.6-5.9-16.3-15.8-16.3zm-.3 28.3h-5.2v-24h5.2c7.5 0 11 3.4 11 12s-3.6 12-11 12zM194.4 5.5l-8.7 15.7-8.8-15.7h-5.6l11.9 19.7v12.9h5V25.2L200 5.5h-5.6zM99.8 26.1c0 4.6-1.4 8.2-7.6 8.2-6.3 0-7.7-3.6-7.7-8.2V5.5h-5v20.3c0 7.2 2.7 12.9 12.7 12.9 9.9 0 12.7-5.7 12.7-12.9V5.5h-5v20.6zm67.9-11.4c0-6.9-4.9-9.2-12.5-9.2H142v32.6h5V24h7.2l8.1 14.2h5.5L159 23.7c5.3-.8 8.7-3.3 8.7-9zm-20.8 5V9.8h8.2c4.3 0 7.5.8 7.5 4.9 0 4.1-3.2 5-7.6 5h-8.1zM114 38.1h5V24h13.1v-4.2H119v-10h16.4V5.5H114v32.6zM15.2 0h-5v5.5H0v7.7c0 7.2 2.7 12.9 12.7 12.9 9.9 0 12.7-5.7 12.7-12.9V5.5H15.2V0zm5.1 9.8v3.7c0 4.6-1.4 8.2-7.6 8.2-6.3 0-7.7-3.6-7.7-8.2V9.8h5.1v5.5h5V9.8h5.2z"></path>
        </svg>