<svg id="_x31__x2C_5" enable-background="new 0 0 24 24"  viewBox="0 0 24 24"  xmlns="http://www.w3.org/2000/svg"><path d="m19.75 4.687c-.191 0-.382-.072-.528-.218-1.93-1.914-4.495-2.969-7.222-2.969s-5.292 1.055-7.222 2.969c-.294.292-.768.29-1.061-.004-.292-.294-.29-.77.004-1.061 2.214-2.195 5.154-3.404 8.279-3.404s6.065 1.209 8.278 3.404c.294.291.296.767.004 1.061-.146.147-.339.222-.532.222z"/><path d="m17.052 7.362c-.191 0-.382-.072-.528-.218-1.211-1.201-2.817-1.862-4.524-1.862s-3.313.661-4.524 1.863c-.294.292-.769.29-1.061-.004-.291-.294-.29-.769.004-1.061 1.494-1.481 3.476-2.298 5.581-2.298s4.087.816 5.581 2.298c.294.292.296.767.004 1.061-.147.147-.34.221-.533.221z"/><path d="m14.354 10.038c-.193 0-.386-.074-.533-.222-.963-.971-2.681-.971-3.644 0-.291.294-.765.296-1.06.004-.294-.291-.296-.766-.004-1.06.765-.772 1.791-1.197 2.887-1.197s2.122.425 2.887 1.196c.292.294.29.77-.004 1.061-.147.146-.338.218-.529.218z"/><path d="m9.125 21h-1.875c-.414 0-.75-.336-.75-.75s.336-.75.75-.75h1.875c.482 0 .875-.393.875-.875s-.393-.875-.875-.875h-1.875c-.414 0-.75-.336-.75-.75v-3.25c0-.414.336-.75.75-.75h3.5c.414 0 .75.336.75.75s-.336.75-.75.75h-2.75v1.75h1.125c1.31 0 2.375 1.065 2.375 2.375s-1.065 2.375-2.375 2.375z"/><path d="m16.75 21h-2.5c-.965 0-1.75-.785-1.75-1.75v-4.5c0-.965.785-1.75 1.75-1.75h2.5c.414 0 .75.336.75.75s-.336.75-.75.75h-2.5c-.138 0-.25.112-.25.25v4.5c0 .138.112.25.25.25h1.75v-1.5h-.75c-.414 0-.75-.336-.75-.75s.336-.75.75-.75h1.5c.414 0 .75.336.75.75v3c0 .414-.336.75-.75.75z"/></svg>