<svg  viewBox="0 0 512 512"  xmlns="http://www.w3.org/2000/svg"><path d="m492 512c-11.046875 0-20-8.953125-20-20v-472c0-11.046875 8.953125-20 20-20s20 8.953125 20 20v472c0 11.046875-8.953125 20-20 20zm-59-20v-391c0-11.046875-8.953125-20-20-20s-20 8.953125-20 20v391c0 11.046875 8.953125 20 20 20s20-8.953125 20-20zm-79 0v-311c0-11.046875-8.953125-20-20-20s-20 8.953125-20 20v311c0 11.046875 8.953125 20 20 20s20-8.953125 20-20zm-79 0v-231c0-11.046875-8.953125-20-20-20s-20 8.953125-20 20v231c0 11.046875 8.953125 20 20 20s20-8.953125 20-20zm-79 0v-151c0-11.046875-8.953125-20-20-20s-20 8.953125-20 20v151c0 11.046875 8.953125 20 20 20s20-8.953125 20-20zm-79 0v-81c0-11.046875-8.953125-20-20-20s-20 8.953125-20 20v81c0 11.046875 8.953125 20 20 20s20-8.953125 20-20zm-77 0c0-11.046875-8.953125-20-20-20s-20 8.953125-20 20 8.953125 20 20 20 20-8.953125 20-20zm0 0"/></svg>