<svg  viewBox="-1 0 512 512"  xmlns="http://www.w3.org/2000/svg"><path d="m126.886719 175.980469c-31.039063 15.390625-59.445313 36.519531-84.011719 62.878906l-13.628906 14.621094-29.246094-27.253907 13.628906-14.625c24.757813-26.5625 52.953125-48.433593 83.621094-65.257812zm369.734375 35.621093c-24.753906-26.5625-52.953125-48.4375-83.621094-65.257812l-29.636719 29.636719c31.039063 15.390625 59.445313 36.519531 84.011719 62.878906l13.628906 14.621094 29.246094-27.253907zm-305.210938-27.636718 63.714844-63.714844 63.714844 63.714844 28.269531-28.265625-63.714844-63.714844 63.714844-63.714844-28.269531-28.269531-63.714844 63.714844-63.714844-63.714844-28.269531 28.269531 63.714844 63.714844-63.714844 63.714844zm62.714844 264.070312c-17.664062 0-31.980469 14.320313-31.980469 31.984375 0 17.660157 14.316407 31.980469 31.980469 31.980469s31.984375-14.320312 31.984375-31.980469c0-17.664062-14.320313-31.984375-31.984375-31.984375zm.996094-229.871094c-63.429688 0-124.191406 25.976563-171.085938 73.140626l-14.09375 14.175781 28.347656 28.1875 14.09375-14.175781c39.339844-39.5625 90.03125-61.351563 142.738282-61.351563 52.699218 0 103.390625 21.789063 142.738281 61.355469l14.097656 14.171875 28.347657-28.191407-14.097657-14.171874c-46.910156-47.167969-107.667969-73.144532-171.085937-73.140626zm-.175782 111.9375c-.003906 0-.007812 0-.015624 0h-1.386719c-.007813 0-.007813 0-.015625 0-33 0-69.164063 15.644532-94.375 40.828126l-14.140625 14.125 28.253906 28.285156 14.140625-14.128906c17.71875-17.699219 43.671875-29.132813 66.125-29.132813h.007812 1.394532.011718c22.445313 0 48.402344 11.4375 66.117188 29.132813l14.140625 14.128906 28.253906-28.285156-14.140625-14.125c-25.210937-25.183594-61.371094-40.828126-94.371094-40.828126zm0 0"/></svg>