<?xml version="1.0" encoding="utf-8"?>
<!-- Generator: Adobe Illustrator 25.2.0, SVG Export Plug-In . SVG Version: 6.00 Build 0)  -->
<svg version="1.1" id="Layer_1" xmlns="http://www.w3.org/2000/svg" xmlns:xlink="http://www.w3.org/1999/xlink" x="0px" y="0px"
	 viewBox="0 0 527 179" style="enable-background:new 0 0 527 179;" xml:space="preserve">
<style type="text/css">
	.st0{fill-rule:evenodd;clip-rule:evenodd;fill:#FFFFFF;}
</style>
<polygon class="st0" points="94.54,114.54 94.65,40.13 119.27,40.01 119.38,139.13 76.51,139.13 25.06,64.33 24.95,138.86 
	0.22,139.13 0,40.13 0.33,40.01 43.2,40.01 "/>
<path class="st0" d="M395.75,40.13l0.22,99H369.7l-0.11-98.86l0.22-0.26C378.49,40.01,387.17,39.88,395.75,40.13L395.75,40.13z"/>
<polygon class="st0" points="278.01,87.88 278.12,88.01 281.31,84.9 323.41,40.13 358.37,40.13 310.22,88.14 310.33,88.65 
	364.53,138.86 326.38,139.13 278.23,88.4 278.01,88.79 278.01,139.13 251.74,139.13 251.74,40.13 278.01,40.13 "/>
<path class="st0" d="M210.73,38.96c10.88,0.52,22.65,1.42,28.47,14.11c1.32,3.49,1.98,7.24,1.87,11.51l-0.11,53.83
	c-0.33,7.25-4.62,13.59-9.89,17.08c-11.43,5.82-25.28,4.4-38.59,4.78c-15.72-0.26-31.88,0.91-46.5-2.2
	c-6.49-1.17-13.41-7.51-15.17-15.14l-0.88-6.21l0.22-57.06c0.22-7.25,5.61-13.59,10.77-16.83c8.47-4.14,18.7-3.63,28.48-4.14
	L210.73,38.96L210.73,38.96z M159.18,63.43c-2.2,0.52-4.95,1.55-5.28,4.52c0,14.75-0.33,29.76,0.22,44.39
	c0.77,2.46,3.08,2.2,4.73,2.84l47.49,0.13c4.07-0.39,8.91,0.78,11.1-4.01l0.11-41.79l-0.33-3.24c-0.66-1.94-2.31-2.2-3.74-2.72
	L159.18,63.43L159.18,63.43z"/>
<path class="st0" d="M527,138.73v0.4h-29.02c-2.64-5.7-5.28-11.13-7.7-16.83l-0.55-0.26h-51.56l-7.91,16.82l-29.35,0.27l46.28-99
	h33.97L527,138.73L527,138.73z M464.01,64.98l-16.16,35.33h32.32C474.79,88.53,469.39,76.63,464.01,64.98L464.01,64.98z"/>
</svg>
