<svg id="Capa_1" enable-background="new 0 0 512 512"  viewBox="0 0 512 512"  xmlns="http://www.w3.org/2000/svg"><g><path d="m496 242h-105v-55c0-8.284-6.716-15-15-15h-240c-8.284 0-15 6.716-15 15v55h-105c-8.284 0-15 6.716-15 15v240c0 8.284 6.716 15 15 15h480c8.284 0 15-6.716 15-15v-240c0-8.284-6.716-15-15-15zm-465 30h90v210h-90zm210 210h-30v-40h30zm30 0v-40h30v40zm90 0h-30v-55c0-8.284-6.716-15-15-15h-120c-8.284 0-15 6.716-15 15v55h-30v-280h210zm120 0h-90v-210h90z"/><path d="m181.754 60.697c19.796-19.796 46.163-30.697 74.246-30.697s54.45 10.901 74.246 30.697c2.929 2.93 6.768 4.394 10.606 4.394s7.678-1.465 10.606-4.394c5.858-5.857 5.858-15.355 0-21.213-25.46-25.462-59.361-39.484-95.458-39.484s-69.998 14.022-95.459 39.484c-5.858 5.857-5.858 15.355 0 21.213 5.857 5.858 15.355 5.858 21.213 0z"/><path d="m298.427 107.517c3.839 0 7.678-1.465 10.606-4.394 5.858-5.857 5.858-15.355 0-21.213-29.242-29.242-76.824-29.242-106.066 0-5.858 5.857-5.858 15.355 0 21.213 5.857 5.857 15.355 5.857 21.213 0 17.547-17.545 46.094-17.545 63.641 0 2.928 2.929 6.767 4.394 10.606 4.394z"/><circle cx="256" cy="134.943" r="15"/><circle cx="196" cy="367" r="15"/><circle cx="316" cy="367" r="15"/><circle cx="256" cy="367" r="15"/><circle cx="196" cy="307" r="15"/><circle cx="316" cy="307" r="15"/><circle cx="256" cy="307" r="15"/><circle cx="196" cy="247" r="15"/><circle cx="316" cy="247" r="15"/><circle cx="436" cy="437" r="15"/><circle cx="436" cy="377" r="15"/><circle cx="436" cy="317" r="15"/><circle cx="76" cy="437" r="15"/><circle cx="76" cy="377" r="15"/><circle cx="76" cy="317" r="15"/><circle cx="256" cy="247" r="15"/></g></svg>