<?xml version="1.0" encoding="UTF-8"?>
<svg xmlns="http://www.w3.org/2000/svg" viewBox="0 0 60 60" ><g id="spedometer"><path d="M55,6H5A3,3,0,0,0,2,9V51a3,3,0,0,0,3,3H55a3,3,0,0,0,3-3V9A3,3,0,0,0,55,6ZM5,8H55a1,1,0,0,1,1,1v5H4V9A1,1,0,0,1,5,8ZM55,52H5a1,1,0,0,1-1-1V16H56V51A1,1,0,0,1,55,52Z"/><circle cx="53" cy="11" r="1"/><circle cx="49" cy="11" r="1"/><circle cx="45" cy="11" r="1"/><path d="M50,42H49a18.9,18.9,0,0,0-5.47-12.37s0-.05,0-.07l-.07,0a19,19,0,0,0-26.74,0l-.07,0s0,.05,0,.07A18.9,18.9,0,0,0,11.05,42H10a1,1,0,0,0,0,2H26.14a4,4,0,0,0,7.72,0H50a1,1,0,0,0,0-2ZM32.51,39.91l2.7-2.7a1,1,0,0,0-1.42-1.42l-3.26,3.26A4.53,4.53,0,0,0,30,39a4,4,0,0,0-3.86,3H18.05A12,12,0,0,1,42,42H33.86A4,4,0,0,0,32.51,39.91Zm6.65-7.48A13.88,13.88,0,0,0,31,29.05v-3a16.92,16.92,0,0,1,10.27,4.26ZM29,29.05a13.88,13.88,0,0,0-8.16,3.38l-2.11-2.12A16.92,16.92,0,0,1,29,26.05Zm11.57,4.79,2.12-2.11A16.92,16.92,0,0,1,47,42H44A13.88,13.88,0,0,0,40.57,33.84ZM17.31,31.73l2.12,2.11A13.88,13.88,0,0,0,16.05,42h-3A16.92,16.92,0,0,1,17.31,31.73ZM30,45a2,2,0,1,1,2-2A2,2,0,0,1,30,45Z"/></g></svg>
