<svg id="Layer_1" data-name="Layer 1" xmlns="http://www.w3.org/2000/svg" viewBox="0 0 527 173"><defs><style>.cls-1{fill:#fff;fill-rule:evenodd;}</style></defs><path id="RichCall_Logo_White" data-name="RichCall Logo White" class="cls-1" d="M484.92,169.2H463.74V2.29h20.61l.57.38Zm42.08,0H505.24V46.77c0-6.85-.07-37.71,0-44.48h21.18c.2.12.39.25.58.38V169.2ZM216.12,3.05l20.9.38q.14,31.74.29,63.49l3.43-4.56c7.8-7.8,10.54-10,18-12.55,5.38-1.83,12.43-1.14,17.18.76,18.69,7.49,16.32,36.37,16.32,68.44v49.81c-3.54.09-16.89.17-20.9,0-.1-6.59.1-13.94,0-20.53,0-17.59,2.18-56.77-2-67.68a10.84,10.84,0,0,0-14.89-5.7L247,80.23c-3.62,3-7.53,6.55-10,11q-.15,38.77-.29,77.56l-20.89-.38v-119C215.84,40.91,216.12,11.19,216.12,3.05ZM108.49,5.71c4.35-.23,8.62,0,11.17,2.28,4.49,4.12,4.59,20.24,0,24.33C110.24,40.7,97,32.5,99.9,16c.56-3.14,1-4.83,2.58-7.23,2.67-2.15,2.67-2.54,6-3Zm227.29,6.84c5.65-.08,31.78-1.32,34.35,1.14Q364.7,30,359.26,46.39c-6.69,1.61-17.64-1-22.33,3.43-14.54,13.69-15,74.82-.29,89,4.74,4.55,17.68,1.67,24.33,3.05l9.45,33.45-38.07-.38c-8.63-3.21-16.39-17.19-20.33-27-16.76-41.77-7.41-114.26,18-133.45ZM23.18,168.82H.29Q.14,92.22,0,15.59c.1-.25.19-.5.29-.76C41.48,14.4,92,5.65,83.3,70.34c-1,7.13-2.19,14-4.58,19.39C75.63,96.49,71,101.8,65.55,104.94l-5.15,2.28,29.77,61.6c-6.25.1-20.82-.09-26.34,0-9.44-19.14-19.46-39.42-28.91-58.55-3.56-.11-9.16-.84-11.73.76v57.79Zm.29-127V83.27c16.94.4,33.83,3.58,36.36-16,.62-4.79.72-11.1-.58-15.59C55.57,39,36.78,41.54,23.47,41.83ZM174,48.67c19-.38,25.89,7.69,35.21,19.77-.09.63-.76.51-.86,1.14L192.93,83.65c-4.13-8.7-18.22-14-27.19-6.84-7.33,5.87-11.35,24.36-9.16,42.2,1.33,10.85,3.06,20.67,9.16,25.09,8.73,6.33,24.57,3.12,28-6.84,3.42,1.2,14.14,11.71,16.32,15.21-4.62,7.05-8.77,13.1-16,16.73-5.66,2.82-15.09,4.28-22.61,2.66-9.86-2.12-16.29-4-22.62-10.27-13.55-13.42-18.57-54.93-10.3-82.12,4.19-13.79,11.94-24.08,23.18-28.52,4.68-1.64,8.21-1.52,12.31-2.28ZM447.71,168.82H428V157.41l-5.72,5.7a37.41,37.41,0,0,1-14,8.37c-24.35,7.49-42.25-17.25-34.92-49,4.53-19.64,19.08-22.92,35.78-26.61l17.18-2.28c.12-6.56-.24-12.3-2.29-16-4.75-8.46-22-7.31-28.63-1.9-2.39,2-3.7,5.21-5.73,7.6l-16-13.69.29-1.14C381.2,45,429.2,41,441.41,62,450.71,77.93,447.84,139.25,447.71,168.82Zm-326-116.35q-.15,58.17-.29,116.35H101.05q-.15-58-.29-116l.29-.38Zm300.57,62.36c-11.56,5.78-23.75-2-27.77,15.59-.67,3-1,9.09,0,12.16,5.71,17.5,26.75-.69,31.78-5.7q-.15-11-.29-22Z" transform="translate(0 -2.29)"/></svg>