<?xml version="1.0" encoding="utf-8"?>
<!-- Generator: Adobe Illustrator 25.2.0, SVG Export Plug-In . SVG Version: 6.00 Build 0)  -->
<svg version="1.1" id="Layer_1" xmlns="http://www.w3.org/2000/svg" xmlns:xlink="http://www.w3.org/1999/xlink" x="0px" y="0px"
	 viewBox="0 0 781 179" style="enable-background:new 0 0 781 179;" xml:space="preserve">
<style type="text/css">
	.st0{fill-rule:evenodd;clip-rule:evenodd;fill:#FFFFFF;}
</style>
<path id="RichCall_Logo_White" class="st0" d="M718.55,160.33h-31.4V8h30.5l0.8,0.35v151.98H718.55z M780.95,160.33h-32.2V48.57
	c0-6.26-0.1-34.4,0-40.57h31.4c0.3,0.09,0.6,0.26,0.9,0.35v151.98H780.95z M320.25,8.71l31,0.35c0.1,19.32,0.3,38.63,0.4,57.95
	l5.1-4.15c11.6-7.14,15.6-9.09,26.7-11.47c8-1.68,18.4-1.06,25.5,0.71c27.7,6.79,24.2,33.16,24.2,62.45v45.43
	c-5.2,0.09-25,0.18-31,0c-0.1-6,0.1-12.7,0-18.7c0-16.05,3.2-51.78-3-61.74c-3.3-5.12-12.6-7.59-20.9-5.56
	c-0.4,0.09-0.8,0.18-1.2,0.35l-11,4.85c-5.4,2.73-11.2,6-14.8,10.06c-0.1,23.55-0.3,47.19-0.4,70.74l-31-0.35V50.96
	C319.85,43.28,320.25,16.11,320.25,8.71z M160.75,11.09c6.4-0.18,12.8,0,16.6,2.12c6.7,3.79,6.8,18.43,0,22.23
	c-14,7.67-33.6,0.18-29.3-14.91c0.8-2.82,1.5-4.41,3.8-6.62C155.75,11.97,155.75,11.62,160.75,11.09L160.75,11.09z M497.55,17.35
	c8.4-0.09,47.1-1.23,50.9,1.06c-5.4,9.88-10.7,19.85-16.1,29.81c-9.9,1.5-26.1-0.88-33.1,3.09c-21.5,12.53-22.2,68.27-0.4,81.24
	c7,4.15,26.2,1.5,36.1,2.82l14,30.52l-56.4-0.35c-12.8-2.91-24.3-15.7-30.1-24.61c-24.8-38.1-11-104.26,26.7-121.81L497.55,17.35z
	 M34.35,159.98h-34c-0.1-46.66-0.3-93.23-0.4-139.8c0.1-0.26,0.3-0.44,0.4-0.71c61-0.35,135.9-8.38,123,50.63
	c-1.5,6.53-3.2,12.79-6.8,17.73c-4.6,6.17-11.4,11.03-19.5,13.85l-7.6,2.12l44.1,56.19c-9.3,0.09-30.9-0.09-39,0
	c-14-17.46-28.8-35.99-42.8-53.45c-5.3-0.09-13.6-0.79-17.4,0.71L34.35,159.98L34.35,159.98z M34.75,44.08v37.84
	c25.1,0.35,50.1,3.26,53.9-14.64c0.9-4.41,1.1-10.14-0.9-14.2C82.35,41.52,54.45,43.81,34.75,44.08L34.75,44.08z M257.85,50.34
	c28.2-0.35,38.4,7.06,52.2,18.08c-0.1,0.62-1.1,0.44-1.3,1.06l-22.9,12.88c-6.1-7.94-27-12.79-40.3-6.26
	c-10.9,5.38-16.8,22.23-13.6,38.55c2,9.88,4.5,18.88,13.6,22.93c12.9,5.73,36.4,2.82,41.5-6.26c5.1,1.06,21,10.67,24.2,13.85
	c-6.8,6.44-13,12-23.7,15.26c-8.4,2.56-22.4,3.88-33.5,2.47c-14.6-1.94-24.1-3.62-33.5-9.35c-20.1-12.26-27.5-50.1-15.3-74.97
	c6.2-12.61,17.7-21.96,34.4-26.02C246.55,50.87,251.75,51.04,257.85,50.34L257.85,50.34z M663.45,159.98h-29.2v-10.41l-8.5,5.2
	c-5.9,3.44-13,6.09-20.7,7.67c-36.1,6.79-62.6-15.7-51.8-44.72c6.7-17.91,28.3-20.9,53-24.26l25.5-2.12c0.2-6-0.4-11.2-3.4-14.64
	c-7-7.76-32.6-6.7-42.4-1.76c-3.5,1.85-5.5,4.76-8.5,6.97l-23.7-12.53l0.4-1.06c10.7-21.43,81.9-25.05,100-5.91
	C667.85,76.98,663.65,132.99,663.45,159.98z M180.35,53.78c-0.1,35.37-0.3,70.74-0.4,106.2h-30.2c-0.1-35.28-0.3-70.56-0.4-105.85
	l0.4-0.35H180.35z M625.75,110.67c-17.1,5.29-35.2-1.85-41.2,14.2c-1,2.73-1.5,8.29,0,11.11c8.5,15.97,39.6-0.62,47.1-5.2
	c-0.1-6.7-0.3-13.41-0.4-20.11L625.75,110.67z"/>
</svg>
