<?xml version="1.0" encoding="utf-8"?>
<!-- Generator: Adobe Illustrator 25.2.0, SVG Export Plug-In . SVG Version: 6.00 Build 0)  -->
<svg version="1.1" id="Layer_1" xmlns="http://www.w3.org/2000/svg" xmlns:xlink="http://www.w3.org/1999/xlink" x="0px" y="0px"
	 viewBox="0 0 781 179" style="enable-background:new 0 0 781 179;" xml:space="preserve">
<style type="text/css">
	.st0{fill-rule:evenodd;clip-rule:evenodd;fill:#FFFFFF;}
</style>
<path id="RichCall_Logo_White" class="st0" d="M718.6,172.7h-31.4V0h30.5l0.8,0.4V172.7z M781,172.7h-32.2V46c0-7.1-0.1-39,0-46
	h31.4c0.3,0.1,0.6,0.3,0.9,0.4V172.7z M320.3,0.8l31,0.4c0.1,21.9,0.3,43.8,0.4,65.7l5.1-4.7c11.6-8.1,15.6-10.3,26.7-13
	c8-1.9,18.4-1.2,25.5,0.8c27.7,7.7,24.2,37.6,24.2,70.8v51.5c-5.2,0.1-25,0.2-31,0c-0.1-6.8,0.1-14.4,0-21.2c0-18.2,3.2-58.7-3-70
	c-3.3-5.8-12.6-8.6-20.9-6.3c-0.4,0.1-0.8,0.2-1.2,0.4l-11,5.5c-5.4,3.1-11.2,6.8-14.8,11.4c-0.1,26.7-0.3,53.5-0.4,80.2l-31-0.4
	V48.7C319.9,40,320.3,9.2,320.3,0.8z M160.8,3.5c6.4-0.2,12.8,0,16.6,2.4c6.7,4.3,6.8,20.9,0,25.2c-14,8.7-33.6,0.2-29.3-16.9
	c0.8-3.2,1.5-5,3.8-7.5C155.8,4.5,155.8,4.1,160.8,3.5L160.8,3.5z M497.6,10.6c8.4-0.1,47.1-1.4,50.9,1.2
	c-5.4,11.2-10.7,22.5-16.1,33.8c-9.9,1.7-26.1-1-33.1,3.5c-21.5,14.2-22.2,77.4-0.4,92.1c7,4.7,26.2,1.7,36.1,3.2l14,34.6l-56.4-0.4
	c-12.8-3.3-24.3-17.8-30.1-27.9c-24.8-43.2-11-118.2,26.7-138.1L497.6,10.6z M34.4,172.3H0.4C0.3,119.4,0.1,66.6,0,13.8
	c0.1-0.3,0.3-0.5,0.4-0.8c61-0.4,135.9-9.5,123,57.4c-1.5,7.4-3.2,14.5-6.8,20.1c-4.6,7-11.4,12.5-19.5,15.7l-7.6,2.4l44.1,63.7
	c-9.3,0.1-30.9-0.1-39,0c-14-19.8-28.8-40.8-42.8-60.6c-5.3-0.1-13.6-0.9-17.4,0.8L34.4,172.3L34.4,172.3z M34.8,40.9v42.9
	c25.1,0.4,50.1,3.7,53.9-16.6c0.9-5,1.1-11.5-0.9-16.1C82.4,38,54.5,40.6,34.8,40.9L34.8,40.9z M257.9,48c28.2-0.4,38.4,8,52.2,20.5
	c-0.1,0.7-1.1,0.5-1.3,1.2l-22.9,14.6c-6.1-9-27-14.5-40.3-7.1c-10.9,6.1-16.8,25.2-13.6,43.7c2,11.2,4.5,21.4,13.6,26
	c12.9,6.5,36.4,3.2,41.5-7.1c5.1,1.2,21,12.1,24.2,15.7c-6.8,7.3-13,13.6-23.7,17.3c-8.4,2.9-22.4,4.4-33.5,2.8
	c-14.6-2.2-24.1-4.1-33.5-10.6c-20.1-13.9-27.5-56.8-15.3-85c6.2-14.3,17.7-24.9,34.4-29.5C246.6,48.6,251.8,48.8,257.9,48L257.9,48
	z M663.5,172.3h-29.2v-11.8l-8.5,5.9c-5.9,3.9-13,6.9-20.7,8.7c-36.1,7.7-62.6-17.8-51.8-50.7c6.7-20.3,28.3-23.7,53-27.5l25.5-2.4
	c0.2-6.8-0.4-12.7-3.4-16.6c-7-8.8-32.6-7.6-42.4-2c-3.5,2.1-5.5,5.4-8.5,7.9l-23.7-14.2l0.4-1.2c10.7-24.3,81.9-28.4,100-6.7
	C667.9,78.2,663.7,141.7,663.5,172.3z M180.4,51.9c-0.1,40.1-0.3,80.2-0.4,120.4h-30.2c-0.1-40-0.3-80-0.4-120l0.4-0.4L180.4,51.9z
	 M625.8,116.4c-17.1,6-35.2-2.1-41.2,16.1c-1,3.1-1.5,9.4,0,12.6c8.5,18.1,39.6-0.7,47.1-5.9c-0.1-7.6-0.3-15.2-0.4-22.8
	L625.8,116.4z"/>
</svg>
