<?xml version="1.0" encoding="utf-8"?>
<!-- Generator: Adobe Illustrator 25.2.0, SVG Export Plug-In . SVG Version: 6.00 Build 0)  -->
<svg version="1.1" id="Layer_1" xmlns="http://www.w3.org/2000/svg" xmlns:xlink="http://www.w3.org/1999/xlink" x="0px" y="0px"
	 viewBox="0 0 779.6 179" style="enable-background:new 0 0 779.6 179;" xml:space="preserve">
<style type="text/css">
	.st0{fill:#FFFFFF;}
	.st1{fill-rule:evenodd;clip-rule:evenodd;fill:#FFFFFF;}
</style>
<path class="st0" d="M253.9,158.1"/>
<path class="st1" d="M35,94.9l-5.2,50.6H0L15.8,1.1h42.9c5.8,0.1,11.6,0.8,17.1,2.1c4.7,1.1,8.7,3.3,11.2,6.3
	c2.6,2.1,5.3,6.3,6.6,9.5c1.4,4.5,2.1,9.1,2,13.7c0.1,3.2-0.1,6.4-0.7,9.5c-0.4,7.5-2.4,14.9-5.9,22c-3.3,6.3-7.2,10.6-13.2,13.7
	c2,1.1,3.3,2.1,5.3,3.2c1.7,1.2,3,2.7,4,4.2c1.2,2,2.1,4.2,2.6,6.3c0.6,3.2,0.8,6.3,0.7,9.5c0,4.2,0,9.5-0.7,14.8
	c-0.7,5.3-1.3,9.5-1.3,12.7c-0.5,2.5-0.7,4.9-0.7,7.4c0,3.2,0.7,5.3,2,5.3l-0.7,4.2h-31V133c0-3.2,0.7-7.4,1.3-11.6
	c0.5-3.9,0.7-7.7,0.7-11.6c0-5.3-1.3-8.5-3.3-10.6c-1.3-3.2-5.3-4.2-10.6-4.2L35,94.9z M38.9,63.2h11.9c4,0.2,8-1,10.6-3.2
	c2.6-2.1,4-5.3,4.5-10.6v-3.2c0-4.2-0.7-7.4-2.6-8.5c-1.6-2-4.7-3.2-7.9-3.2H41.5L38.9,63.2z"/>
<path class="st1" d="M136.5,40.1h23.8l-2,16.9c3.9-6.3,7.2-11.6,11.2-14.8s7.9-5.3,13.2-5.3c7.2,0,12.5,3.2,16.5,8.5
	c3.3,5.3,5.3,13.7,5.3,24.2c0.1,4.2-0.1,8.5-0.7,12.7l-6.6,63.2h-26.4l5.9-55.9c0-2.1,0.7-5.3,0.7-7.4c-0.1-3.2-0.5-6.4-1.3-9.5
	c-1.3-2.1-3.3-3.2-5.9-3.2c-4,0-7.3,2.1-8.6,5.3c-2.2,5.2-3.6,10.5-4,15.9l-5.9,54.8h-26.4L136.5,40.1z"/>
<path class="st1" d="M229.5,148.6L229.5,148.6c-0.1,1.5,0.4,2.9,1.3,4.2c0.7,2.1,2.6,2.1,5.3,2.1c4,0,6.6-1.1,8.6-4.2
	c2-3.2,3.3-8.5,4-15.9l1.3-8.5c-2,3.2-4.6,5.3-7.9,8.5c-3.2,2.1-7.5,3.2-11.9,3.2c-4,0-7.8-1.2-10.6-3.2c-3.3-2.1-5.3-5.3-7.2-8.5
	s-3.3-7.4-4.5-12.7s-1.3-9.5-1.3-15.9v-5.3c-0.1-1.8,0.1-3.6,0.7-5.3c0.7-6.3,2-12.7,3.3-19c2-6.3,4-12.7,7.3-16.9
	c2.3-4.7,5.9-9,10.6-12.7c4-3.2,8.6-4.2,14.5-4.2c4.4-0.1,8.5,1.5,10.6,4.2c3.8,3.8,6.3,8.1,7.2,12.7l1.3-13.7h23.1l-9.2,85.4
	c-0.7,7.4-2,15.9-3.3,22.1c-1.2,6.1-3.2,12.1-5.9,18c-2.6,5.3-6.6,9.5-11.9,11.6c-5.3,3.2-11.2,4.2-19.8,4.2c-5,0-9.9-0.8-14.5-2.1
	c-3.6-1.9-6.9-4-9.9-6.3c-2.6-2.9-4.4-6.1-5.3-9.5c-1.3-3.4-2-7-2-10.6v-1.1h26.4L229.5,148.6z M245.4,64.3c-2,0-3.3,1.1-5.3,2.1
	c-1.6,1.6-3,3.4-4,5.3c-1.4,2.4-2.3,4.9-2.6,7.4c-0.8,3.1-1.2,6.3-1.3,9.5v5.3c-0.1,3.6,0.6,7.1,2,10.6c0.7,2.4,3.2,4.4,6.6,5.3h0.7
	c2,0,3.3-1.1,5.3-2.1c1.6-1.6,3-3.4,3.9-5.3c1.4-2.4,2.3-4.9,2.6-7.4c0.8-2.8,1.3-5.6,1.3-8.5c0-2.1,0.7-4.2,0.7-6.3
	c0.1-3.9-0.6-7.8-2-11.6C251.3,66.4,248.8,64.3,245.4,64.3z"/>
<path class="st1" d="M346.3,56.9v-2.1c0-6.3-1.3-11.6-3.3-14.8c-2-3.2-5.3-5.3-9.9-5.3c-5.3,0-9.2,3.2-12.5,9.5s-5.9,16.9-7.2,29.5
	c0,2.1-0.7,5.3-0.7,7.4v6.3c-0.1,3.2,0.1,6.4,0.7,9.5c0.7,3.2,1.3,5.3,2,7.4c1,1.9,2.3,3.6,3.9,5.3c2,1.1,4,2.1,6.6,2.1
	c4.5,0,7.9-2.1,11.2-6.3c2.6-4.2,4.6-9.5,5.9-16.9h27c-1.4,8.2-3.6,16.3-6.6,24.2c-2.7,6.2-6.2,12.2-10.6,18
	c-3.4,4.5-8.1,8.5-13.9,11.6c-5.3,2.1-10.6,4.2-15.8,4.2c-5.9,0-11.9-1.1-16.5-4.2c-4.5-2.1-8.6-6.3-11.9-10.6
	c-3.7-5.7-6.2-11.8-7.2-18c-1.9-7.7-2.8-15.4-2.6-23.2v-8.5c0-3.2,0.7-5.3,0.7-8.5c1.3-10.6,3.3-21.1,6.6-29.5
	c3.3-8.4,7.2-16.9,11.9-23.2s9.9-10.6,15.1-14.8c5.9-3.2,11.2-5.3,17.2-5.3c12.5,0,21.8,4.2,27.7,12.7c5.9,8.5,9.2,21.1,9.2,36.9
	v6.3L346.3,56.9z"/>
<path class="st1" d="M400.4,99.1v4.2c-0.2,4.3,1,8.7,3.3,12.7c2,3.2,4.5,4.2,7.9,4.2c2,0,3.9-1.1,5.9-2.1s3.3-4.2,4.6-7.4h25.1
	c-1.6,5.8-4,11.4-7.3,16.9c-3.3,4.2-6.6,8.5-9.9,10.6c-3.3,3.2-7.2,4.2-11.2,6.3c-3.9,1.1-7.9,2.1-11.9,2.1c-4.8,0-9.4-1.1-13.2-3.2
	c-4.4-2.1-7.8-5-9.9-8.5c-3-4.4-5.2-9-6.6-13.7c-1.7-6.3-2.6-12.6-2.6-19v-5.3c-0.1-1.8,0.1-3.6,0.7-5.3c0.5-7.8,2.3-15.6,5.3-23.2
	c2.2-6.3,5.5-12.3,9.9-18c3.9-5.3,8.6-8.5,13.2-11.6c4-2.8,9.5-4.3,15.1-4.2c5-0.1,9.9,1.1,13.9,3.2c3.9,2.1,7.2,5.3,10.6,10.6
	c2.9,5.1,5.1,10.4,6.6,15.9c1.4,6.7,2,13.4,2,20.1c0,4.2-0.7,9.5-1.3,15.9h-50.1V99.1z M426.1,78v-3.2c0-4.2-0.7-8.5-2.6-10.6
	c-2-3.2-3.9-4.2-7.2-4.2c-4,0-7.3,2.1-9.9,5.3s-4,7.4-4.5,13.7h24.3V78z"/>
<path class="st1" d="M459.7,40.1h23.8l-2,16.9c3.9-6.3,7.2-11.6,11.2-14.8s7.9-5.3,13.2-5.3c7.2,0,12.5,3.2,16.5,8.5
	c3.3,5.3,5.3,13.7,5.3,24.2c0.1,4.2-0.1,8.5-0.7,12.7l-6.6,63.2H494l5.9-55.9c0-2.1,0.7-5.3,0.7-7.4c-0.1-3.2-0.5-6.4-1.3-9.5
	c-1.3-2.1-3.3-3.2-5.9-3.2c-4,0-7.3,2.1-8.6,5.3c-2.2,5.2-3.6,10.5-4,15.9l-5.9,54.8h-26.4L459.7,40.1z"/>
<path class="st1" d="M569.2,145.4c-2.6,0-5.9,0-7.9,1.1h-6.6c-4,0-7.3,0-9.9-1.1c-2.3-0.9-4.5-2-6.6-3.2c-1.3-1.1-2.6-3.2-3.3-6.3
	c-0.9-3.1-1.4-6.3-1.3-9.5V118c0-3.2,0.7-6.3,0.7-9.5l4.5-45.3h-9.2l2.6-24.2h9.9l4-32.5h25.7l-4,32.7h12.6l-2.6,24.2h-12.5l-4,39
	c0.1,1.1-0.1,2.2-0.7,3.2v3.2c0,1.8,0.4,3.6,1.3,5.3c1.3,1.4,3.6,2.2,5.9,2.1h4L569.2,145.4z"/>
<path class="st1" d="M585.7,40.1h23.8l-2,21.1l0,0c5.3-15.9,13.2-24.2,23.1-24.2h3.9l-4.6,42.2c-0.7,0-2-1.1-2.6-1.1h-2.6
	c-5.3,0-9.9,2.1-12.5,7.4c-3.3,4.2-5.3,12.7-6.6,24.2l-4,36.9h-26.4L585.7,40.1z"/>
<path class="st1" d="M669.5,146.5v-14.8c-4,5.3-8.6,9.5-12.5,11.6c-4,2.1-8.8,3.2-13.8,3.2c-2.7,0.2-5.5-0.2-7.9-1.1
	c-3.1-1.1-5.4-3-6.6-5.3c-2-2.1-3.3-5.3-4.6-8.5c-1.3-3.2-1.3-7.4-1.3-11.6c-0.1-2.1,0.1-4.3,0.7-6.3c0.3-6.5,2.1-12.9,5.3-19
	c2.5-3.9,5.8-7.4,9.9-10.6c3.9-2.1,7.9-4.2,11.9-5.3c3.9-1.1,7.9-2.1,11.9-2.1c3.3-1.1,6.6-2.1,9.2-3.2c2.6-1.1,3.9-3.2,3.9-7.4
	v-2.1c0-2.1,0-3.2-0.7-4.2s-1.3-2.1-2-2.1s-1.3-1.1-2.6-1.1h-4.5c-1.3,0-2,1.1-2.6,1.1c-0.7,1.1-2,2.1-2.6,3.2
	c-0.8,1.7-1.5,3.5-2,5.3h-25.1c0.7-5,1.8-9.9,3.3-14.8c2-4.2,4-8.5,7.2-11.6c3.3-3,7.3-5.5,11.9-7.4c4.6-2.1,10.6-2.1,17.2-2.1
	c5,0.1,9.9,0.8,14.5,2.1c3.9,1.1,6.6,3.2,9.2,5.3c2.3,2.6,3.9,5.4,4.5,8.5c0.8,3.8,1.3,7.7,1.3,11.6v7.4c0,3.2-0.7,5.3-0.7,8.5
	l-5.3,49.5c0,2.1-0.7,4.2-0.7,5.3c-0.1,1.4,0.1,2.9,0.7,4.2c0.7,1.1,0.7,2.1,2,4.2v5.3h-28.9V146.5z M657,122.3c2,0,4-1.1,5.9-2.1
	s3.3-3.2,4.6-5.3c1.4-2.7,2.2-5.6,2.6-8.5c0.8-3.5,1.3-7,1.3-10.6c-2.6,2.1-4.6,3.2-7.3,3.2c-2.6,1.1-4.6,1.1-6.6,2.1
	c-2.3,1-4.1,2.5-5.3,4.2c-1.7,2.3-2.6,4.8-2.6,7.4v1.1c0,2.1,0.7,4.2,2,5.3C653.1,121.2,655,122.3,657,122.3z"/>
<polygon class="st1" points="701.2,145.5 717,1.1 743.4,1.1 727.5,145.5 "/>
<polygon class="st1" points="91.7,145.5 106.2,60.1 125.3,60.1 117.4,145.5 "/>
<path class="st1" d="M134.6,22.1L134.6,22.1c-0.3-1.6-1.2-3-2.6-4.2c-2-2.1-4.6-5.3-9.9-7.4c-2.6-1.1-4.6-1.1-5.9,0
	c-3.1,0.9-5.8,2.4-7.9,4.2h-0.7c-1.3,2.1-3.3,2.1-4.5,0c-1.3-2.4-1.3-5,0-7.4c0,0,3.9-6.2,11.8-7.3c2.7-0.2,5.5,0.2,7.9,1.1
	c11.9,3.2,16.5,15.9,16.5,16.9l0,0c0.7,2.1,0,5.3-1.3,6.3h-1.3C135.7,23.7,135.1,22.9,134.6,22.1z"/>
<path class="st1" d="M127.3,32.7L127.3,32.7l-1.3-2.1c-1.2-1.7-3-3.2-5.3-4.2h-3.2c-2.6,0-4,2.1-4,2.1l0,0c-1.3,2.1-2.6,2.1-3.9,0
	c-1.3-2-1.3-4.3,0-6.3c0,0,2.6-4.2,7.2-5.3h4.6c7.2,2.1,9.9,9.5,10.6,10.6c0.7,1.8,0.2,3.7-1.3,5.3h-0.7
	C128.6,35.8,127.3,34.8,127.3,32.7z"/>
<path class="st1" d="M124.7,43.2c0,5.3-3.3,9.5-6.6,9.5c-4,0-6.6-4.2-6.6-9.5s3.3-9.5,6.6-9.5C122,33.7,124.7,37.9,124.7,43.2"/>
<path class="st0" d="M750.6,16.9c0.6-2.6,1.7-5.1,3.3-7.4c1.3-2.1,2.6-4.2,4.6-5.3c2-1.1,4-2.1,5.9-2.1s3.9,1.1,5.9,2.1
	s3.3,3.2,4.6,5.3c1.6,2.3,2.7,4.8,3.3,7.4c0.8,3.1,1.2,6.3,1.3,9.5c-0.1,3.2-0.5,6.4-1.3,9.5c-0.6,2.6-1.7,5.1-3.3,7.4
	c-1.3,2.1-2.6,4.2-4.6,5.3c-2,1.1-4,2.1-5.9,2.1s-4-1.1-5.9-2.1c-2-1.1-3.3-3.2-4.6-5.3c-1.6-2.3-2.7-4.8-3.3-7.4
	c-0.8-3.1-1.2-6.3-1.3-9.5C749.3,23.2,749.8,20,750.6,16.9z M752.6,33.8c0.6,2.2,1.4,4.3,2.6,6.3c1,1.6,2.3,3,4,4.2
	c1.2,0.8,2.9,1.2,4.6,1.1c2,0,3.3,0,4.5-1.1c1.7-1.2,3-2.7,4-4.2c1.2-2,2.1-4.2,2.6-6.3c0.6-2.8,0.8-5.6,0.7-8.5
	c0.2-2.5-0.1-5-0.7-7.4c-0.6-2.2-1.5-4.3-2.6-6.3c-1-1.6-2.3-3-4-4.2c-1.2-0.8-2.9-1.2-4.5-1.1c-2,0-3.3,0-4.6,1.1
	c-1.7,1.2-3,2.7-4,4.2c-1.2,2-2.1,4.2-2.6,6.3c-0.6,2.8-0.8,5.6-0.7,8.5C751.8,28.8,752.1,31.3,752.6,33.8L752.6,33.8z M765.1,12.6
	c2,0,3.3,1.1,4.6,2.1c1,2,1.5,4.2,1.3,6.3c0,1.8-0.4,3.6-1.3,5.3c-0.7,1.1-2,2.1-3.3,2.1l4.6,12.7h-2.6l-4.5-11.6h-2.6v11.6h-2.7
	V12.6L765.1,12.6z M763.8,24.3h2c0.7,0,1.3,0,1.3-1.1c0.7,0,0.7-1.1,1.3-1.1c0-1.1,0.7-1.1,0.7-2.1c0-1.1,0-2.1-0.7-2.1
	c0-1.1-0.7-1.1-0.7-1.1c-0.7,0-0.7,0-1.3-1.1h-4.5v8.5H763.8z"/>
</svg>
