<?xml version="1.0" encoding="utf-8"?>
<!-- Generator: Adobe Illustrator 25.2.0, SVG Export Plug-In . SVG Version: 6.00 Build 0)  -->
<svg version="1.1" id="Layer_1" xmlns="http://www.w3.org/2000/svg" xmlns:xlink="http://www.w3.org/1999/xlink" x="0px" y="0px"
	 viewBox="0 0 793.64 179" style="enable-background:new 0 0 793.64 179;" xml:space="preserve">
<style type="text/css">
	.st0{fill:#FFFFFF;}
	.st1{fill-rule:evenodd;clip-rule:evenodd;fill:#FFFFFF;}
</style>
<path class="st0" d="M261.18,156.13"/>
<path class="st1" d="M39.42,93.37l-5.27,50.25H3.96L19.97,0.21h43.46c5.88,0.1,11.75,0.79,17.32,2.09
	c4.76,1.09,8.81,3.28,11.35,6.26c2.63,2.09,5.37,6.26,6.69,9.43c1.42,4.47,2.13,9.04,2.03,13.61c0.1,3.18-0.1,6.36-0.71,9.43
	c-0.41,7.45-2.43,14.8-5.98,21.85c-3.34,6.26-7.29,10.53-13.37,13.61c2.03,1.09,3.34,2.09,5.37,3.18c1.72,1.19,3.04,2.68,4.05,4.17
	c1.22,1.99,2.13,4.17,2.63,6.26c0.61,3.18,0.81,6.26,0.71,9.43c0,4.17,0,9.43-0.71,14.7c-0.71,5.26-1.32,9.43-1.32,12.61
	c-0.51,2.48-0.71,4.87-0.71,7.35c0,3.18,0.71,5.26,2.03,5.26l-0.71,4.17h-31.4v-12.41c0-3.18,0.71-7.35,1.32-11.52
	c0.51-3.87,0.71-7.65,0.71-11.52c0-5.26-1.32-8.44-3.34-10.53c-1.32-3.18-5.37-4.17-10.74-4.17L39.42,93.37z M43.37,61.89h12.06
	c4.05,0.2,8.1-0.99,10.74-3.18c2.63-2.09,4.05-5.26,4.56-10.53V45c0-4.17-0.71-7.35-2.63-8.44c-1.62-1.99-4.76-3.18-8-3.18H46.01
	L43.37,61.89z"/>
<path class="st1" d="M142.25,38.95h24.11l-2.03,16.78c3.95-6.26,7.29-11.52,11.35-14.7c4.05-3.18,8-5.26,13.37-5.26
	c7.29,0,12.66,3.18,16.72,8.44c3.34,5.26,5.37,13.61,5.37,24.03c0.1,4.17-0.1,8.44-0.71,12.61l-6.69,62.77h-26.74l5.98-55.52
	c0-2.09,0.71-5.26,0.71-7.35c-0.1-3.18-0.51-6.36-1.32-9.43c-1.32-2.09-3.34-3.18-5.98-3.18c-4.05,0-7.4,2.09-8.71,5.26
	c-2.23,5.16-3.65,10.43-4.05,15.79l-5.98,54.42H130.9L142.25,38.95z"/>
<path class="st1" d="M236.46,146.7L236.46,146.7c-0.1,1.49,0.41,2.88,1.32,4.17c0.71,2.09,2.63,2.09,5.37,2.09
	c4.05,0,6.69-1.09,8.71-4.17c2.03-3.18,3.34-8.44,4.05-15.79l1.32-8.44c-2.03,3.18-4.66,5.26-8,8.44c-3.24,2.09-7.6,3.18-12.06,3.18
	c-4.05,0-7.9-1.19-10.74-3.18c-3.34-2.09-5.37-5.26-7.29-8.44s-3.34-7.35-4.56-12.61s-1.32-9.43-1.32-15.79v-5.26
	c-0.1-1.79,0.1-3.58,0.71-5.26c0.71-6.26,2.03-12.61,3.34-18.87c2.03-6.26,4.05-12.61,7.4-16.78c2.33-4.67,5.98-8.94,10.74-12.61
	c4.05-3.18,8.71-4.17,14.69-4.17c4.46-0.1,8.61,1.49,10.74,4.17c3.85,3.77,6.38,8.04,7.29,12.61l1.32-13.61h23.4l-9.32,84.81
	c-0.71,7.35-2.03,15.79-3.34,21.95c-1.22,6.06-3.24,12.02-5.98,17.88c-2.63,5.26-6.69,9.43-12.06,11.52
	c-5.37,3.18-11.35,4.17-20.06,4.17c-5.07,0-10.03-0.79-14.69-2.09c-3.65-1.89-6.99-3.97-10.03-6.26c-2.63-2.88-4.46-6.06-5.37-9.43
	c-1.32-3.38-2.03-6.95-2.03-10.53v-1.09h26.74L236.46,146.7z M252.57,62.98c-2.03,0-3.34,1.09-5.37,2.09
	c-1.62,1.59-3.04,3.38-4.05,5.26c-1.42,2.38-2.33,4.87-2.63,7.35c-0.81,3.08-1.22,6.26-1.32,9.43v5.26
	c-0.1,3.58,0.61,7.05,2.03,10.53c0.71,2.38,3.24,4.37,6.69,5.26h0.71c2.03,0,3.34-1.09,5.37-2.09c1.62-1.59,3.04-3.38,3.95-5.26
	c1.42-2.38,2.33-4.87,2.63-7.35c0.81-2.78,1.32-5.56,1.32-8.44c0-2.09,0.71-4.17,0.71-6.26c0.1-3.87-0.61-7.75-2.03-11.52
	C258.54,65.06,256.01,62.98,252.57,62.98z"/>
<path class="st1" d="M354.78,55.63v-2.09c0-6.26-1.32-11.52-3.34-14.7c-2.03-3.18-5.37-5.26-10.03-5.26
	c-5.37,0-9.32,3.18-12.66,9.43s-5.98,16.78-7.29,29.3c0,2.09-0.71,5.26-0.71,7.35v6.26c-0.1,3.18,0.1,6.36,0.71,9.43
	c0.71,3.18,1.32,5.26,2.03,7.35c1.01,1.89,2.33,3.58,3.95,5.26c2.03,1.09,4.05,2.09,6.69,2.09c4.56,0,8-2.09,11.35-6.26
	c2.63-4.17,4.66-9.43,5.98-16.78h27.35c-1.42,8.14-3.65,16.19-6.69,24.03c-2.74,6.16-6.28,12.12-10.74,17.88
	c-3.44,4.47-8.21,8.44-14.08,11.52c-5.37,2.09-10.74,4.17-16.01,4.17c-5.98,0-12.06-1.09-16.72-4.17
	c-4.56-2.09-8.71-6.26-12.06-10.53c-3.75-5.66-6.28-11.72-7.29-17.88c-1.92-7.65-2.84-15.29-2.63-23.04v-8.44
	c0-3.18,0.71-5.26,0.71-8.44c1.32-10.53,3.34-20.95,6.69-29.3c3.34-8.34,7.29-16.78,12.06-23.04s10.03-10.53,15.3-14.7
	c5.98-3.18,11.35-5.26,17.42-5.26c12.66,0,22.08,4.17,28.06,12.61c5.98,8.44,9.32,20.95,9.32,36.65v6.26L354.78,55.63z"/>
<path class="st1" d="M409.59,97.54v4.17c-0.2,4.27,1.01,8.64,3.34,12.61c2.03,3.18,4.56,4.17,8,4.17c2.03,0,3.95-1.09,5.98-2.09
	c2.03-0.99,3.34-4.17,4.66-7.35H457c-1.62,5.76-4.05,11.32-7.4,16.78c-3.34,4.17-6.69,8.44-10.03,10.53
	c-3.34,3.18-7.29,4.17-11.35,6.26c-3.95,1.09-8,2.09-12.06,2.09c-4.86,0-9.52-1.09-13.37-3.18c-4.46-2.09-7.9-4.97-10.03-8.44
	c-3.04-4.37-5.27-8.94-6.69-13.61c-1.72-6.26-2.63-12.51-2.63-18.87v-5.26c-0.1-1.79,0.1-3.58,0.71-5.26
	c0.51-7.75,2.33-15.49,5.37-23.04c2.23-6.26,5.57-12.22,10.03-17.88c3.95-5.26,8.71-8.44,13.37-11.52c4.05-2.78,9.62-4.27,15.3-4.17
	c5.07-0.1,10.03,1.09,14.08,3.18c3.95,2.09,7.29,5.26,10.74,10.53c2.94,5.06,5.17,10.33,6.69,15.79c1.42,6.65,2.03,13.31,2.03,19.96
	c0,4.17-0.71,9.43-1.32,15.79h-50.75v-1.19H409.59z M435.62,76.58v-3.18c0-4.17-0.71-8.44-2.63-10.53
	c-2.03-3.18-3.95-4.17-7.29-4.17c-4.05,0-7.4,2.09-10.03,5.26c-2.63,3.18-4.05,7.35-4.56,13.61h24.62v-0.99H435.62z"/>
<path class="st1" d="M469.66,38.95h24.11l-2.03,16.78c3.95-6.26,7.29-11.52,11.35-14.7c4.05-3.18,8-5.26,13.37-5.26
	c7.29,0,12.66,3.18,16.72,8.44c3.34,5.26,5.37,13.61,5.37,24.03c0.1,4.17-0.1,8.44-0.71,12.61l-6.69,62.77h-26.74l5.98-55.52
	c0-2.09,0.71-5.26,0.71-7.35c-0.1-3.18-0.51-6.36-1.32-9.43c-1.32-2.09-3.34-3.18-5.98-3.18c-4.05,0-7.4,2.09-8.71,5.26
	c-2.23,5.16-3.65,10.43-4.05,15.79l-5.98,54.42h-26.74L469.66,38.95z"/>
<path class="st1" d="M580.59,143.52c-2.63,0-5.98,0-8,1.09h-6.69c-4.05,0-7.4,0-10.03-1.09c-2.33-0.89-4.56-1.99-6.69-3.18
	c-1.32-1.09-2.63-3.18-3.34-6.26c-0.91-3.08-1.42-6.26-1.32-9.43v-8.34c0-3.18,0.71-6.26,0.71-9.43l4.56-44.99h-9.32l2.63-24.03
	h10.03l4.05-32.28h26.04l-4.05,32.48h12.76l-2.63,24.03h-12.66l-4.05,38.73c0.1,1.09-0.1,2.18-0.71,3.18v3.18
	c0,1.79,0.41,3.58,1.32,5.26c1.32,1.39,3.65,2.18,5.98,2.09h4.05L580.59,143.52z"/>
<path class="st1" d="M597.31,38.95h24.11l-2.03,20.95l0,0c5.37-15.79,13.37-24.03,23.4-24.03h3.95l-4.66,41.91
	c-0.71,0-2.03-1.09-2.63-1.09h-2.63c-5.37,0-10.03,2.09-12.66,7.35c-3.34,4.17-5.37,12.61-6.69,24.03l-4.05,36.65h-26.74
	L597.31,38.95z"/>
<path class="st1" d="M682.2,144.61v-14.7c-4.05,5.26-8.71,9.43-12.66,11.52c-4.05,2.09-8.91,3.18-13.98,3.18
	c-2.74,0.2-5.57-0.2-8-1.09c-3.14-1.09-5.47-2.98-6.69-5.26c-2.03-2.09-3.34-5.26-4.66-8.44c-1.32-3.18-1.32-7.35-1.32-11.52
	c-0.1-2.09,0.1-4.27,0.71-6.26c0.3-6.46,2.13-12.81,5.37-18.87c2.53-3.87,5.88-7.35,10.03-10.53c3.95-2.09,8-4.17,12.06-5.26
	c3.95-1.09,8-2.09,12.06-2.09c3.34-1.09,6.69-2.09,9.32-3.18s3.95-3.18,3.95-7.35v-2.09c0-2.09,0-3.18-0.71-4.17
	c-0.71-0.99-1.32-2.09-2.03-2.09s-1.32-1.09-2.63-1.09h-4.56c-1.32,0-2.03,1.09-2.63,1.09c-0.71,1.09-2.03,2.09-2.63,3.18
	c-0.81,1.69-1.52,3.48-2.03,5.26h-25.43c0.71-4.97,1.82-9.83,3.34-14.7c2.03-4.17,4.05-8.44,7.29-11.52
	c3.34-2.98,7.4-5.46,12.06-7.35c4.66-2.09,10.74-2.09,17.42-2.09c5.07,0.1,10.03,0.79,14.69,2.09c3.95,1.09,6.69,3.18,9.32,5.26
	c2.33,2.58,3.95,5.36,4.56,8.44c0.81,3.77,1.32,7.65,1.32,11.52v7.35c0,3.18-0.71,5.26-0.71,8.44l-5.37,49.16
	c0,2.09-0.71,4.17-0.71,5.26c-0.1,1.39,0.1,2.88,0.71,4.17c0.71,1.09,0.71,2.09,2.03,4.17v5.26H682.4v4.27H682.2z M669.54,120.58
	c2.03,0,4.05-1.09,5.98-2.09c1.92-0.99,3.34-3.18,4.66-5.26c1.42-2.68,2.23-5.56,2.63-8.44c0.81-3.48,1.32-6.95,1.32-10.53
	c-2.63,2.09-4.66,3.18-7.4,3.18c-2.63,1.09-4.66,1.09-6.69,2.09c-2.33,0.99-4.15,2.48-5.37,4.17c-1.72,2.28-2.63,4.77-2.63,7.35
	v1.09c0,2.09,0.71,4.17,2.03,5.26C665.59,119.49,667.51,120.58,669.54,120.58z"/>
<polygon class="st1" points="714.31,143.62 730.32,0.21 757.07,0.21 740.96,143.62 "/>
<polygon class="st1" points="96.86,143.62 111.55,58.81 130.9,58.81 122.9,143.62 "/>
<path class="st1" d="M140.32,21.07L140.32,21.07c-0.3-1.59-1.22-2.98-2.63-4.17c-2.03-2.09-4.66-5.26-10.03-7.35
	c-2.63-1.09-4.66-1.09-5.98,0c-3.14,0.89-5.88,2.38-8,4.17h-0.71c-1.32,2.09-3.34,2.09-4.56,0c-1.32-2.38-1.32-4.97,0-7.35
	c0,0,3.95-6.16,11.95-7.25c2.74-0.2,5.57,0.2,8,1.09C140.42,3.39,145.08,16,145.08,17l0,0c0.71,2.09,0,5.26-1.32,6.26h-1.32
	C141.43,22.66,140.83,21.86,140.32,21.07z"/>
<path class="st1" d="M132.92,31.6L132.92,31.6l-1.32-2.09c-1.22-1.69-3.04-3.18-5.37-4.17H123c-2.63,0-4.05,2.09-4.05,2.09l0,0
	c-1.32,2.09-2.63,2.09-3.95,0c-1.32-1.99-1.32-4.27,0-6.26c0,0,2.63-4.17,7.29-5.26h4.66c7.29,2.09,10.03,9.43,10.74,10.53
	c0.71,1.79,0.2,3.67-1.32,5.26h-0.71C134.24,34.67,132.92,33.68,132.92,31.6z"/>
<path class="st1" d="M130.29,42.02c0,5.26-3.34,9.43-6.69,9.43c-4.05,0-6.69-4.17-6.69-9.43s3.34-9.43,6.69-9.43
	C127.56,32.59,130.29,36.76,130.29,42.02"/>
<path class="st0" d="M764.36,15.9c0.61-2.58,1.72-5.06,3.34-7.35c1.32-2.09,2.63-4.17,4.66-5.26c2.03-1.09,4.05-2.09,5.98-2.09
	c1.92,0,3.95,1.09,5.98,2.09c2.03,0.99,3.34,3.18,4.66,5.26c1.62,2.28,2.74,4.77,3.34,7.35c0.81,3.08,1.22,6.26,1.32,9.43
	c-0.1,3.18-0.51,6.36-1.32,9.43c-0.61,2.58-1.72,5.06-3.34,7.35c-1.32,2.09-2.63,4.17-4.66,5.26c-2.03,1.09-4.05,2.09-5.98,2.09
	c-1.92,0-4.05-1.09-5.98-2.09c-2.03-1.09-3.34-3.18-4.66-5.26c-1.62-2.28-2.74-4.77-3.34-7.35c-0.81-3.08-1.22-6.26-1.32-9.43
	C763.04,22.16,763.55,18.98,764.36,15.9z M766.39,32.69c0.61,2.18,1.42,4.27,2.63,6.26c1.01,1.59,2.33,2.98,4.05,4.17
	c1.22,0.79,2.94,1.19,4.66,1.09c2.03,0,3.34,0,4.56-1.09c1.72-1.19,3.04-2.68,4.05-4.17c1.22-1.99,2.13-4.17,2.63-6.26
	c0.61-2.78,0.81-5.56,0.71-8.44c0.2-2.48-0.1-4.97-0.71-7.35c-0.61-2.18-1.52-4.27-2.63-6.26c-1.01-1.59-2.33-2.98-4.05-4.17
	c-1.22-0.79-2.94-1.19-4.56-1.09c-2.03,0-3.34,0-4.66,1.09c-1.72,1.19-3.04,2.68-4.05,4.17c-1.22,1.99-2.13,4.17-2.63,6.26
	c-0.61,2.78-0.81,5.56-0.71,8.44C765.57,27.72,765.88,30.21,766.39,32.69L766.39,32.69z M779.05,11.63c2.03,0,3.34,1.09,4.66,2.09
	c1.01,1.99,1.52,4.17,1.32,6.26c0,1.79-0.41,3.58-1.32,5.26c-0.71,1.09-2.03,2.09-3.34,2.09l4.66,12.61h-2.63l-4.56-11.52h-2.63
	v11.52h-2.74v-28.3H779.05z M777.73,23.25h2.03c0.71,0,1.32,0,1.32-1.09c0.71,0,0.71-1.09,1.32-1.09c0-1.09,0.71-1.09,0.71-2.09
	c0-1.09,0-2.09-0.71-2.09c0-1.09-0.71-1.09-0.71-1.09c-0.71,0-0.71,0-1.32-1.09h-4.56v8.44h1.92V23.25z"/>
</svg>
