<svg id="Layer_1" data-name="Layer 1" xmlns="http://www.w3.org/2000/svg" viewBox="0 0 515.3 169.53"><defs><style>.cls-1,.cls-2{fill:#fff;}.cls-2{fill-rule:evenodd;}</style></defs><path class="cls-1" d="M176.19,157.55" transform="translate(-8.35 -7.97)"/><path class="cls-2" d="M31.45,97.72,28,145.58H8.35L18.81,9H47.15a36.43,36.43,0,0,1,11.33,2,13.21,13.21,0,0,1,7.42,6c1.74,2,3.48,6,4.35,9a58,58,0,0,1,1.31,13,62.88,62.88,0,0,1-.43,9A73.06,73.06,0,0,1,67.2,68.8c-2.18,6-4.79,10-8.72,13,1.31,1,2.18,2,3.49,3a13.85,13.85,0,0,1,2.62,4,30.77,30.77,0,0,1,1.74,6,54.77,54.77,0,0,1,.44,9c0,4,0,9-.44,14s-.87,9-.87,12a49.58,49.58,0,0,0-.44,7c0,3,.44,5,1.31,5l-.43,4H45.41v-12c0-3,.43-7,.87-11a102.46,102.46,0,0,0,.43-11c0-5-.87-8-2.18-10-.87-3-3.48-4-7-4ZM34.07,67.8h7.85a8.6,8.6,0,0,0,7-3c1.75-2,2.62-5,3-10v-3c0-4-.43-7-1.74-8a6,6,0,0,0-5.23-3H35.81Z" transform="translate(-8.35 -7.97)"/><path class="cls-2" d="M98.59,45.86h15.7l-1.31,16c2.61-6,4.79-11,7.41-14s5.23-5,8.72-5c4.79,0,8.28,3,10.9,8,2.18,5,3.49,13,3.49,22.93a108.85,108.85,0,0,1-.44,12l-4.36,59.83H121.26l3.93-52.85c0-2,.43-5,.43-7a61.9,61.9,0,0,0-.87-9q-1.31-3-3.92-3c-2.62,0-4.8,2-5.67,5a63.68,63.68,0,0,0-2.62,15l-3.92,51.85H91.18Z" transform="translate(-8.35 -7.97)"/><path class="cls-2" d="M160.06,148.57h0a8.64,8.64,0,0,0,.87,4c.44,2,1.75,2,3.49,2,2.62,0,4.36-1,5.67-4s2.18-8,2.62-15l.87-8c-1.31,3-3.05,5-5.23,8a11.2,11.2,0,0,1-7.85,3,9.92,9.92,0,0,1-7-3c-2.18-2-3.48-5-4.79-8s-2.18-7-3-12-.88-9-.88-15v-5a19.09,19.09,0,0,1,.44-5c.44-6,1.31-12,2.18-17.95,1.31-6,2.62-12,4.8-16a36.46,36.46,0,0,1,7-12c2.62-3,5.67-4,9.59-4a7.65,7.65,0,0,1,7,4,28.53,28.53,0,0,1,4.79,12l.87-13h15.26l-6.1,80.77c-.44,7-1.31,15-2.18,20.94a94.24,94.24,0,0,1-3.92,17c-1.75,5-4.36,9-7.85,11-3.49,3-7.41,4-13.08,4a25.74,25.74,0,0,1-9.59-2,44.06,44.06,0,0,1-6.54-6,26.62,26.62,0,0,1-3.49-9,39.23,39.23,0,0,1-1.31-10v-1h17.44ZM170.53,68.8c-1.31,0-2.18,1-3.49,2a22.55,22.55,0,0,0-2.62,5,25.71,25.71,0,0,0-1.74,7,61.9,61.9,0,0,0-.87,9v5a34,34,0,0,0,1.3,10,6.8,6.8,0,0,0,4.36,5h.44c1.31,0,2.18-1,3.49-2a22.47,22.47,0,0,0,2.61-5,25.78,25.78,0,0,0,1.75-7,40,40,0,0,0,.87-8c0-2,.43-4,.43-6a41.47,41.47,0,0,0-1.3-11c-1.31-2-3-4-5.23-4Z" transform="translate(-8.35 -7.97)"/><path class="cls-2" d="M237.23,61.82v-2c0-6-.87-11-2.18-14s-3.49-5-6.54-5c-3.49,0-6.11,3-8.29,9s-3.92,16-4.79,27.92c0,2-.44,5-.44,7v6a61.26,61.26,0,0,0,.44,9c.44,3,.87,5,1.31,7a22.58,22.58,0,0,0,2.61,5c1.31,1,2.62,2,4.36,2,3,0,5.23-2,7.41-6,1.75-4,3.06-9,3.93-16h17.87a173,173,0,0,1-4.36,22.94,96.42,96.42,0,0,1-7,17,35.2,35.2,0,0,1-9.16,11c-3.49,2-7,4-10.46,4-3.93,0-7.85-1-10.9-4-3-2-5.67-6-7.85-10a57.48,57.48,0,0,1-4.79-17,116.71,116.71,0,0,1-1.75-21.94v-8c0-3,.44-5,.44-8,.87-10,2.18-19.94,4.36-27.92s4.79-16,7.85-21.94,6.54-10,10-14c3.93-3,7.41-5,11.34-5q12.42,0,18.31,12c3.92,8,6.1,20,6.1,34.9v6Z" transform="translate(-8.35 -7.97)"/><path class="cls-2" d="M273,101.71v4a29.93,29.93,0,0,0,2.18,12c1.3,3,3,4,5.23,4,1.31,0,2.61-1,3.92-2s2.18-4,3.05-7h16.57a82.82,82.82,0,0,1-4.8,15.95c-2.18,4-4.36,8-6.54,10-2.18,3-4.79,4-7.41,6-2.61,1-5.23,2-7.84,2a14.34,14.34,0,0,1-8.72-3,18.55,18.55,0,0,1-6.54-8,54.35,54.35,0,0,1-4.36-13,102,102,0,0,1-1.75-18v-5a19.09,19.09,0,0,1,.44-5,102.25,102.25,0,0,1,3.49-21.94,71.66,71.66,0,0,1,6.54-17c2.61-5,5.66-8,8.72-11a13.71,13.71,0,0,1,10-4,14.66,14.66,0,0,1,9.16,3c2.61,2,4.79,5,7,10a82,82,0,0,1,4.36,15A128.23,128.23,0,0,1,307,87.74c0,4-.44,9-.87,15H273Zm17-19.95v-3c0-4-.44-8-1.75-10-1.3-3-2.61-4-4.79-4-2.62,0-4.8,2-6.54,5s-2.62,7-3,13H290Z" transform="translate(-8.35 -7.97)"/><path class="cls-2" d="M312.21,45.86h15.7l-1.31,16c2.61-6,4.79-11,7.41-14s5.23-5,8.72-5c4.79,0,8.28,3,10.9,8,2.18,5,3.49,13,3.49,22.93a108.85,108.85,0,0,1-.44,12l-4.36,59.83H334.88l3.93-52.85c0-2,.43-5,.43-7a61.9,61.9,0,0,0-.87-9q-1.31-3-3.92-3c-2.62,0-4.8,2-5.67,5a63.68,63.68,0,0,0-2.62,15l-3.92,51.85H304.8Z" transform="translate(-8.35 -7.97)"/><path class="cls-2" d="M384.58,145.58c-1.74,0-3.92,0-5.23,1H375c-2.62,0-4.8,0-6.54-1a37,37,0,0,1-4.36-3c-.87-1-1.74-3-2.18-6a42.75,42.75,0,0,1-.87-9v-8c0-3,.44-6,.44-9l3-42.88h-6.11l1.75-22.94h6.54L369.32,14h17l-2.62,30.91H392L390.25,67.8H382l-2.62,36.9a7.1,7.1,0,0,1-.44,3v3a14,14,0,0,0,.88,5,4.58,4.58,0,0,0,3.92,2h2.62Z" transform="translate(-8.35 -7.97)"/><path class="cls-2" d="M395.48,45.86h15.7l-1.31,20h0c3.48-15,8.72-22.94,15.26-22.94h2.61l-3.05,39.89c-.44,0-1.31-1-1.74-1H421.2c-3.49,0-6.54,2-8.28,7-2.18,4-3.49,12-4.36,22.94l-2.62,34.9H388.51Z" transform="translate(-8.35 -7.97)"/><path class="cls-2" d="M450.85,146.58v-14c-2.62,5-5.67,9-8.29,11a14.67,14.67,0,0,1-9.15,3,9.8,9.8,0,0,1-5.23-1,9,9,0,0,1-4.36-5c-1.31-2-2.18-5-3.05-8s-.88-7-.88-11a27.39,27.39,0,0,1,.44-6,59.6,59.6,0,0,1,3.49-18,37.34,37.34,0,0,1,6.54-10c2.61-2,5.23-4,7.84-5s5.24-2,7.85-2c2.18-1,4.36-2,6.11-3s2.61-3,2.61-7v-2c0-2,0-3-.43-4s-.88-2-1.31-2-.87-1-1.75-1h-3c-.87,0-1.31,1-1.74,1-.44,1-1.31,2-1.75,3a34.31,34.31,0,0,0-1.3,5H426.87a115,115,0,0,1,2.18-14c1.31-4,2.62-8,4.79-11a28.16,28.16,0,0,1,7.85-7c3.05-2,7-2,11.34-2a25.78,25.78,0,0,1,9.59,2c2.61,1,4.36,3,6.1,5a20.75,20.75,0,0,1,3,8,77.87,77.87,0,0,1,.88,11v7c0,3-.44,5-.44,8l-3.49,46.87c0,2-.43,4-.43,5a12.67,12.67,0,0,0,.43,4c.44,1,.44,2,1.31,4v5H450.85Zm-8.29-22.94c1.31,0,2.62-1,3.93-2s2.18-3,3.05-5a34.38,34.38,0,0,0,1.74-8,63.48,63.48,0,0,0,.88-10c-1.75,2-3.06,3-4.8,3-1.74,1-3.05,1-4.36,2a9.61,9.61,0,0,0-3.49,4,16,16,0,0,0-1.74,7v1c0,2,.43,4,1.31,5C440,122.65,441.26,123.64,442.56,123.64Z" transform="translate(-8.35 -7.97)"/><polygon class="cls-2" points="463.43 137.62 473.89 1 491.33 1 480.86 137.62 463.43 137.62"/><polygon class="cls-2" points="60.6 137.62 70.19 56.84 82.83 56.84 77.6 137.62 60.6 137.62"/><path class="cls-2" d="M97.28,28.91h0a7.89,7.89,0,0,0-1.74-4c-1.31-2-3.05-5-6.54-7q-2.61-1.5-3.92,0a13.46,13.46,0,0,0-5.23,4h-.44c-.87,2-2.18,2-3,0a9.66,9.66,0,0,1,0-7S79,9,84.21,8a9.9,9.9,0,0,1,5.23,1c7.84,3,10.9,15,10.9,16h0c.43,2,0,5-.88,6h-.87A9.23,9.23,0,0,1,97.28,28.91Z" transform="translate(-8.35 -7.97)"/><path class="cls-2" d="M92.49,38.88h0l-.87-2a9.56,9.56,0,0,0-3.49-4H86c-1.74,0-2.62,2-2.62,2h0q-1.31,3-2.61,0a7.18,7.18,0,0,1,0-6s1.74-4,4.79-5h3.06c4.79,2,6.53,9,7,10a6.06,6.06,0,0,1-.87,5h-.44C93.36,41.87,92.49,40.88,92.49,38.88Z" transform="translate(-8.35 -7.97)"/><path class="cls-2" d="M90.74,48.85c0,5-2.17,9-4.35,9-2.62,0-4.36-4-4.36-9s2.18-9,4.36-9c2.61,0,4.35,4,4.35,9" transform="translate(-8.35 -7.97)"/><path class="cls-1" d="M504.47,23.92a25.22,25.22,0,0,1,2.18-7c.87-2,1.74-4,3.05-5s2.62-2,3.93-2,2.61,1,3.92,2,2.18,3,3.05,5a25.22,25.22,0,0,1,2.18,7,62,62,0,0,1,.87,9,61.9,61.9,0,0,1-.87,9,25.11,25.11,0,0,1-2.18,7c-.87,2-1.74,4-3.05,5s-2.62,2-3.92,2-2.62-1-3.93-2-2.18-3-3.05-5a25.11,25.11,0,0,1-2.18-7,61.9,61.9,0,0,1-.87-9A50.56,50.56,0,0,1,504.47,23.92Zm1.31,16a30.68,30.68,0,0,0,1.74,6,13.7,13.7,0,0,0,2.62,4,3.77,3.77,0,0,0,3.05,1c1.31,0,2.18,0,3-1a13.7,13.7,0,0,0,2.62-4,31.39,31.39,0,0,0,1.74-6,42.86,42.86,0,0,0,.44-8,32.22,32.22,0,0,0-.44-7,31.39,31.39,0,0,0-1.74-6,13.7,13.7,0,0,0-2.62-4,3.77,3.77,0,0,0-3-1c-1.31,0-2.18,0-3.05,1a13.7,13.7,0,0,0-2.62,4,30.68,30.68,0,0,0-1.74,6,42.8,42.8,0,0,0-.44,8A37.26,37.26,0,0,0,505.78,39.88Zm8.28-20c1.31,0,2.18,1,3.05,2a16,16,0,0,1,.88,6,14,14,0,0,1-.88,5c-.43,1-1.3,2-2.18,2l3.06,12h-1.75l-3-11h-1.74v11H509.7V19.93Zm-.87,11h1.31c.43,0,.87,0,.87-1,.44,0,.44-1,.87-1,0-1,.44-1,.44-2s0-2-.44-2c0-1-.43-1-.43-1-.44,0-.44,0-.88-1h-3v8Z" transform="translate(-8.35 -7.97)"/></svg>