<?xml version="1.0" encoding="iso-8859-1"?>
<!-- Generator: Adobe Illustrator 19.0.0, SVG Export Plug-In . SVG Version: 6.00 Build 0)  -->
<svg xmlns="http://www.w3.org/2000/svg" xmlns:xlink="http://www.w3.org/1999/xlink" version="1.1" id="Capa_1" x="0px" y="0px" viewBox="0 0 512 512" style="enable-background:new 0 0 512 512;" xml:space="preserve">
<g>
	<g>
		<path d="M60.235,198.777C26.98,198.777,0,225.745,0,259.012c0,33.262,26.98,60.235,60.235,60.235    c33.268,0.001,60.235-26.973,60.235-60.235C120.47,225.744,93.503,198.777,60.235,198.777z M60.235,301.177    c-23.245,0-42.165-18.92-42.165-42.165c0-23.246,18.92-42.165,42.165-42.165s42.165,18.92,42.165,42.165    S83.48,301.177,60.235,301.177z"/>
	</g>
</g>
<g>
	<g>
		<path d="M349.365,24.095c-33.268,0-60.236,26.967-60.236,60.235c0,33.262,26.968,60.235,60.236,60.235    s60.235-26.973,60.235-60.235C409.601,51.062,382.634,24.095,349.365,24.095z M349.365,126.496    c-23.245,0-42.165-18.92-42.165-42.165c0-23.246,18.92-42.165,42.165-42.165c23.245,0,42.165,18.92,42.165,42.165    C391.531,107.577,372.611,126.496,349.365,126.496z"/>
	</g>
</g>
<g>
	<g>
		<path d="M355.389,361.413c-33.256,0-60.235,26.967-60.235,60.235c0,33.262,26.98,60.235,60.235,60.235    c33.268,0,60.235-26.973,60.235-60.235C415.624,388.381,388.657,361.413,355.389,361.413z M355.389,463.813    c-23.245,0-42.165-18.92-42.165-42.165c0-23.245,18.92-42.165,42.165-42.165c23.245,0,42.165,18.92,42.165,42.165    C397.553,444.892,378.633,463.813,355.389,463.813z"/>
	</g>
</g>
<g>
	<g>
		<path d="M451.765,192.754c-30.19,0-55.116,22.233-59.483,51.2h-61.555c-4.482-38.984-37.551-69.271-77.74-69.271    c-13.354,0-25.919,3.361-36.918,9.252l-30.413-50.694c15.216-10.933,25.166-28.744,25.166-48.912    c0-33.262-26.967-60.235-60.235-60.235c-33.256,0-60.235,26.973-60.235,60.235c0,33.256,26.98,60.235,60.235,60.235    c6.626,0,12.974-1.108,18.944-3.084l31.708,52.845c-16.252,14.354-26.558,35.279-26.558,58.664    c0,26.383,13.083,49.658,33.081,63.849l-32.214,53.682c-5.964-1.975-12.312-3.084-18.938-3.084    c-33.256,0-60.235,26.973-60.235,60.235c0,33.256,26.98,60.235,60.235,60.235c33.268,0,60.235-26.98,60.235-60.235    c0-20.173-9.951-37.984-25.166-48.912l31.931-53.218c9.071,3.68,18.974,5.753,29.377,5.753c40.189,0,73.258-30.286,77.74-69.271    h61.555c4.367,28.967,29.293,51.2,59.483,51.2c33.268,0,60.235-26.98,60.235-60.235C512,219.727,485.033,192.754,451.765,192.754z     M150.589,126.495c-23.246,0-42.165-18.921-42.165-42.165s18.92-42.165,42.165-42.165c23.246,0,42.165,18.92,42.165,42.165    S173.835,126.495,150.589,126.495z M198.778,427.671c-0.001,23.246-18.921,42.165-42.165,42.165s-42.165-18.92-42.165-42.165    c0-23.245,18.92-42.165,42.165-42.165S198.778,404.425,198.778,427.671z M252.988,313.224c-33.214,0-60.235-27.022-60.235-60.235    s27.022-60.235,60.235-60.235c33.213,0,60.235,27.022,60.235,60.235S286.203,313.224,252.988,313.224z M451.765,295.154    c-23.245,0-42.165-18.92-42.165-42.165c0-23.246,18.92-42.165,42.165-42.165c23.245,0,42.165,18.92,42.165,42.165    C493.93,276.235,475.009,295.154,451.765,295.154z"/>
	</g>
</g>
<g>
</g>
<g>
</g>
<g>
</g>
<g>
</g>
<g>
</g>
<g>
</g>
<g>
</g>
<g>
</g>
<g>
</g>
<g>
</g>
<g>
</g>
<g>
</g>
<g>
</g>
<g>
</g>
<g>
</g>
</svg>
