<?xml version="1.0" encoding="iso-8859-1"?>
<!-- Generator: Adobe Illustrator 19.0.0, SVG Export Plug-In . SVG Version: 6.00 Build 0)  -->
<svg xmlns="http://www.w3.org/2000/svg" xmlns:xlink="http://www.w3.org/1999/xlink" version="1.1" id="Capa_1" x="0px" y="0px" viewBox="0 0 511.999 511.999" style="enable-background:new 0 0 511.999 511.999;" xml:space="preserve">
<g>
	<g>
		<polygon points="422.05,153.362 422.05,153.368 422.062,153.355   "/>
	</g>
</g>
<g>
	<g>
		<path d="M422.05,140.649l0.012,0.007L422.05,140.649z"/>
	</g>
</g>
<g>
	<g>
		<path d="M383.006,397.587l-71.736-56.82c-8.135-6.469-16.722-9.984-24.608-9.984c-7.624,0-14.598,3.284-19.869,10.371    l-24.133,33.055c-23.097-18.351-43.645-36.484-63.145-55.877c-19.55-19.356-37.82-39.743-56.32-62.665l33.318-23.946    c14.524-10.646,13.205-28.26,0.394-44.132l-57.243-71.174c-6.294-6.207-14.598-9.328-22.902-9.328    c-8.135,0-16.278,2.991-22.559,9.016l-43.296,40.361c-5.333,5.139-8.829,11.739-10.39,19.619    c-8.035,40.491,79.816,148.118,126.452,194.398c44.631,44.282,145.827,125.99,190.247,125.99c2.01,0,3.902-0.168,5.669-0.512    c7.936-1.548,14.585-5.02,19.768-10.303l40.673-42.964C395.594,430.092,395.388,409.943,383.006,397.587z M369.589,429.874    l-40.535,42.821c-2.485,2.497-5.707,4.102-9.816,4.907c-0.38,0.075-1.024,0.156-2.023,0.156    c-33.867,0-127.389-71.374-176.916-120.514c-20.086-19.925-53.511-57.263-81.646-96.912    c-42.272-59.561-40.036-78.667-39.649-80.659c0.818-4.072,2.429-7.256,4.939-9.722l43.351-40.417    c2.535-2.422,5.888-3.753,9.466-3.753c3.366,0,6.525,1.174,8.985,3.31l56.451,70.188c4.851,6.007,6.207,10.927,5.876,13.531    c-0.088,0.662-0.268,2.035-2.622,3.759l-33.305,23.946c-4.184,3.003-6.937,7.568-7.624,12.638    c-0.693,5.07,0.743,10.196,3.965,14.193c19.1,23.664,37.976,44.67,57.681,64.187c19.743,19.638,40.917,38.369,64.705,57.269    c3.366,2.672,7.524,4.102,11.783,4.102c0.843,0,1.686-0.056,2.522-0.168c5.107-0.687,9.722-3.415,12.744-7.561l24.039-32.918    c1.904-2.56,3.354-2.779,4.695-2.779c3.403,0,8.198,2.198,12.857,5.9l70.707,55.989    C374.821,416.593,374.671,424.642,369.589,429.874z"/>
	</g>
</g>
<g>
	<g>
		<polygon points="228.113,252.802 228.113,252.802 228.089,252.802   "/>
	</g>
</g>
<g>
	<g>
		<polygon points="477.49,252.802 477.44,252.802 477.44,252.802   "/>
	</g>
</g>
<g>
	<g>
		<path d="M477.44,15.528H228.113c-19.076,0.037-34.51,15.366-34.547,34.286v168.505c0.037,18.92,15.478,34.447,34.547,34.479    l121.501-0.144v51.3c0,3.665,2.161,6.993,5.526,8.51c3.366,1.517,7.305,0.937,10.096-1.468l65.499-58.225l46.705,0.025    c19.076-0.031,34.529-15.36,34.56-34.279V49.812C511.969,30.894,496.515,15.565,477.44,15.528z M493.149,218.517    c0,4.284-1.742,8.135-4.608,11.002c-2.891,2.853-6.781,4.583-11.095,4.583h-0.037l-50.257-0.012    c-2.254,0.007-4.452,0.83-6.156,2.31l-52.537,46.985v-40.061c0-5.163-4.196-9.341-9.403-9.354l-130.929,0.131h-0.012    c-4.315,0-8.198-1.73-11.083-4.583c-2.879-2.865-4.62-6.912-4.62-11.195V49.812c0-4.284,1.742-8.135,4.62-11.002    c2.891-2.853,6.769-4.583,11.083-4.583h249.332c4.315,0,8.205,1.73,11.095,4.583c2.865,2.865,4.608,6.718,4.608,11.002    C493.149,49.812,493.149,218.517,493.149,218.517z"/>
	</g>
</g>
<g>
	<g>
		<ellipse cx="396.444" cy="168.551" rx="15.673" ry="15.535"/>
	</g>
</g>
<g>
	<g>
		<ellipse cx="352.553" cy="168.551" rx="15.673" ry="15.535"/>
	</g>
</g>
<g>
	<g>
		<ellipse cx="308.673" cy="168.551" rx="15.685" ry="15.535"/>
	</g>
</g>
<g>
</g>
<g>
</g>
<g>
</g>
<g>
</g>
<g>
</g>
<g>
</g>
<g>
</g>
<g>
</g>
<g>
</g>
<g>
</g>
<g>
</g>
<g>
</g>
<g>
</g>
<g>
</g>
<g>
</g>
</svg>
