<?xml version="1.0"?>
<svg xmlns="http://www.w3.org/2000/svg" id="outline" viewBox="0 0 48 48" ><path d="M22.058,29.86H11.242a.75.75,0,0,0-.75.75v9.332a.75.75,0,0,0,.75.75H22.058a.75.75,0,0,0,.75-.75V30.61A.75.75,0,0,0,22.058,29.86Zm-4.667,1.5v1.255H15.909V31.36Zm3.917,7.832H11.992V31.36h2.417v2.005a.75.75,0,0,0,.75.75h2.982a.75.75,0,0,0,.75-.75V31.36h2.417Z"/><path d="M36.758,29.86H25.942a.75.75,0,0,0-.75.75v9.332a.75.75,0,0,0,.75.75H36.758a.75.75,0,0,0,.75-.75V30.61A.75.75,0,0,0,36.758,29.86Zm-4.667,1.5v1.255H30.609V31.36Zm3.917,7.832H26.692V31.36h2.417v2.005a.75.75,0,0,0,.75.75h2.982a.75.75,0,0,0,.75-.75V31.36h2.417Z"/><path d="M47.627,20.941,24.345,7.4a.754.754,0,0,0-.755,0L.372,20.942a.75.75,0,1,0,.756,1.295l2.5-1.455V39.95a.75.75,0,0,0,.75.75H8.086a.75.75,0,0,0,0-1.5H5.124V20.257H42.876V39.2H40.022a.75.75,0,0,0,0,1.5h3.6a.75.75,0,0,0,.75-.75V20.786l2.5,1.452a.737.737,0,0,0,.377.1.75.75,0,0,0,.377-1.4ZM7.1,18.757,23.969,8.918l16.918,9.839Z"/><path d="M21.308,14.819A2.692,2.692,0,1,0,24,12.128,2.7,2.7,0,0,0,21.308,14.819ZM24,13.628a1.192,1.192,0,1,1-1.192,1.191A1.192,1.192,0,0,1,24,13.628Z"/></svg>
