<?xml version="1.0" encoding="iso-8859-1"?>
<!-- Generator: Adobe Illustrator 19.0.0, SVG Export Plug-In . SVG Version: 6.00 Build 0)  -->
<svg version="1.1" id="Layer_1" xmlns="http://www.w3.org/2000/svg" xmlns:xlink="http://www.w3.org/1999/xlink" x="0px" y="0px"
	 viewBox="0 0 512 512" style="enable-background:new 0 0 512 512;" xml:space="preserve">
<g>
	<g>
		<circle cx="259.151" cy="217.95" r="22.24"/>
	</g>
</g>
<g>
	<g>
		<circle cx="174.221" cy="217.95" r="22.24"/>
	</g>
</g>
<g>
	<g>
		<path d="M217.315,88.973c-71.118,0-128.976,57.859-128.976,128.977s57.859,128.977,128.977,128.977
			s128.976-57.859,128.976-128.977S288.433,88.973,217.315,88.973z M217.315,317.994c-55.164,0-100.044-44.879-100.044-100.044
			c0-55.165,44.879-100.044,100.044-100.044s100.044,44.879,100.044,100.044C317.359,273.115,272.481,317.994,217.315,317.994z"/>
	</g>
</g>
<g>
	<g>
		<path d="M479,193.007h-16.004V14.467c0-7.99-6.477-14.467-14.467-14.467c-7.99,0-14.467,6.477-14.467,14.467v178.54h-17.965
			V93.444c0-31.179-25.366-56.545-56.545-56.545H75.079c-31.179,0-56.545,25.366-56.545,56.545v362.011
			c0,31.179,25.366,56.545,56.545,56.545h284.472c31.179,0,56.545-25.366,56.545-56.545v-110.28h12.687
			c35.666,0,64.682-29.017,64.682-64.683v-73.019C493.466,199.484,486.99,193.007,479,193.007z M359.552,483.067H75.079
			c-15.225,0-27.612-12.387-27.612-27.612V93.444c0-15.225,12.387-27.612,27.612-27.612h284.472
			c15.225,0,27.612,12.387,27.612,27.612v362.011h0.001C387.164,470.68,374.778,483.067,359.552,483.067z M464.534,280.492
			c0,19.712-16.037,35.75-35.749,35.75h-12.687V221.94h48.436V280.492z"/>
	</g>
</g>
<g>
	<g>
		<path d="M340.94,384.818h-35.098c-8.284,0-15,6.716-15,15s6.716,15,15,15h35.098c8.284,0,15-6.716,15-15
			S349.224,384.818,340.94,384.818z"/>
	</g>
</g>
<g>
	<g>
		<path d="M340.94,432.494h-35.098c-8.284,0-15,6.716-15,15s6.716,15,15,15h35.098c8.284,0,15-6.716,15-15
			S349.224,432.494,340.94,432.494z"/>
	</g>
</g>
<g>
</g>
<g>
</g>
<g>
</g>
<g>
</g>
<g>
</g>
<g>
</g>
<g>
</g>
<g>
</g>
<g>
</g>
<g>
</g>
<g>
</g>
<g>
</g>
<g>
</g>
<g>
</g>
<g>
</g>
</svg>
